<svg xmlns="http://www.w3.org/2000/svg" xmlns:xlink="http://www.w3.org/1999/xlink" width="112.449" height="112.449" viewBox="0 0 112.449 112.449">
  <defs>
    <filter id="Rectángulo_405217" x="0" y="0" width="112.449" height="112.449" filterUnits="userSpaceOnUse">
      <feOffset dx="6" dy="7" input="SourceAlpha"/>
      <feGaussianBlur stdDeviation="4" result="blur"/>
      <feFlood flood-opacity="0.251"/>
      <feComposite operator="in" in2="blur"/>
      <feComposite in="SourceGraphic"/>
    </filter>
  </defs>
  <g id="Grupo_1178834" data-name="Grupo 1178834" transform="translate(-315.051 -1319)">
    <g transform="matrix(1, 0, 0, 1, 315.05, 1319)" filter="url(#Rectángulo_405217)">
      <g id="Rectángulo_405217-2" data-name="Rectángulo 405217" transform="translate(6 5)" fill="#e0ee33" stroke="#fff" stroke-width="3">
        <path d="M0,0H59.449a29,29,0,0,1,29,29V59.449a29,29,0,0,1-29,29H29a29,29,0,0,1-29-29V0A0,0,0,0,1,0,0Z" stroke="none"/>
        <path d="M1.5,1.5H59.449A27.5,27.5,0,0,1,86.949,29V59.449a27.5,27.5,0,0,1-27.5,27.5H29a27.5,27.5,0,0,1-27.5-27.5V1.5A0,0,0,0,1,1.5,1.5Z" fill="none"/>
      </g>
    </g>
    <g id="Filled_outline" data-name="Filled outline" transform="translate(338.192 1341.087)">
      <path id="Trazado_1034942" data-name="Trazado 1034942" d="M76.362,407.222l-6.32,2.708H37.284a37.193,37.193,0,0,1-6.653-.6l-3.078-.56A4.327,4.327,0,0,1,24,404.514H42.614A49.582,49.582,0,0,0,57.4,402.257h0A38.543,38.543,0,0,1,70.387,400h4.17l1.806,2.708Z" transform="translate(-23.097 -356.666)" fill="#e0e0de"/>
      <path id="Trazado_1034943" data-name="Trazado 1034943" d="M74.556,286.445h-4.17A38.536,38.536,0,0,0,57.4,288.7a49.585,49.585,0,0,1-13.987,2.25q-.4.007-.8.007H24v-1.812a3.612,3.612,0,0,1,2.592-3.464l7.3-2.867,4.551-1.788L51.987,272.9l2.708,3.611,1,1.328a5.708,5.708,0,0,0,4.485,2.282h.081a5.71,5.71,0,0,0,4.266-1.916L70.043,272l1.23,2.215.214.386q.374.672.7,1.364a24.383,24.383,0,0,1,2.366,10.479Z" transform="translate(-23.097 -243.111)" fill="#f7afaf"/>
      <path id="Trazado_1034944" data-name="Trazado 1034944" d="M227.2,286.445h-4.17a38.536,38.536,0,0,0-12.983,2.257,49.584,49.584,0,0,1-13.987,2.25,54.435,54.435,0,0,0,16.759-10.828h.081a5.71,5.71,0,0,0,4.266-1.916L222.686,272l1.23,2.215.214.386q.374.672.7,1.364A24.384,24.384,0,0,1,227.2,286.445Z" transform="translate(-175.74 -243.111)" fill="#f1a9a9"/>
      <path id="Trazado_1034945" data-name="Trazado 1034945" d="M132.472,283.611l-13.2,7.427a5.438,5.438,0,0,1-5.1.124l-2.462-1.231-.037-.018,4.551-1.788L129.763,280Z" transform="translate(-100.874 -250.208)" fill="#f2a0a0"/>
      <path id="Trazado_1034946" data-name="Trazado 1034946" d="M90.557,72v1.812a3.612,3.612,0,0,1-2.592,3.464l-7.3,2.867-4.551,1.788L62.57,90.056l-2.708-3.611-1-1.328a5.712,5.712,0,0,0-4.485-2.282H54.3a5.71,5.71,0,0,0-4.266,1.916l-1.818,2.045-3.7,4.164-1.23-2.215-.214-.386c-.037-.068-.074-.135-.111-.2-.209-.381-.405-.77-.592-1.161A24.383,24.383,0,0,1,40,76.514h4.17a38.535,38.535,0,0,0,12.983-2.257,49.586,49.586,0,0,1,13.987-2.25q.4-.007.8-.007Z" transform="translate(-37.292 -65.68)" fill="#f7afaf"/>
      <path id="Trazado_1034947" data-name="Trazado 1034947" d="M66.22,204.46c1.747-.388,3.5-.838,5.257-1.36l-3.7,4.164-1.23-2.215-.214-.386C66.293,204.6,66.256,204.528,66.22,204.46Z" transform="translate(-60.553 -181.986)" fill="#f1a9a9"/>
      <path id="Trazado_1034948" data-name="Trazado 1034948" d="M224.64,72v1.812a3.612,3.612,0,0,1-2.592,3.464l-7.3,2.867L210.2,81.931l-13.542,8.125-2.708-3.611-1-1.328a5.708,5.708,0,0,0-1.809-1.572A59.336,59.336,0,0,0,208.439,72Z" transform="translate(-171.376 -65.68)" fill="#f1a9a9"/>
      <path id="Trazado_1034949" data-name="Trazado 1034949" d="M24,26.708,30.32,24H63.078a37.191,37.191,0,0,1,6.653.6l3.078.56a4.327,4.327,0,0,1,3.553,4.257H57.748a49.581,49.581,0,0,0-14.789,2.257h0a38.543,38.543,0,0,1-12.984,2.257h-4.17L24,31.222Z" transform="translate(-23.097 -23.097)" fill="#e0e0de"/>
      <path id="Trazado_1034950" data-name="Trazado 1034950" d="M216,136.125l13.2-7.427a5.437,5.437,0,0,1,5.1-.124l2.462,1.231.037.018-4.551,1.788-13.542,8.125Z" transform="translate(-193.43 -115.361)" fill="#f2a0a0"/>
      <path id="Trazado_1034951" data-name="Trazado 1034951" d="M68.36,279.072a25.354,25.354,0,0,0-3.18-12.006l-1.444-2.6a.9.9,0,0,0-1.464-.161l-5.52,6.209a4.8,4.8,0,0,1-7.435-.309l-3.7-4.939a.9.9,0,0,0-1.187-.232l-2.5,1.5-.859-1.283-1.5,1.005.809,1.207-1.506.9-.8-1.154-1.483,1.03.734,1.055-1.745,1.047-.832-1.21-1.488,1.023.769,1.118-1.734,1.041-.691-1.072-1.517.979.637.988L26.5,274.863a.9.9,0,0,0-.573.841v.033a.9.9,0,0,0,.5.807l2.463,1.231a6.341,6.341,0,0,0,5.945-.145l12.513-7.039.521.695a6.61,6.61,0,0,0,10.229.426l4.674-5.258.827,1.488c.058.1.113.211.169.316l-4.223,4.751a8.132,8.132,0,0,1-6.073,2.727H52.112v1.806h1.363A9.939,9.939,0,0,0,60.9,274.21l3.724-4.19a23.565,23.565,0,0,1,1.918,8.426H63.29a39.441,39.441,0,0,0-13.253,2.3,48.623,48.623,0,0,1-14.52,2.216H17.806v-.909a2.723,2.723,0,0,1,1.944-2.6q.038-.011.075-.026l4.955-1.946-.66-1.681-4.92,1.932A4.539,4.539,0,0,0,16,282.05v1.812a5.227,5.227,0,0,0,4.294,5.146l3.078.56a38.194,38.194,0,0,0,6.815.614H62.945a.9.9,0,0,0,.356-.073l6.32-2.708a.9.9,0,0,0,.547-.83v-4.514a.9.9,0,0,0-.152-.5Zm-26.975-10.11,1.418,2.117-1.471.827L39.9,269.85Zm-3.032,1.819,1.4,2.014-1.8,1.01L36.6,271.833Zm-3.3,1.982,1.327,1.93L34.5,275.747l-1.236-1.915Zm-5.349,3.4-.686-.343,2.663-1.046c.013-.005.025-.013.038-.019l1.127,1.747a4.521,4.521,0,0,1-3.142-.339Zm14.682-5.97-1.447-2.159L44.656,267l1.6,2.136Zm23.98,15.784L62.945,288.3v-2.629H61.14v2.708H57.529v-2.708H55.723v2.708H52.112v-2.708H50.306v2.708H46.7v-1.806H44.889v1.806H41.278v-1.806H39.473v1.806H35.861v-1.806H34.056v1.806H30.445v-1.806H28.639v1.772c-1.207-.052-2.415-.165-3.611-.337v-1.435H23.222V287.7l-2.605-.474a3.424,3.424,0,0,1-2.691-2.466H35.517a50.444,50.444,0,0,0,15.066-2.3,37.413,37.413,0,0,1,12.707-2.213h3.686l1.386,2.079Z" transform="translate(-16 -236.014)"/>
      <rect id="Rectángulo_405469" data-name="Rectángulo 405469" width="11.312" height="1.806" transform="translate(21.235 42.542) rotate(-28.61)"/>
      <path id="Trazado_1034952" data-name="Trazado 1034952" d="M65.873,17.174l-3.078-.56A38.2,38.2,0,0,0,55.981,16H23.222a.9.9,0,0,0-.356.073l-6.32,2.708a.9.9,0,0,0-.547.83v4.514a.9.9,0,0,0,.152.5l1.806,2.709a.9.9,0,0,0,.751.4h4.17a39.442,39.442,0,0,0,13.253-2.3,48.624,48.624,0,0,1,14.52-2.216H68.362v.909a2.723,2.723,0,0,1-1.944,2.6c-.026.007-.051.016-.075.026l-6.927,2.72-2.14-1.07a6.341,6.341,0,0,0-5.945.145L38.817,35.589l-.521-.695a6.61,6.61,0,0,0-10.229-.426l-4.674,5.258-.827-1.488c-.058-.1-.114-.21-.17-.315l4.224-4.752a8.132,8.132,0,0,1,6.073-2.727h1.363V28.639H32.693a9.939,9.939,0,0,0-7.422,3.333l-3.727,4.193a23.356,23.356,0,0,1-1.787-6.724l-1.794.2a25.163,25.163,0,0,0,3.026,9.474l1.444,2.6a.9.9,0,0,0,1.464.161l5.52-6.209a4.8,4.8,0,0,1,7.435.309l3.705,4.939a.9.9,0,0,0,1.187.232l2.5-1.5.859,1.283,1.5-1.005-.809-1.207,1.506-.9.8,1.154,1.483-1.03-.734-1.055,1.745-1.047.832,1.21,1.488-1.023-.769-1.118,1.734-1.041.691,1.072,1.517-.979-.637-.988,11.519-4.523a4.539,4.539,0,0,0,3.2-4.319V22.32A5.227,5.227,0,0,0,65.873,17.174ZM41.512,39.182l-1.6-2.136,1.876-1.055,1.447,2.159Zm3.271-1.963L43.365,35.1l1.471-.827,1.428,2.056ZM47.815,35.4l-1.4-2.014,1.8-1.01,1.356,1.973Zm3.3-1.982-1.327-1.931,1.871-1.053L52.9,32.35Zm2.207-3.736a4.521,4.521,0,0,1,3.142.339l.686.343L54.491,31.41c-.013.005-.025.013-.038.019Zm-2.675-8.265a50.446,50.446,0,0,0-15.066,2.3,37.413,37.413,0,0,1-12.707,2.214H19.191l-1.386-2.079V20.207l5.417-2.322v2.629h1.806V17.806h3.611v2.708h1.806V17.806h3.611v2.708h1.806V17.806h3.611v1.806h1.806V17.806h3.611v1.806H46.7V17.806h3.611v1.806h1.806V17.806h3.611v1.806h1.806V17.839c1.207.052,2.415.165,3.611.337v1.435h1.806V18.477l2.605.474a3.424,3.424,0,0,1,2.691,2.466Z" transform="translate(-16 -16)"/>
      <rect id="Rectángulo_405470" data-name="Rectángulo 405470" width="11.312" height="1.806" transform="translate(22.138 15.458) rotate(-28.611)"/>
    </g>
  </g>
</svg>
