<svg xmlns="http://www.w3.org/2000/svg" xmlns:xlink="http://www.w3.org/1999/xlink" width="112" height="112" viewBox="0 0 112 112">
  <defs>
    <filter id="Rect치ngulo_405217" x="0" y="0" width="112" height="112" filterUnits="userSpaceOnUse">
      <feOffset dx="6" dy="7" input="SourceAlpha"/>
      <feGaussianBlur stdDeviation="4" result="blur"/>
      <feFlood flood-opacity="0.251"/>
      <feComposite operator="in" in2="blur"/>
      <feComposite in="SourceGraphic"/>
    </filter>
  </defs>
  <g id="Grupo_1178960" data-name="Grupo 1178960" transform="translate(-191.051 -6289)">
    <g transform="matrix(1, 0, 0, 1, 191.05, 6289)" filter="url(#Rect치ngulo_405217)">
      <g id="Rect치ngulo_405217-2" data-name="Rect치ngulo 405217" transform="translate(6 5)" fill="#e0ee33" stroke="#fff" stroke-width="3">
        <path d="M0,0H59A29,29,0,0,1,88,29V59A29,29,0,0,1,59,88H29A29,29,0,0,1,0,59V0A0,0,0,0,1,0,0Z" stroke="none"/>
        <path d="M1.5,1.5H59A27.5,27.5,0,0,1,86.5,29V59A27.5,27.5,0,0,1,59,86.5H29A27.5,27.5,0,0,1,1.5,59V1.5A0,0,0,0,1,1.5,1.5Z" fill="none"/>
      </g>
    </g>
    <g id="Grupo_1178959" data-name="Grupo 1178959" transform="translate(209.051 6251.839)">
      <path id="Trazado_1035275" data-name="Trazado 1035275" d="M70.177,102.921a6.947,6.947,0,0,0-4.3-5.813L54.488,92.479A29.74,29.74,0,0,1,40,79.871c-3.94-6.789-9.917-14.076-12.53-6.653-1.074,3.052-3.034,5.737-6.219,6.307-5.706,1.019-5.9-5.662-8.971-5.709a2.721,2.721,0,0,0-2.559,3.131,73.671,73.671,0,0,1,.526,13.436A95.928,95.928,0,0,1,8.864,101.57c-1.045,6.318-2.072,12.222,4.208,13.666,1.976.455,3.488.36,8.818.36a2.934,2.934,0,0,0,1.456-.587l.182-.147a4.532,4.532,0,0,1,5.812.1,2.753,2.753,0,0,0,1.7.636H44.767a2.541,2.541,0,0,0,2.222-1.2l.387-.647a2.249,2.249,0,0,1,1.987-1.1h.62a2.226,2.226,0,0,1,1.805.842l.94,1.168a2.529,2.529,0,0,0,1.221.816c.536.17.178.121,9.307.121a7.061,7.061,0,0,0,6.951-7.024c0-4.166.013-5.629-.031-5.651Z" transform="translate(-6.998 -6.874)" fill="#ff6d7a"/>
      <g id="Grupo_1178957" data-name="Grupo 1178957" transform="translate(2.7 63.232)">
        <path id="Trazado_1035276" data-name="Trazado 1035276" d="M313.282,216.43a13.342,13.342,0,0,0-2.026,2.267.536.536,0,0,1-.729.142,29.763,29.763,0,0,1-6.913-6.124.535.535,0,0,1,.721-.78A37.86,37.86,0,0,0,313.282,216.43Z" transform="translate(-265.545 -192.859)" fill="#ff8c95"/>
        <path id="Trazado_1035277" data-name="Trazado 1035277" d="M135.8,70.717a1.774,1.774,0,0,1,.677,2.438,8.185,8.185,0,0,0-.66,1.454c-1.084,3.081-3.064,5.772-6.284,6.319a1.779,1.779,0,0,1-1.5-3.061,11.3,11.3,0,0,0,2.827-4.6C131.988,70.084,133.765,69.568,135.8,70.717Z" transform="translate(-113.093 -70.158)" fill="#ff8c95"/>
        <path id="Trazado_1035278" data-name="Trazado 1035278" d="M24.428,114.753a13.773,13.773,0,0,0-3.717-.321A73.671,73.671,0,0,0,20.185,101a2.721,2.721,0,0,1,2.559-3.131c1.074.017,1.8.847,2.527,1.875a1.075,1.075,0,0,1,.09,1.064,2.857,2.857,0,0,0-.221,1.531,74.228,74.228,0,0,1,.606,11.406A1.072,1.072,0,0,1,24.428,114.753Z" transform="translate(-20.16 -94.155)" fill="#ff8c95"/>
      </g>
      <path id="Trazado_1035279" data-name="Trazado 1035279" d="M360.294,249.607l-8.439-3.431a13.025,13.025,0,0,0-3.833,5.983c5.114,5.248,8.372.522,15.831.7A6.942,6.942,0,0,0,360.294,249.607Z" transform="translate(-301.417 -159.373)" fill="#cbe3fa"/>
      <path id="Trazado_1035280" data-name="Trazado 1035280" d="M375.155,252.862a19.036,19.036,0,0,0-4.256.42.536.536,0,0,1-.32-.027c-5.2-2.114-6.912-2.716-9.242-4.093a.537.537,0,0,1-.169-.771,13.365,13.365,0,0,1,1.988-2.213l8.439,3.431a6.942,6.942,0,0,1,3.559,3.254Z" transform="translate(-312.719 -159.374)" fill="#eef7ff"/>
      <path id="Trazado_1035281" data-name="Trazado 1035281" d="M75.272,234.4a6.9,6.9,0,0,0-.77-2.946c-7.4-.178-10.727,4.536-15.831-.7-9-.667-18.223-.668-27.249-.447a4.647,4.647,0,0,1-4.155-2.352,12.764,12.764,0,0,0-11.95-6.479,95.927,95.927,0,0,1-1.385,11.187h.806a6.137,6.137,0,0,1,5.039,2.7,9.149,9.149,0,0,0,7.537,3.96H75.276c0-5.087,0-4.752,0-4.923Z" transform="translate(-12.066 -137.965)" fill="#585966"/>
      <path id="Trazado_1035282" data-name="Trazado 1035282" d="M446.608,298.267l-2.543-1.034a.536.536,0,0,1,.142-1.029,18.239,18.239,0,0,1,2.539-.134,7.292,7.292,0,0,1,.587,1.581A.535.535,0,0,1,446.608,298.267Z" transform="translate(-384.309 -202.583)" fill="#6e6f80"/>
      <path id="Trazado_1035283" data-name="Trazado 1035283" d="M20.284,222.994c-.114,2.644-.7,6.712-1.164,9.605a1.071,1.071,0,0,1-1.56.774,5.832,5.832,0,0,0-1.326-.52,6.973,6.973,0,0,0-2.3-.191,95.91,95.91,0,0,0,1.385-11.187,13.672,13.672,0,0,1,4.172.434A1.074,1.074,0,0,1,20.284,222.994Z" transform="translate(-12.066 -137.965)" fill="#6e6f80"/>
      <path id="Trazado_1035284" data-name="Trazado 1035284" d="M70.16,311.777v.341a7.037,7.037,0,0,1-6.951,7.024c-9.093.086-8.765.051-9.307-.121a2.53,2.53,0,0,1-1.221-.816l-.94-1.168a2.226,2.226,0,0,0-1.805-.842h-.62a2.249,2.249,0,0,0-1.987,1.1l-.387.647a2.541,2.541,0,0,1-2.222,1.2H30.987a2.751,2.751,0,0,1-1.7-.636,4.532,4.532,0,0,0-5.812-.1l-.182.147a2.934,2.934,0,0,1-1.456.587H16.288c-3.415-.072-5.49-.837-6.689-2.2-2.258-2.567-1.677-6.428-.783-11.827h.806a6.137,6.137,0,0,1,5.039,2.7,9.149,9.149,0,0,0,7.537,3.96Z" transform="translate(-6.949 -210.42)" fill="#cbe3fa"/>
      <path id="Trazado_1035285" data-name="Trazado 1035285" d="M13.81,317.132a1.069,1.069,0,0,1-1.245,1.5c-5.8-1.645-4.692-7.633-3.715-13.54a7,7,0,0,1,2.3.191,5.938,5.938,0,0,1,2.089,1,1.066,1.066,0,0,1,.417,1.036C13.106,310.616,12.46,314.48,13.81,317.132Z" transform="translate(-6.984 -210.398)" fill="#eef7ff"/>
      <g id="Grupo_1178958" data-name="Grupo 1178958" transform="translate(0 62.161)">
        <path id="Trazado_1035286" data-name="Trazado 1035286" d="M59.281,89.242l-11.387-4.63a28.525,28.525,0,0,1-6.216-3.49A1.071,1.071,0,1,0,40.4,82.845a33.1,33.1,0,0,0,8.138,4.344,13.933,13.933,0,0,0-2.678,4.471c-7.535-.524-16-.649-26.533-.392a3.579,3.579,0,0,1-3.2-1.809,13.777,13.777,0,0,0-6.286-5.782,1.071,1.071,0,1,0-.887,1.95,11.648,11.648,0,0,1,5.311,4.892,5.707,5.707,0,0,0,5.112,2.891c10.663-.26,19.178-.127,26.749.417a7.612,7.612,0,0,0,5.517,2.521,23.269,23.269,0,0,0,5.481-1.1,1.071,1.071,0,1,0-.526-2.077c-3.8.962-5.867,1.992-8.764-.677a11.688,11.688,0,0,1,2.833-4.439l7.8,3.172a5.857,5.857,0,0,1,3.665,5.447V101.7a6.013,6.013,0,0,1-5.891,5.952H47.8a1.543,1.543,0,0,1-1.237-.537l-.94-1.168A3.319,3.319,0,0,0,42.97,104.7h-.591a3.321,3.321,0,0,0-2.919,1.622l-.388.647a1.483,1.483,0,0,1-1.3.677c-14.664,0-13.8.012-13.956-.021a1.682,1.682,0,0,1-.772-.354,5.6,5.6,0,0,0-7.185-.12,1.852,1.852,0,0,1-1.043.5H9.35c-7.839-.17-7.833-4.141-6.576-11.88a5.085,5.085,0,0,1,4.054,2.234,10.222,10.222,0,0,0,8.418,4.423H57.3a1.071,1.071,0,1,0,0-2.143H15.247a8.079,8.079,0,0,1-6.654-3.5A7.241,7.241,0,0,0,3.126,93.64c.32-1.946.659-4.106.907-6.456a74.188,74.188,0,0,0-.245-17.248,1.656,1.656,0,0,1,1.48-1.923c1.86.028,2.788,5.817,7.833,5.816,3.28,0,6.581-2.009,8.384-7.13.366-1.041,1-2.3,1.959-2.391,1.461-.139,4.409,2.095,8.334,8.716a11.717,11.717,0,0,1-5.088,2.129,1.071,1.071,0,1,0,.344,2.115A13.85,13.85,0,0,0,32.9,74.86a30.932,30.932,0,0,0,2.763,3.632,13.487,13.487,0,0,0-3.338,3.676,1.071,1.071,0,1,0,1.826,1.121,11.254,11.254,0,0,1,5.556-4.63,1.071,1.071,0,1,0-.773-2,13.278,13.278,0,0,0-1.445.663,28.79,28.79,0,0,1-2.93-3.845A14.539,14.539,0,0,0,35.808,72.1a1.071,1.071,0,0,0-1.674-1.337q-.342.428-.719.823c-2.808-4.668-6.691-9.741-10.172-9.411-1.673.157-2.945,1.44-3.78,3.813-.8,2.26-2.377,5.067-5.4,5.607-2.7.483-3.771-1.07-5.011-2.868C8.094,67.338,7.1,65.9,5.3,65.872a3.789,3.789,0,0,0-3.638,4.34A72.037,72.037,0,0,1,1.9,86.96c-1.03,9.767-3.677,16.155-.056,20.271,1.47,1.671,3.844,2.485,7.471,2.562.014,0,5.608.006,5.721-.01a3.953,3.953,0,0,0,1.984-.815l.182-.147a3.458,3.458,0,0,1,4.437.074,3.8,3.8,0,0,0,2.4.9H37.769a3.6,3.6,0,0,0,3.14-1.717l.388-.646a1.185,1.185,0,0,1,1.038-.583h.684a1.148,1.148,0,0,1,.936.443l.94,1.168a3.673,3.673,0,0,0,2.906,1.336h8.478a8.128,8.128,0,0,0,8-8.095V96.673a7.99,7.99,0,0,0-5-7.432Z" transform="translate(0 -62.161)"/>
      </g>
    </g>
  </g>
</svg>
