<svg xmlns="http://www.w3.org/2000/svg" xmlns:xlink="http://www.w3.org/1999/xlink" width="112" height="112" viewBox="0 0 112 112">
  <defs>
    <filter id="Rect치ngulo_405217" x="0" y="0" width="112" height="112" filterUnits="userSpaceOnUse">
      <feOffset dx="6" dy="7" input="SourceAlpha"/>
      <feGaussianBlur stdDeviation="4" result="blur"/>
      <feFlood flood-opacity="0.251"/>
      <feComposite operator="in" in2="blur"/>
      <feComposite in="SourceGraphic"/>
    </filter>
  </defs>
  <g id="Grupo_1178974" data-name="Grupo 1178974" transform="translate(-846.051 -8375)">
    <g transform="matrix(1, 0, 0, 1, 846.05, 8375)" filter="url(#Rect치ngulo_405217)">
      <g id="Rect치ngulo_405217-2" data-name="Rect치ngulo 405217" transform="translate(6 5)" fill="#cb98f5" stroke="#fff" stroke-width="3">
        <path d="M0,0H59A29,29,0,0,1,88,29V59A29,29,0,0,1,59,88H29A29,29,0,0,1,0,59V0A0,0,0,0,1,0,0Z" stroke="none"/>
        <path d="M1.5,1.5H59A27.5,27.5,0,0,1,86.5,29V59A27.5,27.5,0,0,1,59,86.5H29A27.5,27.5,0,0,1,1.5,59V1.5A0,0,0,0,1,1.5,1.5Z" fill="none"/>
      </g>
    </g>
    <g id="Grupo_1178973" data-name="Grupo 1178973" transform="translate(862.629 8382.088)">
      <g id="Grupo_1178971" data-name="Grupo 1178971" transform="translate(0.938 13.787)">
        <path id="Trazado_1035307" data-name="Trazado 1035307" d="M67.091,68.115H7.5V20.349H67.091A2.554,2.554,0,0,1,69.645,22.9V65.561A2.554,2.554,0,0,1,67.091,68.115Z" transform="translate(-7.5 -20.349)" fill="#dc8758"/>
        <path id="Trazado_1035308" data-name="Trazado 1035308" d="M446.829,20.349h-5.322a2.554,2.554,0,0,1,2.554,2.554V65.561a2.554,2.554,0,0,1-2.554,2.554h5.322a2.554,2.554,0,0,0,2.554-2.554V22.9A2.554,2.554,0,0,0,446.829,20.349Z" transform="translate(-387.239 -20.349)" fill="#d37444"/>
        <g id="Grupo_1178970" data-name="Grupo 1178970" transform="translate(21.527 29.047)">
          <path id="Trazado_1035309" data-name="Trazado 1035309" d="M180.478,349.587a2.788,2.788,0,0,0,3.943,0l2.629-2.629a4.144,4.144,0,0,0,1.088-1.916l.435-1.721L198.789,333.1l-2.886-2.886-15.426,15.426A2.788,2.788,0,0,0,180.478,349.587Z" transform="translate(-179.661 -320.518)" fill="#918291"/>
          <path id="Trazado_1035310" data-name="Trazado 1035310" d="M204.744,330.217l-1.673,1.673.542.542a1.124,1.124,0,0,1,0,1.59l-9.422,9.422-.435,1.721a4.144,4.144,0,0,1-1.088,1.916l-2.629,2.629a2.819,2.819,0,0,1-.275.238,2.789,2.789,0,0,0,3.5-.363l2.629-2.629a4.145,4.145,0,0,0,1.088-1.916l.435-1.721L207.629,333.1Z" transform="translate(-188.502 -320.518)" fill="#7a6d79"/>
          <path id="Trazado_1035311" data-name="Trazado 1035311" d="M309.558,262.346l9.593-9.593a.363.363,0,0,1,.618.225l.313,3.609a4.754,4.754,0,0,1-1.375,3.773l-2.986,2.986a3.934,3.934,0,0,1-1,.724l-2.282,1.162Z" transform="translate(-293.316 -252.647)" fill="#fbf0f1"/>
          <path id="Trazado_1035312" data-name="Trazado 1035312" d="M333.245,256.587l-.313-3.609a.363.363,0,0,0-.618-.225l-2.423,2.423.133,1.535a4.754,4.754,0,0,1-1.375,3.773l-2.986,2.986a3.932,3.932,0,0,1-1,.724l-.065.033,1,1,2.282-1.163a3.935,3.935,0,0,0,1-.724l2.986-2.986A4.754,4.754,0,0,0,333.245,256.587Z" transform="translate(-306.479 -252.647)" fill="#f3e4df"/>
        </g>
      </g>
      <g id="Grupo_1178972" data-name="Grupo 1178972" transform="translate(0 12.849)">
        <path id="Trazado_1035313" data-name="Trazado 1035313" d="M.938,14.725H8.316a.938.938,0,0,0,0-1.876H.938a.938.938,0,1,0,0,1.876Z" transform="translate(0 -12.849)"/>
        <path id="Trazado_1035314" data-name="Trazado 1035314" d="M60.529,12.849H12.71a.938.938,0,0,0,0,1.876H60.529a1.618,1.618,0,0,1,1.616,1.616V59a1.618,1.618,0,0,1-1.616,1.616H37.723l4.428-4.428L44.3,55.091a4.866,4.866,0,0,0,1.234-.9l2.986-2.986a5.68,5.68,0,0,0,1.646-4.517l-.313-3.608a1.3,1.3,0,0,0-2.216-.808L32.155,57.759a.938.938,0,0,0,1.326,1.326l5.226-5.226,1.56,1.559-9.554,9.554a.937.937,0,0,0-.246.434l-.435,1.722a3.209,3.209,0,0,1-.842,1.482l-2.629,2.629a1.851,1.851,0,1,1-2.617-2.617l6.406-6.406a.943.943,0,0,0-.663-1.6H.938a.938.938,0,1,0,0,1.876H27.423l-4.8,4.805a3.726,3.726,0,1,0,5.269,5.269l2.629-2.629a5.083,5.083,0,0,0,1.334-2.35l.371-1.471,3.625-3.625H60.529A3.5,3.5,0,0,0,64.021,59V16.341A3.5,3.5,0,0,0,60.529,12.849ZM48.09,44.476l.206,2.379a3.808,3.808,0,0,1-1.1,3.029l-2.986,2.986a2.991,2.991,0,0,1-.759.551l-1.674.853-1.741-1.741Z" transform="translate(0 -12.849)"/>
        <path id="Trazado_1035315" data-name="Trazado 1035315" d="M118.492,269.964a.938.938,0,0,0-1.473,1.161,12.99,12.99,0,0,0,2.3,2.265.938.938,0,1,0,1.141-1.489A11.106,11.106,0,0,1,118.492,269.964Z" transform="translate(-102.211 -237.501)"/>
        <path id="Trazado_1035316" data-name="Trazado 1035316" d="M145.651,103.623h-3a.938.938,0,1,0,0,1.876h3a.938.938,0,0,0,0-1.876Z" transform="translate(-123.992 -92.273)"/>
        <path id="Trazado_1035317" data-name="Trazado 1035317" d="M165.866,303.159a.938.938,0,0,0,.646,1.158,12.84,12.84,0,0,0,3.193.482h.023a.938.938,0,0,0,.022-1.875,10.97,10.97,0,0,1-2.726-.412A.938.938,0,0,0,165.866,303.159Z" transform="translate(-145.095 -266.262)"/>
        <path id="Trazado_1035318" data-name="Trazado 1035318" d="M178.216,192.631v-2.7a.938.938,0,1,0-1.876,0v2.7a2.906,2.906,0,0,0,.035.447.938.938,0,0,0,.925.793.954.954,0,0,0,.146-.011.938.938,0,0,0,.781-1.071A1.016,1.016,0,0,1,178.216,192.631Z" transform="translate(-154.29 -166.97)"/>
        <path id="Trazado_1035319" data-name="Trazado 1035319" d="M177.278,128.995a.938.938,0,0,0-.938.938v3a.938.938,0,0,0,1.876,0v-3A.938.938,0,0,0,177.278,128.995Z" transform="translate(-154.29 -114.472)"/>
        <path id="Trazado_1035320" data-name="Trazado 1035320" d="M98.45,103.623H97.278a.938.938,0,0,0-.938.938v1.829a.938.938,0,0,0,1.876,0V105.5h.234a.938.938,0,0,0,0-1.876Z" transform="translate(-84.294 -92.273)"/>
        <path id="Trazado_1035321" data-name="Trazado 1035321" d="M96.34,158.189a.938.938,0,0,0,1.876,0v-3a.938.938,0,1,0-1.876,0Z" transform="translate(-84.294 -136.569)"/>
        <path id="Trazado_1035322" data-name="Trazado 1035322" d="M97.313,214.25a.938.938,0,0,0-.9.973,12.84,12.84,0,0,0,.526,3.185.938.938,0,1,0,1.8-.537,10.969,10.969,0,0,1-.449-2.72A.937.937,0,0,0,97.313,214.25Z" transform="translate(-84.355 -189.066)"/>
        <path id="Trazado_1035323" data-name="Trazado 1035323" d="M395.515,127.511a.938.938,0,1,0-1.876,0v3a.938.938,0,1,0,1.876,0Z" transform="translate(-344.418 -112.353)"/>
        <path id="Trazado_1035324" data-name="Trazado 1035324" d="M360.528,103.623h-3a.938.938,0,1,0,0,1.876h3a.938.938,0,1,0,0-1.876Z" transform="translate(-312.001 -92.273)"/>
        <path id="Trazado_1035325" data-name="Trazado 1035325" d="M294.058,217.709l-.718,0h0a.938.938,0,0,0,0,1.876l.722,0a2.87,2.87,0,0,0,2.656-1.774.938.938,0,0,0-1.732-.72A1,1,0,0,1,294.058,217.709Z" transform="translate(-255.837 -191.047)"/>
        <path id="Trazado_1035326" data-name="Trazado 1035326" d="M394.577,186.573a.938.938,0,0,0-.938.938v3a.938.938,0,1,0,1.876,0v-3A.938.938,0,0,0,394.577,186.573Z" transform="translate(-344.418 -164.851)"/>
        <path id="Trazado_1035327" data-name="Trazado 1035327" d="M213.16,225.875l-6.319.026a.938.938,0,1,0,0,1.876l6.309-.026h0a.938.938,0,0,0,0-1.876Z" transform="translate(-180.158 -199.238)"/>
        <path id="Trazado_1035328" data-name="Trazado 1035328" d="M314.577,107.63a.938.938,0,0,0,.938-.938v-1.2a.938.938,0,0,0-.069-1.873h-.869a.938.938,0,0,0-.938.938v2.132A.938.938,0,0,0,314.577,107.63Z" transform="translate(-274.422 -92.272)"/>
        <path id="Trazado_1035329" data-name="Trazado 1035329" d="M313.639,160.611a.938.938,0,1,0,1.876,0v-3a.938.938,0,1,0-1.876,0Z" transform="translate(-274.422 -138.688)"/>
        <path id="Trazado_1035330" data-name="Trazado 1035330" d="M226.438,306.083a.938.938,0,0,0,0,1.876h4.874a.938.938,0,1,0,0-1.876Z" transform="translate(-197.303 -269.417)"/>
      </g>
    </g>
  </g>
</svg>
