<svg xmlns="http://www.w3.org/2000/svg" xmlns:xlink="http://www.w3.org/1999/xlink" width="112" height="112" viewBox="0 0 112 112">
  <defs>
    <filter id="Rect치ngulo_405217" x="0" y="0" width="112" height="112" filterUnits="userSpaceOnUse">
      <feOffset dx="6" dy="7" input="SourceAlpha"/>
      <feGaussianBlur stdDeviation="4" result="blur"/>
      <feFlood flood-opacity="0.251"/>
      <feComposite operator="in" in2="blur"/>
      <feComposite in="SourceGraphic"/>
    </filter>
  </defs>
  <g id="Grupo_1178951" data-name="Grupo 1178951" transform="translate(-202.102 -1796)">
    <g transform="matrix(1, 0, 0, 1, 202.1, 1796)" filter="url(#Rect치ngulo_405217)">
      <g id="Rect치ngulo_405217-2" data-name="Rect치ngulo 405217" transform="translate(6 5)" fill="#cb98f5" stroke="#fff" stroke-width="3">
        <path d="M0,0H59A29,29,0,0,1,88,29V59A29,29,0,0,1,59,88H29A29,29,0,0,1,0,59V0A0,0,0,0,1,0,0Z" stroke="none"/>
        <path d="M1.5,1.5H59A27.5,27.5,0,0,1,86.5,29V59A27.5,27.5,0,0,1,59,86.5H29A27.5,27.5,0,0,1,1.5,59V1.5A0,0,0,0,1,1.5,1.5Z" fill="none"/>
      </g>
    </g>
    <g id="Grupo_1178950" data-name="Grupo 1178950" transform="translate(217.92 1709.928)">
      <path id="Trazado_1035246" data-name="Trazado 1035246" d="M193.273,138.312a86.97,86.97,0,0,1-21.467-15.992c-2.091-1.78-3.858,2.481-4.3,3.841a9.975,9.975,0,0,0-.46,4.547l25.079,8.226Z" transform="translate(-144.659 -6.226)" fill="#e07f65"/>
      <path id="Trazado_1035247" data-name="Trazado 1035247" d="M98.989,190.371c0-3.22-1.781-6.147-5.092-6.856-6.56-.641-13.038-1.211-19.341-3.315A59.784,59.784,0,0,1,62.4,174.46c-.985-.6-1.953-1.253-2.965-1.8a3.079,3.079,0,0,0-2.409-.325,6.891,6.891,0,0,0-2.239,1.684,9.7,9.7,0,0,1-12.625-.4c-.576-.667-1.177-1.655-2.208-1.416-.951.22-1.089,1.159-1.3,1.952a35.348,35.348,0,0,0-1.55,7.458c-.153,2.986-.027,6-.027,8.989v5.679L95.9,195.235Z" transform="translate(-32.081 -49.785)" fill="#f49e73"/>
      <g id="Grupo_1178948" data-name="Grupo 1178948" transform="translate(4.992 122.379)">
        <path id="Trazado_1035248" data-name="Trazado 1035248" d="M463.711,298.212l.546-.86v-.561a6.442,6.442,0,0,0-.106-1.162l-5.573,6.633,1.756-.031Z" transform="translate(-402.341 -279.145)" fill="#ef9067"/>
        <path id="Trazado_1035249" data-name="Trazado 1035249" d="M44.663,189.882v-7.235a20.141,20.141,0,0,1,.707-5.291l.465-1.706a9.571,9.571,0,0,1-3.356-2.027l-.832-.964a1.406,1.406,0,0,0-2.422.549L38.1,177.355a20.142,20.142,0,0,0-.707,5.291v13.638l7.274-.129v-6.274Z" transform="translate(-37.389 -172.17)" fill="#ef9067"/>
      </g>
      <path id="Trazado_1035250" data-name="Trazado 1035250" d="M48.975,264.806V263.4a4.181,4.181,0,0,0-4.182-4.181h-7.4v7.244l11.587.511v-2.165Z" transform="translate(-32.396 -125.216)" fill="#f2edec"/>
      <path id="Trazado_1035251" data-name="Trazado 1035251" d="M44.662,266.46v-7.244H37.388v7.244l11.587.51v-.306Z" transform="translate(-32.396 -125.215)" fill="#e4dad8"/>
      <path id="Trazado_1035252" data-name="Trazado 1035252" d="M70.333,303.488c-9.061,2.959-18.846,4.052-28.119,1.424-4.3-1.219-8.45-2.9-12.841-3.817a49.871,49.871,0,0,0-16.644-.534c-.98.129-1.713.206-2.225,1.109-.323.571-.607,1.167-.909,1.749l-1.933,3.719a5.013,5.013,0,0,0,4.948,4.944c.9.027,1.8,0,2.7,0H26.193a12.125,12.125,0,0,0,1.409,0,1.042,1.042,0,0,0,.8-.34c.387-.5.155-1.559,1.186-1.35l5.043.878a39.329,39.329,0,0,0,4.955.812c3.48.148,7,0,10.479,0h6.267a12.5,12.5,0,0,0,3.562-.321c3.582-1.026,7.183-2.043,10.731-3.18a4.681,4.681,0,0,0,3.061-2.727A9.831,9.831,0,0,0,74,302.246c0-.635,0-1.231-.83-1.146a4.089,4.089,0,0,0-2.3,1.543,16.643,16.643,0,0,0-1.657,3.118l-1.867,3.79" transform="translate(-6.639 -160.646)" fill="#e6e9ed"/>
      <g id="Grupo_1178949" data-name="Grupo 1178949" transform="translate(1.023 139.463)">
        <path id="Trazado_1035253" data-name="Trazado 1035253" d="M400.3,311.2a4.537,4.537,0,0,0,.083-.861v-2.545a.6.6,0,0,0-.781-.565l-.2.064a4.606,4.606,0,0,0-2.691,2.339,58.913,58.913,0,0,1-12.376,2.7A47.734,47.734,0,0,0,400.3,311.2Z" transform="translate(-334.048 -306.254)" fill="#cfd2dc"/>
        <path id="Trazado_1035254" data-name="Trazado 1035254" d="M16.862,307.153h0l3.28-6.312c1.08-.179,2.442-.371,4.029-.511a50.914,50.914,0,0,0-8.05-.09q-1.629.109-3.249.316c-.9.116-1.74.124-2.277.951-1.138,1.753-1.969,3.789-2.934,5.645a5,5,0,0,0,3.439,4.71,10.88,10.88,0,0,0,3.292.233h7.415A4.944,4.944,0,0,1,16.862,307.153Z" transform="translate(-7.661 -300.124)" fill="#cfd2dc"/>
      </g>
      <path id="Trazado_1035255" data-name="Trazado 1035255" d="M18.272,352.772H7.661a4.945,4.945,0,0,0,4.946,4.944H23.217A4.945,4.945,0,0,0,18.272,352.772Z" transform="translate(-6.638 -206.279)" fill="#333f61"/>
      <path id="Trazado_1035256" data-name="Trazado 1035256" d="M16.862,352.772h-9.2a4.945,4.945,0,0,0,4.946,4.944h9.2A4.945,4.945,0,0,1,16.862,352.772Z" transform="translate(-6.638 -206.279)" fill="#253551"/>
      <path id="Trazado_1035257" data-name="Trazado 1035257" d="M245.278,362.655l-2.846,2.8h0a3.323,3.323,0,0,0,.571.049h16.6l-11.186-3.594A3.12,3.12,0,0,0,245.278,362.655Z" transform="translate(-210.063 -214.067)" fill="#333f61"/>
      <path id="Trazado_1035258" data-name="Trazado 1035258" d="M67.905,183.187a7.457,7.457,0,0,0-3.092-5.9,1,1,0,1,0-1.169,1.625,5.453,5.453,0,0,1,2.246,4.006,5.645,5.645,0,0,0-2.881,2.393c-7.907,2.533-15.321,3.329-22.07,2.375l-5.722-1.24c-.145-.04-.291-.079-.436-.12-.386-.11-.745-.216-1.086-.321l-5.173-1.749c-.475-.153-.985-.311-1.549-.474l-.148-.042-5.638-1.3c-.976-.166-1.959-.3-2.929-.406-.224-.024-.451-.044-.677-.065v-.487A5.188,5.188,0,0,0,12.4,176.3h-6.4v-.146a19.149,19.149,0,0,1,.672-5.028l1.129-4.148a.405.405,0,0,1,.7-.158l.832.964a1,1,0,1,0,1.516-1.308l-.832-.964a2.407,2.407,0,0,0-4.145.94L4.733,170.6a21.148,21.148,0,0,0-.742,5.554v6.538a2.415,2.415,0,0,0-.9.957L.143,189.313h0l-.008.015-.007.016q-.02.04-.036.082l-.011.029q-.014.039-.024.079c0,.01-.006.02-.008.031-.006.028-.011.055-.015.084,0,.009,0,.019,0,.028-.369,3.266,2.885,6.058,5.94,6.058h15.1a1.884,1.884,0,0,0,1.339-.563,1.786,1.786,0,0,0,.511-1.117l1.527.266a1,1,0,1,0,.344-1.972l-1.66-.289a1.855,1.855,0,0,0-2.2,1.674H17.494a5.955,5.955,0,0,0-5.861-4.944H2.671l2.192-4.218a.41.41,0,0,1,.2-.186.992.992,0,0,0,.256-.052,52.032,52.032,0,0,1,9.1-.551c1.225.034,2.446.115,3.629.24,1.084.115,2.184.272,3.264.467,1.74.328,3.458.735,5.1,1.212,2.634.763,5.178,1.8,7.817,2.547,1.427.406,2.872.761,4.306,1.058l.008,0h.005c7.094,1.4,14.895.879,23.217-1.532L60,191.368l-7.221,2.14a5.433,5.433,0,0,1-1.545.224H49.7l-11.037-3.546a4.109,4.109,0,0,0-4.15.985l-2.479,2.438-3.079-.536a1,1,0,1,0-.344,1.972l3.586.624a4.341,4.341,0,0,0,.742.064h18.3a7.438,7.438,0,0,0,2.114-.307l7.631-2.262L61,193.16l3.4-1.007a5.569,5.569,0,0,0,3.964-5.308V184.3A1.6,1.6,0,0,0,67.905,183.187ZM15.448,193.733H5.968a3.951,3.951,0,0,1-3.815-2.942h9.48A3.951,3.951,0,0,1,15.448,193.733ZM5.993,182.216V178.3h6.4a3.184,3.184,0,0,1,3.181,3.179v.346A53.49,53.49,0,0,0,5.993,182.216Zm32.058,9.876,5.1,1.64h-8.39l1.153-1.134A2.112,2.112,0,0,1,38.051,192.093Zm28.309-5.247a3.555,3.555,0,0,1-2.531,3.388l-1.214.36,1.976-4.012a3.628,3.628,0,0,1,1.768-1.7Z" transform="translate(0 -43.297)"/>
      <path id="Trazado_1035259" data-name="Trazado 1035259" d="M93.81,126.8a10.617,10.617,0,0,0,11.264-2.765,1.954,1.954,0,0,1,2.423-.338l-1.067,1.27a1,1,0,0,0,.123,1.411,1.019,1.019,0,0,0,1.41-.122l1.265-1.505,1.962,1.194.234.14-.681.81a1,1,0,0,0,.123,1.411,1.019,1.019,0,0,0,1.41-.122l.908-1.081q1.078.6,2.182,1.148l-.451.537a1,1,0,0,0,.123,1.411,1.019,1.019,0,0,0,1.41-.122l.787-.936a58,58,0,0,0,11.794,3.9,1,1,0,0,0,.182.038,56.9,56.9,0,0,0,6.239.964l5.035.492q.05,0,.1,0a1,1,0,0,0,.1-2l-5.035-.492a54.908,54.908,0,0,1-5.994-.925,86.147,86.147,0,0,1-9.288-5.706l.088-.105a1,1,0,0,0-1.533-1.288l-.183.218q-.968-.718-1.918-1.463l.113-.135a1,1,0,0,0-1.533-1.288l-.14.166q-.98-.808-1.936-1.643l.127-.151a1,1,0,0,0-1.533-1.288l-.086.1q-1.674-1.535-3.263-3.153-.031-.032-.066-.061a2.619,2.619,0,0,0-3.613.207,10.439,10.439,0,0,0-1.706,2.626A11.839,11.839,0,0,0,102.03,124a8.615,8.615,0,0,1-7.558.916,1,1,0,0,0-.663,1.889Zm28.142,2.111q-1.712-.627-3.379-1.366l.5-.591Q120.487,127.964,121.952,128.915Zm-4.509-3.134-.751.894q-1.111-.542-2.2-1.133l1.03-1.226Q116.476,125.062,117.443,125.781Zm-3.475-2.722-1.24,1.476q-.249-.148-.5-.3l-1.7-1.035,1.5-1.787Q112.988,122.252,113.968,123.059Zm-8.982-4.03a8.5,8.5,0,0,1,1.361-2.122.62.62,0,0,1,.828-.072q1.636,1.665,3.364,3.246l-1.738,2.069-.252-.154a3.966,3.966,0,0,0-4.48.262A9.995,9.995,0,0,1,104.986,119.029Z" transform="translate(-80.704)"/>
    </g>
  </g>
</svg>
