<svg xmlns="http://www.w3.org/2000/svg" xmlns:xlink="http://www.w3.org/1999/xlink" width="112" height="112" viewBox="0 0 112 112">
  <defs>
    <filter id="Rect치ngulo_405217" x="0" y="0" width="112" height="112" filterUnits="userSpaceOnUse">
      <feOffset dx="6" dy="7" input="SourceAlpha"/>
      <feGaussianBlur stdDeviation="4" result="blur"/>
      <feFlood flood-opacity="0.251"/>
      <feComposite operator="in" in2="blur"/>
      <feComposite in="SourceGraphic"/>
    </filter>
  </defs>
  <g id="Grupo_1178954" data-name="Grupo 1178954" transform="translate(-202.102 -1965)">
    <g transform="matrix(1, 0, 0, 1, 202.1, 1965)" filter="url(#Rect치ngulo_405217)">
      <g id="Rect치ngulo_405217-2" data-name="Rect치ngulo 405217" transform="translate(6 5)" fill="#cb98f5" stroke="#fff" stroke-width="3">
        <path d="M0,0H59A29,29,0,0,1,88,29V59A29,29,0,0,1,59,88H29A29,29,0,0,1,0,59V0A0,0,0,0,1,0,0Z" stroke="none"/>
        <path d="M1.5,1.5H59A27.5,27.5,0,0,1,86.5,29V59A27.5,27.5,0,0,1,59,86.5H29A27.5,27.5,0,0,1,1.5,59V1.5A0,0,0,0,1,1.5,1.5Z" fill="none"/>
      </g>
    </g>
    <g id="Grupo_1178953" data-name="Grupo 1178953" transform="translate(219.101 1958.383)">
      <g id="Grupo_1178952" data-name="Grupo 1178952" transform="translate(0.968 33.291)">
        <path id="Trazado_1035260" data-name="Trazado 1035260" d="M421.649,369.775l-.031-.03a8.633,8.633,0,0,0-2.631-1.291l-4.828.819-2.716,6.929,1.318,1.771h9.014l1.141-2.728.007-2.038A4.817,4.817,0,0,0,421.649,369.775Z" transform="translate(-359.455 -332.051)" fill="#f8feff"/>
        <path id="Trazado_1035261" data-name="Trazado 1035261" d="M445.691,373.848l1.639-3.108.007-2.038a4.567,4.567,0,0,0-1.378-3.284l-.031-.03A4.681,4.681,0,0,0,443.3,364.1l-2.718-.376-1.685.609V365.6c4.332.742,5.381,1.609,5.381,6.669,0,.577-.007,1.1-.019,1.575Z" transform="translate(-383.373 -327.926)" fill="#dff8ff"/>
        <path id="Trazado_1035262" data-name="Trazado 1035262" d="M112,100.3l4.644-1.165-2.194-4.313-3.815.067h-.153a6.908,6.908,0,0,1-6.9-7.232l.017-.359c0-.024,0-.05,0-.075a1.617,1.617,0,0,0-2.515-1.345l-3.38,2.256a40.5,40.5,0,0,0-4.163,3.194l5.229,5.131A21.934,21.934,0,0,0,112,100.3Z" transform="translate(-82.469 -85.604)" fill="#89efb7"/>
        <path id="Trazado_1035263" data-name="Trazado 1035263" d="M134.988,226.495l-2.36.745a29.94,29.94,0,0,1-14.041,3.6l-6.68.89,1.841,1.36L127.1,251.45l16.875-7.293Z" transform="translate(-98.47 -208.362)" fill="#89efb7"/>
        <path id="Trazado_1035264" data-name="Trazado 1035264" d="M67.656,144.12l1.518-1.635-2.342-4.6-4.01.089a21.935,21.935,0,0,1-13.229-3.839l-5.863-4.055q-1.441,1.26-2.76,2.649l-4.6,7.81,5.058,3.737,4.664,3.446h7.522A29.943,29.943,0,0,0,67.656,144.12Z" transform="translate(-32.655 -124.352)" fill="#f8feff"/>
        <path id="Trazado_1035265" data-name="Trazado 1035265" d="M271.806,356.862c-1.228-.17-3.443-.372-3.443-.372l-3.082-.744-1.731.443c-1,1.682-14.378,6.86-16.191,7.6l-1.5,1.929.727,1.18h21.9v-1.359a11.808,11.808,0,0,1,2.215-6.885Z" transform="translate(-215.18 -320.979)" fill="#89efb7"/>
        <path id="Trazado_1035266" data-name="Trazado 1035266" d="M266.721,155.47l-.059,2.687-2.99.737-.786-.7a18.453,18.453,0,0,1-3.78-5.017c-.144-.279.106-.563-.024-.85s-.65-.608-.77-.918c-.044-.112-.086-.224-.127-.337l-.837-2.287.279-1-.941-.815-.924-2.53.027-.981-.69-.832-.951-2.6.155-.985-.817-.828-1.728-4.728a4.3,4.3,0,0,1,1.293-4.767c.142-.118.277-.036.436-.137a1.152,1.152,0,0,1,1.805.692l8.363,22.379a22.952,22.952,0,0,0,3,3.754Z" transform="translate(-220.099 -122.862)" fill="#dff8ff"/>
        <path id="Trazado_1035267" data-name="Trazado 1035267" d="M274.424,150.326a29.116,29.116,0,0,1-1.807-4.4l-1.593-4.341c-1.068-2.91-4.784-13.032-5.031-13.7a1.35,1.35,0,0,0-2.01-.727,4.374,4.374,0,0,0-.449.327c1.6,4.584,5.271,15.051,6.9,19.483,1.321,3.59,2.865,6.856,5.615,9.076l1.463.21V154A13.325,13.325,0,0,1,274.424,150.326Z" transform="translate(-230.582 -121.627)" fill="#b6e9ff"/>
        <path id="Trazado_1035268" data-name="Trazado 1035268" d="M249.711,342.789a8.506,8.506,0,0,1-2.912-1.658l-.051.167c-.268.8-.869.911-1.522,1.367a4.6,4.6,0,0,1-1,.523l-16.069,6.1,2.278,3.695,15.4-6.377a9.052,9.052,0,0,0,2.956-1.962A5.788,5.788,0,0,0,249.711,342.789Z" transform="translate(-199.758 -308.245)" fill="#f8feff"/>
        <path id="Trazado_1035269" data-name="Trazado 1035269" d="M44.663,155.97v0a5.48,5.48,0,0,1-1.111,3.308L41.429,162.2l-5.058-3.737v-1.977l.646-.941a40.546,40.546,0,0,1,3.952-4.892l1.311.79a5.49,5.49,0,0,1,2.382,4.526Z" transform="translate(-32.655 -142.281)" fill="#89efb7"/>
        <path id="Trazado_1035270" data-name="Trazado 1035270" d="M386.838,353.588l-1.911.664.454,1.25a15.589,15.589,0,0,0,2.959.733c1.369.206,2.538.37,3.533.541q.285-.4.6-.771a11.79,11.79,0,0,1,1.082-1.114l-3.749-.521A12.92,12.92,0,0,1,386.838,353.588Z" transform="translate(-336.352 -319.098)" fill="#42e8b4"/>
        <path id="Trazado_1035271" data-name="Trazado 1035271" d="M362.2,337.319a3.687,3.687,0,0,1-1.413,1.879,12.137,12.137,0,0,0,3.56,1.984,9.049,9.049,0,0,0,1.384-1.773l.073-.141a12.919,12.919,0,0,1-3.554-2.115Z" transform="translate(-315.322 -304.778)" fill="#dff8ff"/>
        <path id="Trazado_1035272" data-name="Trazado 1035272" d="M70.967,225.239l.085,2.3a4.2,4.2,0,0,1-2.012,3.868c-.454.307-.846.809-1.38.913a4.041,4.041,0,0,1-.771.076H65.275l-.965-.257-.965.257H59.489l-.965-.386-.965.386H53.7l-.965-.386-.965.386H47.916l-.78-.386-1.15.386H42.934a12.518,12.518,0,0,1-1.322-.07c-.325-.034-.647-.466-.965-.525s-.647.254-.965.168a12.626,12.626,0,0,1-7.443-5.494l-7.417-10.357a2.541,2.541,0,0,0-3.013-.878,2.289,2.289,0,0,1-2.386-.421L18,213.474l-.629-.979-.776-.345L14.63,210.3l-.667-.885-.738-.438L11.24,207.1l-.683-.9-.721-.422-.9-.847a4.33,4.33,0,0,1-.3-6.147l2.578-2.813,7.822,5.566a32.87,32.87,0,0,1,7.719,7.712l10.476,14.7A6.967,6.967,0,0,0,43,227.012H63.326a14.823,14.823,0,0,0,5.077-.9c1.069-.39,1.6-.245,2.564-.876Z" transform="translate(-7.501 -181.768)" fill="#dff8ff"/>
        <path id="Trazado_1035273" data-name="Trazado 1035273" d="M474.941,426a4.053,4.053,0,0,0,1.5-.621h0a5.23,5.23,0,0,0,2.3-4.331v-2.781a14.818,14.818,0,0,1-3.056,1.533c0,5.544-.609,6.137-.742,6.2Z" transform="translate(-414.781 -375.449)" fill="#b6e9ff"/>
      </g>
      <path id="Trazado_1035274" data-name="Trazado 1035274" d="M64.227,70.091l-.031-.03a5.616,5.616,0,0,0-3.173-1.556c-1.631-.225-4.283-.594-6.466-.9a11.952,11.952,0,0,1-6.107-2.741,12.4,12.4,0,0,1-2.717-3.213l.136-.048a.965.965,0,1,0-.642-1.821l-.344.121c-.317-.833-.609-1.658-.969-2.632l.176-.063a.965.965,0,1,0-.65-1.818l-.192.068-.923-2.517.159-.057a.965.965,0,1,0-.649-1.818l-.175.063-.941-2.562.469-.165a.965.965,0,1,0-.64-1.821l-.494.174c-1.472-4.009-2.666-7.257-2.763-7.524a2.316,2.316,0,0,0-3.441-1.227,5.243,5.243,0,0,0-2.373,3.549l-2.364.051a5.9,5.9,0,0,1-2.146-.35.965.965,0,1,0-.654,1.816,7.843,7.843,0,0,0,2.667.466l.176,0,2.353-.05a5.39,5.39,0,0,0,.212.761l.594,1.627-1.227.069a21.116,21.116,0,0,1-12.638-3.671l-4.843-3.327q1.5-1.233,3.133-2.324l3.38-2.257a.652.652,0,0,1,1.013.573,7.953,7.953,0,0,0,1.178,4.911.965.965,0,1,0,1.636-1.026,6.058,6.058,0,0,1-.885-3.795,2.608,2.608,0,0,0-.048-.634l3.8-3.461a3.086,3.086,0,1,0-4.954-3.4l-1.886,4.843a2.587,2.587,0,0,0-.929.386l-3.38,2.257A41.235,41.235,0,0,0,4.534,46.009l-.608.885L1.395,49.657a5.3,5.3,0,0,0,.357,7.51l10.477,9.875a3.276,3.276,0,0,0,3.408.614A1.572,1.572,0,0,1,17.5,68.2l2.023,2.825A.965.965,0,0,0,21.1,69.9l-2.023-2.825a3.5,3.5,0,0,0-4.158-1.211,1.334,1.334,0,0,1-1.373-.237L12.131,64.3l.932-.979a.965.965,0,1,0-1.4-1.331l-.938.986L8.763,61.123l.895-.94a.965.965,0,1,0-1.4-1.331l-.9.947L5.373,57.927l.805-.846a.965.965,0,1,0-1.4-1.331l-.812.853-.9-.849-.017-.016a3.366,3.366,0,0,1-.232-4.777l2-2.184,7.128,5.071a31.859,31.859,0,0,1,7.492,7.486l10.47,14.69A7.922,7.922,0,0,0,36.472,79.5h7.479a.965.965,0,1,0,0-1.931H36.472a6.015,6.015,0,0,1-1.079-.1L47.407,72.55a10.084,10.084,0,0,0,4.455-3.595,13.888,13.888,0,0,0,2.43.565l1.892.263a12.825,12.825,0,0,0-2.872,7.786H48.456a.965.965,0,1,0,0,1.931h8.338A15.745,15.745,0,0,0,63.96,77.78v1.1a4.261,4.261,0,0,1-1.874,3.532l0,0a3.071,3.071,0,0,1-1.725.528H58.741V81.882a.965.965,0,1,0-1.931,0v1.066H52.955V81.882a.965.965,0,1,0-1.931,0v1.066H47.169V81.882a.965.965,0,1,0-1.931,0v1.066H41.382V81.882a.965.965,0,1,0-1.931,0v1.066H36.4a11.844,11.844,0,0,1-1.322-.075v-.991a.965.965,0,1,0-1.931,0v.609a11.589,11.589,0,0,1-6.624-5.009c-.039-.064-2.763-3.858-2.8-3.919a.965.965,0,0,0-1.57,1.124L24.9,78.533a13.511,13.511,0,0,0,11.5,6.346H60.356a5,5,0,0,0,2.811-.862l.006,0a6.189,6.189,0,0,0,2.717-5.127V76.108L65.9,74.07a5.563,5.563,0,0,0-1.67-3.979ZM23.662,28.232a1.156,1.156,0,1,1,1.855,1.275l-3.6,3.255ZM46.725,65.918a3.127,3.127,0,0,1-1.632,1.414l-.924.351a17.6,17.6,0,0,1-3.238-4.335l2.952-1.041A14.324,14.324,0,0,0,46.725,65.918Zm-3.752-5.6c.028.078.059.154.089.231l-2.943,1.038c-.1-.248-.851-2.314-.962-2.613l2.939-1.05.877,2.393Zm-1.542-4.206-2.937,1.049-.92-2.518L40.508,53.6Zm-1.589-4.329L36.912,52.83l-.945-2.587L38.9,49.212l.944,2.571ZM34.886,39.638a.385.385,0,0,1,.574.208c0,.013.008.026.013.039.025.068,1.244,3.384,2.76,7.515L35.3,48.43l-1.768-4.84A3.32,3.32,0,0,1,34.886,39.638Zm-25.4,3.225.562.386A4.526,4.526,0,0,1,11.1,49.7l-.586.754-4.5-3.2A39.7,39.7,0,0,1,9.485,42.863Zm9.48,14.759h2.961c.9,0,1.8-.045,2.7-.134a.965.965,0,1,0-.191-1.921c-.829.082-1.673.124-2.506.124H17.146a33.847,33.847,0,0,0-4.08-3.416l-.979-.7.54-.694.008-.011a6.456,6.456,0,0,0-1.494-9.215l-.3-.208q.617-.613,1.261-1.2l5.26,3.613a23.065,23.065,0,0,0,12.984,4.024c.576.014,2.071-.088,2.666-.119l1.643,4.5a25.376,25.376,0,0,1-5.95,2.5.965.965,0,1,0,.516,1.86,27.294,27.294,0,0,0,6.1-2.527l2.825,7.732a19.54,19.54,0,0,0,4.055,6.6L30.135,73.014l-9.124-12.8q-.962-1.35-2.046-2.592ZM46.675,70.764c-.025.012-13.736,5.624-13.758,5.637a6.681,6.681,0,0,1-1.623-1.762l14.485-5.5a5.052,5.052,0,0,0,2.463-2,13.854,13.854,0,0,0,1.784,1.06A8.144,8.144,0,0,1,46.675,70.764Zm10.119,6.805H55.242A10.883,10.883,0,0,1,58.5,70.1l2.261.313a3.7,3.7,0,0,1,2.09,1.026l.031.03a3.622,3.622,0,0,1,1.087,2.59l0,1.508A13.818,13.818,0,0,1,56.794,77.569Z"/>
    </g>
  </g>
</svg>
