<svg xmlns="http://www.w3.org/2000/svg" xmlns:xlink="http://www.w3.org/1999/xlink" width="112" height="112" viewBox="0 0 112 112">
  <defs>
    <filter id="Rect치ngulo_405217" x="0" y="0" width="112" height="112" filterUnits="userSpaceOnUse">
      <feOffset dx="6" dy="7" input="SourceAlpha"/>
      <feGaussianBlur stdDeviation="4" result="blur"/>
      <feFlood flood-opacity="0.251"/>
      <feComposite operator="in" in2="blur"/>
      <feComposite in="SourceGraphic"/>
    </filter>
  </defs>
  <g id="Grupo_1178935" data-name="Grupo 1178935" transform="translate(6 5)">
    <g transform="matrix(1, 0, 0, 1, -6, -5)" filter="url(#Rect치ngulo_405217)">
      <g id="Rect치ngulo_405217-2" data-name="Rect치ngulo 405217" transform="translate(6 5)" fill="#e0ee33" stroke="#fff" stroke-width="3">
        <path d="M0,0H59A29,29,0,0,1,88,29V59A29,29,0,0,1,59,88H29A29,29,0,0,1,0,59V0A0,0,0,0,1,0,0Z" stroke="none"/>
        <path d="M1.5,1.5H59A27.5,27.5,0,0,1,86.5,29V59A27.5,27.5,0,0,1,59,86.5H29A27.5,27.5,0,0,1,1.5,59V1.5A0,0,0,0,1,1.5,1.5Z" fill="none"/>
      </g>
    </g>
    <g id="Grupo_1178934" data-name="Grupo 1178934" transform="translate(9.737 15.78)">
      <path id="Trazado_1035159" data-name="Trazado 1035159" d="M74.019,100.653H7.5V49.078a.161.161,0,0,1,.161-.161h66.2a.161.161,0,0,1,.161.161v51.576Z" transform="translate(-6.497 -47.913)" fill="#c86d36"/>
      <path id="Trazado_1035160" data-name="Trazado 1035160" d="M73.858,48.917h-7.23v36.47A11.571,11.571,0,0,1,55.057,96.958H7.5v3.7H74.019V49.078a.161.161,0,0,0-.161-.161Z" transform="translate(-6.497 -47.913)" fill="#ac5e2e"/>
      <path id="Trazado_1035161" data-name="Trazado 1035161" d="M74.019,435.472H7.5v3.535a.161.161,0,0,0,.161.161h66.2a.161.161,0,0,0,.161-.161v-3.535Z" transform="translate(-6.497 -382.732)" fill="#e8ad8c"/>
      <path id="Trazado_1035162" data-name="Trazado 1035162" d="M157.468,41.417H105.034a1,1,0,0,0,0,2.008h51.591V82.911a1,1,0,1,0,2.008,0V42.582a1.166,1.166,0,0,0-1.165-1.165Z" transform="translate(-90.107 -41.417)"/>
      <path id="Trazado_1035163" data-name="Trazado 1035163" d="M67.522,86.592a1,1,0,0,0-1,1v5.558H2.008V43.426h8.235a1,1,0,1,0,0-2.008H1.165A1.166,1.166,0,0,0,0,42.582v55.11a1.166,1.166,0,0,0,1.165,1.165h66.2a1.166,1.166,0,0,0,1.165-1.165V87.6A1,1,0,0,0,67.522,86.592ZM2.008,96.85v-.816l1.224.816Zm4.539-.2L4.319,95.162H8.775Zm3.315.2,2.228-1.485,2.228,1.485Zm7.771-.2-2.228-1.485h4.456Zm3.315.2,2.228-1.485L25.4,96.85Zm7.771-.2-2.228-1.485h4.456Zm3.315.2,2.228-1.485,2.228,1.485H32.035Zm7.771-.2-2.228-1.485h4.456Zm3.315.2,2.228-1.485,2.228,1.485Zm7.771-.2-2.228-1.485H53.12Zm3.315.2,2.228-1.485,2.228,1.485Zm7.771-.2-2.228-1.485h4.456Zm4.539.2H65.294l1.224-.816Z" transform="translate(0 -41.418)"/>
      <path id="Trazado_1035164" data-name="Trazado 1035164" d="M431.1,149.763a1,1,0,0,0-1.434-.612l-1.479.782a1,1,0,0,0,.938,1.775l.385-.2.12.419a1,1,0,0,0,1.93-.552Z" transform="translate(-370.417 -134.632)"/>
      <path id="Trazado_1035165" data-name="Trazado 1035165" d="M305.687,190.372a8,8,0,0,1-2.528-.784,1,1,0,1,0-.9,1.793,10,10,0,0,0,3.16.981,1,1,0,0,0,.271-1.989Z" transform="translate(-261.324 -169.663)"/>
      <path id="Trazado_1035166" data-name="Trazado 1035166" d="M347.28,190.113a10,10,0,0,0,2.558-.934l.473-.25a1,1,0,0,0-.938-1.775l-.473.25a7.99,7.99,0,0,1-2.044.747,1,1,0,1,0,.424,1.962Z" transform="translate(-299.747 -167.548)"/>
      <path id="Trazado_1035167" data-name="Trazado 1035167" d="M388.812,169.023l2.645-1.4a1,1,0,0,0-.938-1.775l-2.645,1.4a1,1,0,0,0,.938,1.775Z" transform="translate(-335.498 -149.095)"/>
      <path id="Trazado_1035168" data-name="Trazado 1035168" d="M277.4,154.883a1,1,0,0,0-1.162.816,1.718,1.718,0,0,1-.481.924,1,1,0,0,0-.136,1.25,9.972,9.972,0,0,0,1.143,1.466,1,1,0,1,0,1.461-1.377q-.269-.285-.51-.6a3.716,3.716,0,0,0,.5-1.321A1,1,0,0,0,277.4,154.883Z" transform="translate(-238.595 -139.684)"/>
      <path id="Trazado_1035169" data-name="Trazado 1035169" d="M256.5,124.544a1,1,0,0,0-1.381-.036l-1.244,1.119a1,1,0,1,0,1.343,1.492l.536-.482.51.51a1,1,0,0,0,1.42-1.42Z" transform="translate(-219.605 -113.164)"/>
      <path id="Trazado_1035170" data-name="Trazado 1035170" d="M185.408,302c-1.1.039-2.213.037-3.306-.007a1,1,0,0,0-.08,2.006c1.15.046,2.306.048,3.458.007a1,1,0,1,0-.072-2.006Z" transform="translate(-156.825 -267.117)"/>
      <path id="Trazado_1035171" data-name="Trazado 1035171" d="M179.735,184.947l-2.514,2.263a1,1,0,1,0,1.343,1.492l2.514-2.263a1,1,0,0,0-1.343-1.492Z" transform="translate(-153.214 -165.514)"/>
      <path id="Trazado_1035172" data-name="Trazado 1035172" d="M440.518,287.562a3.631,3.631,0,0,1-2.054,1.581,1,1,0,0,0,.573,1.924,5.635,5.635,0,0,0,3.19-2.452,1,1,0,1,0-1.709-1.053Z" transform="translate(-379.159 -254.205)"/>
      <path id="Trazado_1035173" data-name="Trazado 1035173" d="M451.361,187.158a1,1,0,0,0-1.931.552c.747,2.614.847,2.958.922,3.238a1,1,0,1,0,1.939-.521C452.221,190.163,452.263,190.315,451.361,187.158Z" transform="translate(-389.245 -167.022)"/>
      <path id="Trazado_1035174" data-name="Trazado 1035174" d="M463.431,240.913v-.567a25.287,25.287,0,0,0-.171-2.926,1,1,0,0,0-1.994.234,23.249,23.249,0,0,1,.157,2.693v.567a1,1,0,1,0,2.008,0Z" transform="translate(-399.525 -210.418)"/>
      <path id="Trazado_1035175" data-name="Trazado 1035175" d="M387.3,303.919c1.136.092,2.289.156,3.426.192a1,1,0,0,0,.063-2.007c-1.1-.035-2.225-.1-3.328-.186a1,1,0,0,0-.161,2Z" transform="translate(-334.663 -267.049)"/>
      <path id="Trazado_1035176" data-name="Trazado 1035176" d="M135.756,221.679a19.568,19.568,0,0,0,3.123-1.711,1,1,0,0,0-1.122-1.665,17.549,17.549,0,0,1-2.8,1.535,1,1,0,1,0,.8,1.841Z" transform="translate(-116.371 -194.48)"/>
      <path id="Trazado_1035177" data-name="Trazado 1035177" d="M79.262,294.814a1,1,0,1,0-.143,2l3.374.241a1,1,0,1,0,.143-2Z" transform="translate(-67.722 -260.897)"/>
      <path id="Trazado_1035178" data-name="Trazado 1035178" d="M85.378,240.834c.047,0,.026,0,.579-.035a19.59,19.59,0,0,0,2.991-.429,1,1,0,0,0-.438-1.959,17.564,17.564,0,0,1-2.683.384l-.513.033a1,1,0,0,0,.064,2.006Z" transform="translate(-73.082 -212.024)"/>
      <path id="Trazado_1035179" data-name="Trazado 1035179" d="M35.518,280.623a1,1,0,0,0-1,1v.349a2.228,2.228,0,0,0,2.062,2.215l1.206.086a1,1,0,1,0,.143-2l-1.206-.086a.213.213,0,0,1-.2-.212v-.349A1,1,0,0,0,35.518,280.623Z" transform="translate(-29.895 -248.608)"/>
      <path id="Trazado_1035180" data-name="Trazado 1035180" d="M41.879,244.315a1,1,0,0,0-1.067-.937l-.454.029a3.913,3.913,0,0,0-1.584.433,3.857,3.857,0,0,0-1.6,1.587,1,1,0,0,0,1.768.952,1.854,1.854,0,0,1,.772-.762,1.923,1.923,0,0,1,.778-.206l.454-.029a1,1,0,0,0,.937-1.067Z" transform="translate(-32.092 -216.346)"/>
      <path id="Trazado_1035181" data-name="Trazado 1035181" d="M335.221,296.452a1,1,0,0,0,.854,1.134c2.511.359,2.84.407,3.358.476a1,1,0,0,0,.263-1.99c-.494-.065-.643-.088-3.341-.474A1,1,0,0,0,335.221,296.452Z" transform="translate(-290.346 -261.57)"/>
      <path id="Trazado_1035182" data-name="Trazado 1035182" d="M129.62,299.417a1,1,0,0,0,.93,1.073l3.374.241a1,1,0,1,0,.143-2l-3.374-.241A1,1,0,0,0,129.62,299.417Z" transform="translate(-112.27 -264.079)"/>
      <path id="Trazado_1035183" data-name="Trazado 1035183" d="M283.784,294.674a1,1,0,0,0,1.093.906,28.815,28.815,0,0,1,3.264-.118,1,1,0,0,0,.042-2.007,30.8,30.8,0,0,0-3.493.127A1,1,0,0,0,283.784,294.674Z" transform="translate(-245.798 -259.716)"/>
      <path id="Trazado_1035184" data-name="Trazado 1035184" d="M232.537,298.768a1,1,0,0,0,1.109.887l3.362-.374a1,1,0,0,0-.222-2l-3.362.374A1,1,0,0,0,232.537,298.768Z" transform="translate(-201.409 -263.035)"/>
      <path id="Trazado_1035185" data-name="Trazado 1035185" d="M218.06,150.455l-2.514,2.263a1,1,0,1,0,1.343,1.492l2.514-2.263a1,1,0,1,0-1.343-1.492Z" transform="translate(-186.409 -135.638)"/>
    </g>
  </g>
</svg>
