<svg xmlns="http://www.w3.org/2000/svg" xmlns:xlink="http://www.w3.org/1999/xlink" width="116" height="116" viewBox="0 0 116 116">
  <defs>
    <filter id="Rect치ngulo_401369" x="0" y="0" width="116" height="116" filterUnits="userSpaceOnUse">
      <feOffset dx="6" dy="7" input="SourceAlpha"/>
      <feGaussianBlur stdDeviation="4" result="blur"/>
      <feFlood flood-opacity="0.251"/>
      <feComposite operator="in" in2="blur"/>
      <feComposite in="SourceGraphic"/>
    </filter>
  </defs>
  <g id="Grupo_1178888" data-name="Grupo 1178888" transform="translate(-350.051 -898)">
    <g transform="matrix(1, 0, 0, 1, 350.05, 898)" filter="url(#Rect치ngulo_401369)">
      <g id="Rect치ngulo_401369-2" data-name="Rect치ngulo 401369" transform="translate(6 5)" fill="#e0ee33" stroke="#fff" stroke-width="3">
        <path d="M0,0H63A29,29,0,0,1,92,29V63A29,29,0,0,1,63,92H29A29,29,0,0,1,0,63V0A0,0,0,0,1,0,0Z" stroke="none"/>
        <path d="M1.5,1.5H63A27.5,27.5,0,0,1,90.5,29V63A27.5,27.5,0,0,1,63,90.5H29A27.5,27.5,0,0,1,1.5,63V1.5A0,0,0,0,1,1.5,1.5Z" fill="none"/>
      </g>
    </g>
    <g id="Grupo_1178887" data-name="Grupo 1178887" transform="translate(360.873 901.923)">
      <g id="Grupo_1178885" data-name="Grupo 1178885" transform="translate(7.248 15.104)">
        <g id="Grupo_1178883" data-name="Grupo 1178883" transform="translate(0 17.87)">
          <path id="Trazado_1035002" data-name="Trazado 1035002" d="M62.454,87.659c30.385,0,33.931-14.816,33.931-14.816V44.454L62.454,62.325Z" transform="translate(-28.524 -44.454)" fill="#eabe78"/>
          <path id="Trazado_1035003" data-name="Trazado 1035003" d="M41.839,62.325,7.909,44.454v30.2c1.979,15.608,32.008,14.512,59.8,14.512l-6.755-5.238,6.42-4.043-6.306-4.326,6.642-3.472-5.964-4.671,5.964-5.09Z" transform="translate(-7.909 -44.454)" fill="#ffd88e"/>
        </g>
        <g id="Grupo_1178884" data-name="Grupo 1178884" transform="translate(0.001)">
          <ellipse id="Elipse_11708" data-name="Elipse 11708" cx="33.93" cy="17.87" rx="33.93" ry="17.87" fill="#d6a865"/>
          <ellipse id="Elipse_11709" data-name="Elipse 11709" cx="12.441" cy="5.994" rx="12.441" ry="5.994" transform="translate(21.488 11.876)" fill="#ffd88e"/>
        </g>
      </g>
      <g id="Grupo_1178886" data-name="Grupo 1178886" transform="translate(6.16 14.077)">
        <path id="Trazado_1035004" data-name="Trazado 1035004" d="M77.556,114.571c-1.036-.006-2.067-.019-3.084-.031a1.074,1.074,0,0,0-1.1,1.076,1.089,1.089,0,0,0,1.076,1.1c1.022.012,2.057.025,3.1.031h.006a1.089,1.089,0,1,0,.006-2.177Z" transform="translate(-31.561 -52.046)"/>
        <path id="Trazado_1035005" data-name="Trazado 1035005" d="M44.06,14.08a1.09,1.09,0,1,0-.095,2.177c16.854.734,30.056,8.076,30.056,16.715,0,9.254-14.734,16.783-32.845,16.783S8.337,42.225,8.337,32.971c0-8.639,13.2-15.981,30.056-16.715a1.09,1.09,0,0,0-.095-2.177C19.977,14.878,6.16,23,6.16,32.971v30.2a1.116,1.116,0,0,0,.009.137C7.756,75.84,25.858,78.085,43.357,78.63h.034a1.089,1.089,0,1,0,.033-2.177C26.877,75.937,9.779,73.948,8.34,63.1V39.674c4.9,7.229,17.584,12.255,32.839,12.255H64.094L60.376,55.1a1.089,1.089,0,0,0,.035,1.686l4.637,3.631L59.9,63.11a1.089,1.089,0,0,0-.111,1.862l4.943,3.393-5.019,3.161a1.089,1.089,0,0,0-.089,1.78l4.247,3.3-6.05.015a1.089,1.089,0,0,0,0,2.177c4.643-.012,7.084-.019,9.223-.019a1.089,1.089,0,0,0,.667-1.949l-4.256-3.3c10.828-4.545,12.64-11.6,12.713-11.914a1.087,1.087,0,0,0,.03-.253V32.971C76.2,23,62.381,14.878,44.06,14.08ZM74.021,61.208c-.206.652-1.509,4.191-6.275,7.521a1.067,1.067,0,0,0-.419-1.224L62.512,64.2l5.039-2.633a1.089,1.089,0,0,0,.167-1.822L62.8,55.9l4.952-4.224a1.089,1.089,0,0,0-.707-1.917H57.713c7.519-2.134,13.34-5.7,16.308-10.081Z" transform="translate(-6.16 -14.077)"/>
        <path id="Trazado_1035006" data-name="Trazado 1035006" d="M54.235,33.068c-7.589,0-13.53,3.11-13.53,7.083s5.943,7.083,13.53,7.083,13.53-3.11,13.53-7.083S61.822,33.068,54.235,33.068Zm0,11.989c-6.69,0-11.353-2.585-11.353-4.906s4.665-4.906,11.353-4.906,11.353,2.586,11.353,4.906S60.924,45.057,54.235,45.057Z" transform="translate(-19.216 -21.255)"/>
      </g>
    </g>
  </g>
</svg>
