<svg xmlns="http://www.w3.org/2000/svg" xmlns:xlink="http://www.w3.org/1999/xlink" width="116" height="116" viewBox="0 0 116 116">
  <defs>
    <filter id="Rect치ngulo_401369" x="0" y="0" width="116" height="116" filterUnits="userSpaceOnUse">
      <feOffset dx="6" dy="7" input="SourceAlpha"/>
      <feGaussianBlur stdDeviation="4" result="blur"/>
      <feFlood flood-opacity="0.251"/>
      <feComposite operator="in" in2="blur"/>
      <feComposite in="SourceGraphic"/>
    </filter>
  </defs>
  <g id="Grupo_1178889" data-name="Grupo 1178889" transform="translate(-665.051 -898)">
    <g transform="matrix(1, 0, 0, 1, 665.05, 898)" filter="url(#Rect치ngulo_401369)">
      <g id="Rect치ngulo_401369-2" data-name="Rect치ngulo 401369" transform="translate(6 5)" fill="#e0ee33" stroke="#fff" stroke-width="3">
        <path d="M0,0H63A29,29,0,0,1,92,29V63A29,29,0,0,1,63,92H29A29,29,0,0,1,0,63V0A0,0,0,0,1,0,0Z" stroke="none"/>
        <path d="M1.5,1.5H63A27.5,27.5,0,0,1,90.5,29V63A27.5,27.5,0,0,1,63,90.5H29A27.5,27.5,0,0,1,1.5,63V1.5A0,0,0,0,1,1.5,1.5Z" fill="none"/>
      </g>
    </g>
    <g id="FilledOutline" transform="translate(664.051 903)">
      <path id="Trazado_1035007" data-name="Trazado 1035007" d="M32,56H78.561v50.524H32Z" transform="translate(-7.009 -35.047)" fill="#e3e4e2"/>
      <path id="Trazado_1035008" data-name="Trazado 1035008" d="M292.8,185.354h-10.9V161.578h-7.77a2.137,2.137,0,0,1-.333-4.247l14.421-2.277a2.972,2.972,0,0,1,3.321,2.119l1.259,4.405Z" transform="translate(-217.289 -121.802)" fill="#f5be9a"/>
      <path id="Trazado_1035009" data-name="Trazado 1035009" d="M226.972,211.963,224,209.981,226.972,208h27.739a1.981,1.981,0,1,1,0,3.963Z" transform="translate(-175.233 -168.224)" fill="#4e4e4f"/>
      <path id="Trazado_1035010" data-name="Trazado 1035010" d="M459.963,209.981A1.981,1.981,0,0,0,457.981,208H456v3.963h1.981A1.981,1.981,0,0,0,459.963,209.981Z" transform="translate(-378.504 -168.224)" fill="#e3e4e2"/>
      <path id="Trazado_1035011" data-name="Trazado 1035011" d="M288.916,219.888l-2.194-.878a4.39,4.39,0,0,1-2.759-4.076l-3.347-3.347A2.1,2.1,0,0,1,282.1,208h.374a2.1,2.1,0,0,1,.94.222l7.481,3.741,2.972,2.972Z" transform="translate(-224.299 -168.224)" fill="#f5be9a"/>
      <path id="Trazado_1035012" data-name="Trazado 1035012" d="M350.86,390.86v-10.9L348.879,376h-10.9L336,379.963v10.9Z" transform="translate(-273.364 -315.42)" fill="#0093b9"/>
      <path id="Trazado_1035013" data-name="Trazado 1035013" d="M350.86,379.963H336L337.981,376h10.9Z" transform="translate(-273.364 -315.42)" fill="#067b98"/>
      <path id="Trazado_1035014" data-name="Trazado 1035014" d="M240.692,153.582h-3.215l-1.053-3.687A3.967,3.967,0,0,0,232,147.069l-14.421,2.277a3.125,3.125,0,0,0-2.421,4.235h-2.2a.991.991,0,0,0-.55.166l-2.722,1.815H208v1.981h1.681l2.722,1.815a.991.991,0,0,0,.55.166H217.5l2.408,2.408a5.352,5.352,0,0,0,3.366,4.569l1.571.629v8.012l-1.877,3.753a.988.988,0,0,0-.1.443h0v10.9h1.981V180.33H237.72v9.907H239.7v-10.9h0a.988.988,0,0,0-.1-.443l-1.877-3.753V159.526h2.972a2.972,2.972,0,1,0,0-5.944Zm-23.776-1.146a1.141,1.141,0,0,1,.967-1.132l14.421-2.277a1.983,1.983,0,0,1,2.214,1.413l.9,3.142h-5.211l1.281-1.281-1.4-1.4-2.682,2.682h-9.341A1.147,1.147,0,0,1,216.916,152.436Zm-5.149,4.118,1.486-.991h2.879a3.1,3.1,0,0,0-.083,1.981h-2.8Zm13.686,21.795.991-1.981h9.673l.991,1.981Zm10.285-3.963h-8.916V166.46a.991.991,0,0,0-.623-.92l-2.194-.877a3.383,3.383,0,0,1-2.137-3.156.991.991,0,0,0-.29-.7l-3.347-3.347a1.111,1.111,0,0,1,.785-1.9h.374a1.117,1.117,0,0,1,.5.117l7.338,3.669,2.858,2.858,1.4-1.4-1.281-1.281h5.534Zm-7.691-16.841-3.963-1.981H237.72v1.981Zm12.645,0H239.7v-1.981h.991a.991.991,0,0,1,0,1.981Z" transform="translate(-161.215 -114.796)"/>
      <path id="Trazado_1035015" data-name="Trazado 1035015" d="M25.981,49.981h44.58v7.925h1.981V48.991A.991.991,0,0,0,71.552,48H24.991a.991.991,0,0,0-.991.991V99.515a.991.991,0,0,0,.991.991H59.664V98.524H25.981Z" transform="translate(0 -28.037)"/>
      <path id="Trazado_1035016" data-name="Trazado 1035016" d="M83.409,153.038a14.847,14.847,0,0,1,8.578.976l.786-1.819a16.838,16.838,0,1,0,9.263,20.878l-1.877-.636A14.863,14.863,0,0,1,89.953,182l7.322-7.322-1.4-1.4-9.219,9.22a14.983,14.983,0,0,1-2.666-.136l6.522-6.522-1.4-1.4L81.7,181.851a14.772,14.772,0,0,1-2.016-.785l6.541-6.542-1.4-1.4-6.931,6.932a14.811,14.811,0,0,1-1.589-1.214l5.633-5.633-1.4-1.4L74.9,177.44a14.924,14.924,0,0,1-1.215-1.587l6.439-6.437-1.4-1.4-6.053,6.051a14.669,14.669,0,0,1-.787-2.014l6.429-6.429-1.4-1.4-5.538,5.539a15.071,15.071,0,0,1-.148-2.1c0-.188,0-.375.012-.562l6.255-6.255-1.4-1.4L71.729,163.8a14.883,14.883,0,0,1,11.68-10.762Z" transform="translate(-39.65 -118.119)"/>
      <path id="Trazado_1035017" data-name="Trazado 1035017" d="M104.27,95.449c1.479,0,2.138-1.318,2.62-2.281.25-.5.593-1.186.848-1.186s.6.686.848,1.186c.481.963,1.141,2.281,2.62,2.281s2.139-1.318,2.62-2.281c.25-.5.593-1.186.848-1.186V90c-1.479,0-2.139,1.318-2.62,2.281-.25.5-.593,1.186-.848,1.186s-.6-.686-.848-1.186c-.481-.963-1.141-2.281-2.62-2.281s-2.138,1.318-2.62,2.281c-.25.5-.593,1.186-.848,1.186s-.6-.686-.848-1.186c-.481-.963-1.141-2.281-2.62-2.281s-2.138,1.318-2.62,2.281c-.25.5-.593,1.186-.848,1.186s-.6-.686-.848-1.186C96.006,91.319,95.347,90,93.867,90s-2.138,1.318-2.619,2.281c-.25.5-.593,1.186-.848,1.186s-.6-.686-.847-1.186C89.072,91.319,88.413,90,86.934,90s-2.138,1.319-2.619,2.281c-.25.5-.593,1.186-.847,1.186s-.6-.686-.848-1.186C82.138,91.319,81.479,90,80,90v1.981c.255,0,.6.686.848,1.186.481.963,1.141,2.281,2.62,2.281s2.138-1.319,2.619-2.281c.25-.5.593-1.186.847-1.186s.6.686.847,1.186c.481.963,1.14,2.281,2.619,2.281s2.138-1.319,2.62-2.281c.25-.5.593-1.186.847-1.186s.6.686.848,1.186c.481.963,1.141,2.281,2.62,2.281s2.138-1.318,2.62-2.281c.25-.5.593-1.186.848-1.186s.6.686.848,1.186C102.131,94.13,102.791,95.449,104.27,95.449Z" transform="translate(-49.065 -64.836)"/>
      <path id="Trazado_1035018" data-name="Trazado 1035018" d="M88,16h27.739v1.981H88Z" transform="translate(-56.075)"/>
      <path id="Trazado_1035019" data-name="Trazado 1035019" d="M328,16h1.981v1.981H328Z" transform="translate(-266.355)"/>
    </g>
  </g>
</svg>
