<svg xmlns="http://www.w3.org/2000/svg" xmlns:xlink="http://www.w3.org/1999/xlink" width="116" height="116" viewBox="0 0 116 116">
  <defs>
    <filter id="Rect치ngulo_405287" x="0" y="0" width="116" height="116" filterUnits="userSpaceOnUse">
      <feOffset dx="6" dy="7" input="SourceAlpha"/>
      <feGaussianBlur stdDeviation="4" result="blur"/>
      <feFlood flood-opacity="0.251"/>
      <feComposite operator="in" in2="blur"/>
      <feComposite in="SourceGraphic"/>
    </filter>
  </defs>
  <g id="Grupo_1178901" data-name="Grupo 1178901" transform="translate(675.676 10312.038)">
    <g transform="matrix(1, 0, 0, 1, -675.68, -10312.04)" filter="url(#Rect치ngulo_405287)">
      <g id="Rect치ngulo_405287-2" data-name="Rect치ngulo 405287" transform="translate(6 5)" fill="#e0ee33" stroke="#fff" stroke-width="3">
        <path d="M0,0H63A29,29,0,0,1,92,29V63A29,29,0,0,1,63,92H29A29,29,0,0,1,0,63V0A0,0,0,0,1,0,0Z" stroke="none"/>
        <path d="M1.5,1.5H63A27.5,27.5,0,0,1,90.5,29V63A27.5,27.5,0,0,1,63,90.5H29A27.5,27.5,0,0,1,1.5,63V1.5A0,0,0,0,1,1.5,1.5Z" fill="none"/>
      </g>
    </g>
    <g id="Grupo_1178900" data-name="Grupo 1178900" transform="translate(-655.333 -10292.945)">
      <path id="Trazado_1035083" data-name="Trazado 1035083" d="M185.412,33.589l-1.5-16.579a10.451,10.451,0,0,0-20.822.06l-1.4,16.547a.135.135,0,0,0,.231.107l6.419-6.419a7.109,7.109,0,0,0,.977-1.219.344.344,0,0,1,.533-.057,3.963,3.963,0,0,1,1.161,2.8v.618a15.346,15.346,0,0,1-.508,3.914l-.294,1.113a.441.441,0,0,0,.427.554h5.86a.441.441,0,0,0,.427-.554l-.294-1.113a15.347,15.347,0,0,1-.508-3.914v-.618a3.964,3.964,0,0,1,1.161-2.8.344.344,0,0,1,.533.057,7.109,7.109,0,0,0,.977,1.219l6.391,6.391a.135.135,0,0,0,.231-.108Z" transform="translate(-141.536 -6.566)" fill="#c86d36"/>
      <path id="Trazado_1035084" data-name="Trazado 1035084" d="M300.329,266.194a8.717,8.717,0,0,1-5.975-10.051.118.118,0,0,0-.116-.143h-8.6a2.632,2.632,0,0,0-1.889,4.469l.037.038a5.627,5.627,0,0,1,.847,6.876l-.866,1.444a.118.118,0,0,0,.024.15A28.875,28.875,0,0,1,288,273.488c.481.642,1,1.332,1.5,2q.8,1.06,1.632,2.087a.119.119,0,0,0,.159.024l1.121-.748a9.594,9.594,0,0,1,9.613-.6l3.837,1.918a.248.248,0,0,0,.2.009,7.1,7.1,0,0,0,4.537-6.619v-2.018a.248.248,0,0,0-.175-.237Z" transform="translate(-247.718 -224.093)" fill="#c86d36"/>
      <path id="Trazado_1035085" data-name="Trazado 1035085" d="M17.769,266.194a8.717,8.717,0,0,0,5.975-10.051.118.118,0,0,1,.116-.143h8.6a2.632,2.632,0,0,1,1.889,4.469l-.037.038a5.627,5.627,0,0,0-.847,6.876l.866,1.444a.118.118,0,0,1-.024.15,28.876,28.876,0,0,0-4.208,4.512c-.481.642-1,1.332-1.5,2q-.8,1.06-1.632,2.087a.119.119,0,0,1-.159.024l-1.121-.748a9.594,9.594,0,0,0-9.613-.6l-3.837,1.918a.248.248,0,0,1-.2.009A7.1,7.1,0,0,1,7.5,271.564v-2.018a.248.248,0,0,1,.175-.237Z" transform="translate(-6.566 -224.093)" fill="#c86d36"/>
      <path id="Trazado_1035086" data-name="Trazado 1035086" d="M195.673,416.691l1.572,3.144a.127.127,0,0,0,.114.07h6.679a.127.127,0,0,0,.122-.162l-3.412-11.791a.127.127,0,0,0-.122-.092H190.493a.127.127,0,0,0-.122.092l-3.412,11.791a.127.127,0,0,0,.122.162h6.679a.127.127,0,0,0,.114-.07l1.572-3.144a.127.127,0,0,1,.227,0Z" transform="translate(-163.653 -357.026)" fill="#c86d36"/>
      <g id="Grupo_1178899" data-name="Grupo 1178899" transform="translate(1.872 1.128)">
        <path id="Trazado_1035087" data-name="Trazado 1035087" d="M282.508,34.949l-1.5-16.579a10.454,10.454,0,0,0-8.4-9.316,10.425,10.425,0,0,1,3.413,6.823l1.286,14.21,4.969,4.969a.135.135,0,0,0,.231-.108Z" transform="translate(-240.504 -9.054)" fill="#ac5e2e"/>
        <path id="Trazado_1035088" data-name="Trazado 1035088" d="M347.525,352.353l-4.811-1.484v1.247q0,.114,0,.226a5.55,5.55,0,0,1-8.046,4.728l-.525-.262a9.6,9.6,0,0,0-8.765.094l1.226,1.635q.8,1.06,1.632,2.087a.119.119,0,0,0,.159.024l1.121-.748a9.594,9.594,0,0,1,9.613-.6l3.837,1.918a.248.248,0,0,0,.2.009,7.1,7.1,0,0,0,4.537-6.619V352.59A.248.248,0,0,0,347.525,352.353Z" transform="translate(-286.693 -308.267)" fill="#ac5e2e"/>
        <path id="Trazado_1035089" data-name="Trazado 1035089" d="M40.894,260.506l.037-.038A2.632,2.632,0,0,0,39.042,256H36.7a2.545,2.545,0,0,1-.751,1.976l-.037.038a5.627,5.627,0,0,0-.847,6.876l.245.409a1.584,1.584,0,0,1-.274,1.97A28.877,28.877,0,0,0,31.7,271c-.481.642-1,1.332-1.5,2q-.384.511-.777,1.015a1.589,1.589,0,0,1-2.135.348,9.594,9.594,0,0,0-9.613-.6l-2.652,1.326a7.092,7.092,0,0,0,3.6,3.095.248.248,0,0,0,.2-.009l3.837-1.918a9.594,9.594,0,0,1,9.613.6l1.121.748a.12.12,0,0,0,.159-.024q.837-1.025,1.632-2.087c.5-.671,1.021-1.361,1.5-2a28.882,28.882,0,0,1,4.208-4.512.118.118,0,0,0,.024-.15l-.866-1.444a5.626,5.626,0,0,1,.847-6.875Z" transform="translate(-15.016 -225.222)" fill="#ac5e2e"/>
        <path id="Trazado_1035090" data-name="Trazado 1035090" d="M187.635,484.5l-.674,2.331a.127.127,0,0,0,.122.162h6.679a.127.127,0,0,0,.114-.07l1.211-2.423Z" transform="translate(-165.526 -425.241)" fill="#ac5e2e"/>
        <path id="Trazado_1035091" data-name="Trazado 1035091" d="M267.929,419.742l-3.412-11.791a.127.127,0,0,0-.122-.092h-4.169l2.206,7.623a1.509,1.509,0,0,1-1.45,1.928H259.8l1.211,2.423a.127.127,0,0,0,.114.07h6.679A.127.127,0,0,0,267.929,419.742Z" transform="translate(-229.294 -358.154)" fill="#ac5e2e"/>
      </g>
      <path id="Trazado_1035092" data-name="Trazado 1035092" d="M154.808,28.033a1.075,1.075,0,0,0,1.207-.214l6.419-6.419a8.071,8.071,0,0,0,.632-.712,3.008,3.008,0,0,1,.442,1.578v.618a14.423,14.423,0,0,1-.476,3.675l-.294,1.113a1.376,1.376,0,0,0,1.33,1.727h5.86a1.376,1.376,0,0,0,1.331-1.727l-.294-1.113a14.423,14.423,0,0,1-.477-3.675v-.618a3.009,3.009,0,0,1,.442-1.578,8.09,8.09,0,0,0,.632.712l6.391,6.391a1.07,1.07,0,0,0,1.823-.853l-1.5-16.579a11.387,11.387,0,0,0-17.31-8.67.935.935,0,1,0,.981,1.591,9.517,9.517,0,0,1,14.466,7.247l1.3,14.381-4.831-4.831a6.176,6.176,0,0,1-.848-1.059,1.278,1.278,0,0,0-1.983-.217,4.867,4.867,0,0,0-1.435,3.464v.618a16.291,16.291,0,0,0,.538,4.152l.13.494H164.71l.13-.494a16.3,16.3,0,0,0,.538-4.152v-.618a4.866,4.866,0,0,0-1.435-3.464,1.278,1.278,0,0,0-1.983.217,6.172,6.172,0,0,1-.848,1.059l-4.872,4.873,1.216-14.368a9.521,9.521,0,0,1,1.61-4.546.935.935,0,1,0-1.546-1.052,11.4,11.4,0,0,0-1.927,5.44l-1.4,16.547a1.074,1.074,0,0,0,.616,1.061Z" transform="translate(-134.972)"/>
      <path id="Trazado_1035093" data-name="Trazado 1035093" d="M185.873,141.231l-.037.435a.935.935,0,0,0,1.863.158l.037-.435a.935.935,0,0,0-1.863-.158Z" transform="translate(-162.671 -122.879)"/>
      <path id="Trazado_1035094" data-name="Trazado 1035094" d="M190.221,108.869l.075-.883a.935.935,0,1,0-1.863-.158l-.075.883a.935.935,0,0,0,1.863.158Z" transform="translate(-164.879 -93.639)"/>
      <path id="Trazado_1035095" data-name="Trazado 1035095" d="M292.156,43.878a.935.935,0,1,0-1.342,1.3,6.334,6.334,0,0,1,.5.585.935.935,0,1,0,1.491-1.128A8.17,8.17,0,0,0,292.156,43.878Z" transform="translate(-254.337 -38.16)"/>
      <path id="Trazado_1035096" data-name="Trazado 1035096" d="M230.013,29.625a6.3,6.3,0,0,1,.737-.224.935.935,0,1,0-.433-1.819,8.138,8.138,0,0,0-.958.291.935.935,0,0,0,.653,1.752Z" transform="translate(-200.24 -24.121)"/>
      <path id="Trazado_1035097" data-name="Trazado 1035097" d="M307.774,74.476c-.024-.269-.063-.54-.113-.806a.935.935,0,0,0-1.836.352c.039.2.069.414.087.622l.015.165a.935.935,0,0,0,1.862-.168Z" transform="translate(-267.693 -63.825)"/>
      <path id="Trazado_1035098" data-name="Trazado 1035098" d="M263.2,29.464a.935.935,0,0,0,.632-1.76,8.153,8.153,0,0,0-.961-.28.935.935,0,1,0-.411,1.824A6.305,6.305,0,0,1,263.2,29.464Z" transform="translate(-229.111 -23.987)"/>
      <path id="Trazado_1035099" data-name="Trazado 1035099" d="M310.979,107.114a.935.935,0,1,0-1.862.169l.08.883a.935.935,0,0,0,1.862-.169Z" transform="translate(-270.586 -93.019)"/>
      <path id="Trazado_1035100" data-name="Trazado 1035100" d="M202.757,46.465a.935.935,0,0,0,1.307-.2,6.334,6.334,0,0,1,.495-.592.935.935,0,0,0-1.358-1.285,8.227,8.227,0,0,0-.641.767A.935.935,0,0,0,202.757,46.465Z" transform="translate(-177.153 -38.602)"/>
      <path id="Trazado_1035101" data-name="Trazado 1035101" d="M191.3,74.368c-.045.248-.078.5-.1.756l-.018.21a.935.935,0,0,0,1.863.158l.018-.21c.017-.2.042-.392.077-.583a.935.935,0,0,0-1.84-.331Z" transform="translate(-167.354 -64.426)"/>
      <path id="Trazado_1035102" data-name="Trazado 1035102" d="M312.991,139.724a.935.935,0,0,0-.847,1.015l.039.434a.935.935,0,0,0,1.862-.169l-.039-.434A.936.936,0,0,0,312.991,139.724Z" transform="translate(-273.236 -122.306)"/>
      <path id="Trazado_1035103" data-name="Trazado 1035103" d="M459.974,372.411a.935.935,0,1,0,.551-1.786l-.435-.134a.935.935,0,1,0-.551,1.786Z" transform="translate(-401.686 -324.278)"/>
      <path id="Trazado_1035104" data-name="Trazado 1035104" d="M342.44,275.454c-.048-.262-.086-.529-.115-.795a.935.935,0,0,0-1.859.2c.033.311.078.625.134.932a.935.935,0,1,0,1.839-.335Z" transform="translate(-298.027 -239.695)"/>
      <path id="Trazado_1035105" data-name="Trazado 1035105" d="M371.037,332.722c-.2-.17-.406-.351-.6-.536a.935.935,0,0,0-1.3,1.344c.225.217.461.429.7.629a.935.935,0,1,0,1.2-1.437Z" transform="translate(-322.883 -290.554)"/>
      <path id="Trazado_1035106" data-name="Trazado 1035106" d="M427.386,361.379a.935.935,0,0,0,.618,1.169l.834.257a.935.935,0,0,0,.551-1.787l-.834-.257A.935.935,0,0,0,427.386,361.379Z" transform="translate(-374.081 -315.761)"/>
      <path id="Trazado_1035107" data-name="Trazado 1035107" d="M350.089,307.543a.935.935,0,1,0,1.614-.943c-.134-.23-.262-.468-.379-.708a.935.935,0,1,0-1.68.821C349.783,306.995,349.932,307.274,350.089,307.543Z" transform="translate(-305.983 -267.308)"/>
      <path id="Trazado_1035108" data-name="Trazado 1035108" d="M397.371,350.39a.935.935,0,1,0-.765,1.706c.285.128.578.247.871.353a.935.935,0,0,0,.639-1.757C397.866,350.6,397.615,350.5,397.371,350.39Z" transform="translate(-346.691 -306.647)"/>
      <path id="Trazado_1035109" data-name="Trazado 1035109" d="M304.109,261.85l-5.584-1.723a.935.935,0,0,0-.551,1.787l5.1,1.574V265a6.2,6.2,0,0,1-3.665,5.633l-3.557-1.778a10.553,10.553,0,0,0-10.55.657l-.5.334c-.379-.476-.762-.972-1.144-1.481-.482-.641-.877-1.169-1.5-2a29.86,29.86,0,0,0-3.83-4.2l.517-.863a6.562,6.562,0,0,0-.988-8.017l-.034-.034a1.629,1.629,0,0,1-.35-1.824,1.686,1.686,0,0,1,1.574-1.053H286.7a9.655,9.655,0,0,0,6.762,10.153l.264.082a.935.935,0,1,0,.552-1.786l-.264-.082a7.751,7.751,0,0,1-5.335-8.971,1.053,1.053,0,0,0-1.032-1.265h-8.6a3.567,3.567,0,0,0-2.553,6.062l.04.041a4.653,4.653,0,0,1,1.34,2.745,4.718,4.718,0,0,1-.634,2.988l-.866,1.445a1.052,1.052,0,0,0,.215,1.337,27.975,27.975,0,0,1,4.072,4.366l1.5,2c.554.738,1.111,1.45,1.655,2.116a1.05,1.05,0,0,0,1.4.21l1.121-.748a8.678,8.678,0,0,1,8.677-.54l3.837,1.918a1.185,1.185,0,0,0,.956.045A8.082,8.082,0,0,0,304.943,265v-2.018a1.177,1.177,0,0,0-.834-1.131Z" transform="translate(-241.13 -217.528)"/>
      <path id="Trazado_1035110" data-name="Trazado 1035110" d="M123.87,332.185c-.192.185-.393.366-.6.536a.935.935,0,0,0,1.2,1.437c.24-.2.476-.412.7-.629a.935.935,0,0,0-1.3-1.344Z" transform="translate(-107.614 -290.552)"/>
      <path id="Trazado_1035111" data-name="Trazado 1035111" d="M145.9,305.465a.935.935,0,0,0-1.25.429c-.117.24-.245.478-.379.708a.935.935,0,1,0,1.614.943c.157-.269.307-.549.444-.83A.935.935,0,0,0,145.9,305.465Z" transform="translate(-126.177 -267.31)"/>
      <path id="Trazado_1035112" data-name="Trazado 1035112" d="M156.7,273.827a.936.936,0,0,0-1.029.831c-.028.264-.067.532-.115.8a.935.935,0,1,0,1.839.335c.056-.308.1-.622.134-.932A.935.935,0,0,0,156.7,273.827Z" transform="translate(-136.154 -239.694)"/>
      <path id="Trazado_1035113" data-name="Trazado 1035113" d="M95.818,350.39c-.244.109-.494.211-.745.3a.935.935,0,0,0,.639,1.757c.293-.107.586-.226.871-.353a.935.935,0,1,0-.765-1.706Z" transform="translate(-82.684 -306.647)"/>
      <path id="Trazado_1035114" data-name="Trazado 1035114" d="M64.455,360.761l-.834.257a.935.935,0,1,0,.551,1.787l.834-.257a.935.935,0,1,0-.551-1.787Z" transform="translate(-55.114 -315.761)"/>
      <path id="Trazado_1035115" data-name="Trazado 1035115" d="M35.719,370.491l-.435.134a.935.935,0,1,0,.551,1.787l.435-.134a.935.935,0,1,0-.551-1.787Z" transform="translate(-30.308 -324.278)"/>
      <path id="Trazado_1035116" data-name="Trazado 1035116" d="M24.284,267.484a27.985,27.985,0,0,1,4.072-4.366,1.052,1.052,0,0,0,.214-1.338l-.866-1.444a4.718,4.718,0,0,1-.634-2.988,4.653,4.653,0,0,1,1.34-2.745l.041-.042A3.567,3.567,0,0,0,25.9,248.5h-8.6a1.053,1.053,0,0,0-1.032,1.264,7.751,7.751,0,0,1-5.334,8.972L.834,261.85A1.177,1.177,0,0,0,0,262.98V265a8.082,8.082,0,0,0,5.134,7.491,1.185,1.185,0,0,0,.956-.045l3.837-1.918a8.679,8.679,0,0,1,8.676.54l1.12.747a1.049,1.049,0,0,0,1.4-.21c.543-.665,1.1-1.377,1.655-2.117C23.381,268.689,23.84,268.076,24.284,267.484Zm-3,.881c-.383.51-.766,1.006-1.144,1.481l-.5-.335a10.554,10.554,0,0,0-10.55-.657l-3.557,1.778A6.2,6.2,0,0,1,1.87,265v-1.512l9.609-2.965h0A9.655,9.655,0,0,0,18.24,250.37H25.9a1.686,1.686,0,0,1,1.574,1.053,1.631,1.631,0,0,1-.352,1.827l-.031.031A6.562,6.562,0,0,0,26.1,261.3l.517.863a29.861,29.861,0,0,0-3.83,4.2l-1.5,2Z" transform="translate(0 -217.528)"/>
      <path id="Trazado_1035117" data-name="Trazado 1035117" d="M195.086,401.128a1.067,1.067,0,0,0-1.02-.767H190.5a.935.935,0,1,0,0,1.87h2.962l2.944,10.175H191.3l-1.349-2.7a1.062,1.062,0,0,0-1.9,0l-1.349,2.7H181.6l2.944-10.175h1.594a.935.935,0,1,0,0-1.87h-2.2a1.067,1.067,0,0,0-1.02.767L179.5,412.918a1.062,1.062,0,0,0,1.02,1.357H187.2a1.056,1.056,0,0,0,.95-.587l.85-1.7.85,1.7a1.056,1.056,0,0,0,.95.587h6.679a1.062,1.062,0,0,0,1.02-1.357Z" transform="translate(-157.092 -350.462)"/>
      <path id="Trazado_1035118" data-name="Trazado 1035118" d="M278.371,460.865l.242.838a.935.935,0,1,0,1.8-.519l-.242-.838a.935.935,0,0,0-1.8.52Z" transform="translate(-243.643 -402.379)"/>
      <path id="Trazado_1035119" data-name="Trazado 1035119" d="M270.994,428.647a.935.935,0,0,0-1.8.519l.242.838a.935.935,0,0,0,1.8-.519Z" transform="translate(-235.614 -374.631)"/>
      <path id="Trazado_1035120" data-name="Trazado 1035120" d="M218.154,459.708a.935.935,0,0,0-1.158.638l-.242.838a.935.935,0,0,0,1.8.519l.242-.838A.935.935,0,0,0,218.154,459.708Z" transform="translate(-189.706 -402.379)"/>
      <path id="Trazado_1035121" data-name="Trazado 1035121" d="M227.723,430l.242-.838a.935.935,0,0,0-1.8-.52l-.242.838a.935.935,0,1,0,1.8.52Z" transform="translate(-197.736 -374.631)"/>
    </g>
  </g>
</svg>
