<svg xmlns="http://www.w3.org/2000/svg" xmlns:xlink="http://www.w3.org/1999/xlink" width="116" height="116" viewBox="0 0 116 116">
  <defs>
    <filter id="Rect치ngulo_405289" x="0" y="0" width="116" height="116" filterUnits="userSpaceOnUse">
      <feOffset dx="6" dy="7" input="SourceAlpha"/>
      <feGaussianBlur stdDeviation="4" result="blur"/>
      <feFlood flood-opacity="0.251"/>
      <feComposite operator="in" in2="blur"/>
      <feComposite in="SourceGraphic"/>
    </filter>
  </defs>
  <g id="Grupo_1178903" data-name="Grupo 1178903" transform="translate(370.676 10312.038)">
    <g transform="matrix(1, 0, 0, 1, -370.68, -10312.04)" filter="url(#Rect치ngulo_405289)">
      <g id="Rect치ngulo_405289-2" data-name="Rect치ngulo 405289" transform="translate(6 5)" fill="#e0ee33" stroke="#fff" stroke-width="3">
        <path d="M0,0H63A29,29,0,0,1,92,29V63A29,29,0,0,1,63,92H29A29,29,0,0,1,0,63V0A0,0,0,0,1,0,0Z" stroke="none"/>
        <path d="M1.5,1.5H63A27.5,27.5,0,0,1,90.5,29V63A27.5,27.5,0,0,1,63,90.5H29A27.5,27.5,0,0,1,1.5,63V1.5A0,0,0,0,1,1.5,1.5Z" fill="none"/>
      </g>
    </g>
    <g id="Grupo_1178902" data-name="Grupo 1178902" transform="translate(-348.254 -10299)">
      <path id="Trazado_1035122" data-name="Trazado 1035122" d="M129.279,202.386l-4.769,7.154a.214.214,0,0,1-.083.073l-4.494,2.247a1.764,1.764,0,0,0-.239.144l5,10.332,10.332,5a1.756,1.756,0,0,0,.145-.239l2.247-4.494a.216.216,0,0,1,.073-.083l7.154-4.769-4.287-11.075Z" transform="translate(-103.972 -175.801)" fill="#fedba6"/>
      <path id="Trazado_1035123" data-name="Trazado 1035123" d="M232.944,17.314l-8.956,15.672A37.925,37.925,0,0,1,212.1,45.726l-4.073,2.715L192.663,33.079l2.715-4.073a37.925,37.925,0,0,1,12.739-11.891L223.79,8.16A5.184,5.184,0,0,1,230.028,9l2.081,2.081a5.185,5.185,0,0,1,.836,6.238Z" transform="translate(-167.356 -6.494)" fill="#fedba6"/>
      <path id="Trazado_1035124" data-name="Trazado 1035124" d="M309.376,11.076,307.3,9a5.184,5.184,0,0,0-4.125-1.5l.952.952a5.185,5.185,0,0,1,.835,6.238L296,30.36A37.925,37.925,0,0,1,284.111,43.1l-2.5,1.664,3.678,3.678,4.073-2.715a37.925,37.925,0,0,0,11.891-12.739l8.956-15.672a5.185,5.185,0,0,0-.835-6.239Z" transform="translate(-244.624 -6.495)" fill="#fece85"/>
      <path id="Trazado_1035125" data-name="Trazado 1035125" d="M29.954,349.319l-3.387,3.387q-.456.456-.932.887a10.849,10.849,0,0,1-15.317-15.317q.431-.476.887-.932l3.387-3.387Z" transform="translate(-6.567 -290.09)" fill="#fedba6"/>
      <path id="Trazado_1035126" data-name="Trazado 1035126" d="M209.627,201.8l-1.6,4.8-15.362-15.362,4.8-1.6a1.631,1.631,0,0,1,1.669.394l10.1,10.1a1.631,1.631,0,0,1,.394,1.669Z" transform="translate(-167.356 -164.657)" fill="#fee8c7"/>
      <path id="Trazado_1035127" data-name="Trazado 1035127" d="M47.531,275.792l-7.479,7.479a10.863,10.863,0,0,0,15.362,15.362l7.479-7.479a1.764,1.764,0,0,0,.186-.219L47.75,275.606a1.776,1.776,0,0,0-.219.186Z" transform="translate(-32.028 -239.404)" fill="#fee8c7"/>
      <circle id="Elipse_11712" data-name="Elipse 11712" cx="3.627" cy="3.627" r="3.627" transform="translate(11.873 48.128)" fill="#fedba6"/>
      <path id="Trazado_1035128" data-name="Trazado 1035128" d="M429.449,134.346h2.686a.179.179,0,0,1,.175.142l1.458,6.888v34.98a2.977,2.977,0,1,1-5.953,0v-34.98l1.458-6.888A.18.18,0,0,1,429.449,134.346Z" transform="translate(-371.62 -116.699)" fill="#b4d2e2"/>
      <path id="Trazado_1035129" data-name="Trazado 1035129" d="M186.844,282.888a.985.985,0,1,0-1.393,1.393l3.841,3.84a.985.985,0,0,0,1.393-1.393Z" transform="translate(-160.84 -245.479)"/>
      <path id="Trazado_1035130" data-name="Trazado 1035130" d="M82.888,363.508A4.612,4.612,0,1,0,87.5,358.9,4.617,4.617,0,0,0,82.888,363.508Zm7.253,0a2.641,2.641,0,1,1-2.642-2.641A2.644,2.644,0,0,1,90.141,363.508Z" transform="translate(-72 -311.753)"/>
      <path id="Trazado_1035131" data-name="Trazado 1035131" d="M416.281,73.149l1.654-1.653a.985.985,0,1,0-1.393-1.393l-1.654,1.653a.985.985,0,0,0,1.393,1.393Z" transform="translate(-360.14 -60.643)"/>
      <path id="Trazado_1035132" data-name="Trazado 1035132" d="M340.75,148.68l1.654-1.654a.985.985,0,1,0-1.393-1.393l-1.654,1.654a.985.985,0,0,0,1.393,1.393Z" transform="translate(-294.53 -126.253)"/>
      <path id="Trazado_1035133" data-name="Trazado 1035133" d="M301.591,185.053a.985.985,0,1,0,1.393,1.393l1.654-1.653a.985.985,0,0,0-1.393-1.393Z" transform="translate(-261.725 -159.058)"/>
      <path id="Trazado_1035134" data-name="Trazado 1035134" d="M66.444,11.309a6.184,6.184,0,0,0-.994-7.424L63.369,1.8A6.183,6.183,0,0,0,55.945.81L45.861,6.572a.985.985,0,1,0,.977,1.711L56.922,2.521a4.209,4.209,0,0,1,5.053.677l.344.344-2.61,2.61A.985.985,0,0,0,61.1,7.545l2.61-2.61.344.344a4.209,4.209,0,0,1,.677,5.053l-3.69,6.458a1.155,1.155,0,0,0-.527-.128h-.358V14.02a.985.985,0,1,0-1.97,0v2.642h-.358a1.169,1.169,0,0,0-1.139.923l-1.3,6.158a.986.986,0,0,0-.176,1.79v1.428A37.079,37.079,0,0,1,49.815,33.8V31.95A12.033,12.033,0,0,1,51.53,25.76l1.37-2.284a5.3,5.3,0,0,0-.8-6.482l-.225-.225.957-.957a.985.985,0,0,0-1.393-1.393l-.957.957-.225-.225a5.3,5.3,0,0,0-6.482-.8l-2.283,1.37A12.032,12.032,0,0,1,35.3,17.438H33.454a37.049,37.049,0,0,1,7.8-5.962l1.583-.9a.985.985,0,1,0-.977-1.711l-1.583.9a39.1,39.1,0,0,0-13.07,12.2l-7.37,11.056-4.311,2.156a2.751,2.751,0,0,0-.714.515C2.982,47.517,3.639,46.841,3.02,47.525a11.856,11.856,0,0,0,8.86,19.728,11.659,11.659,0,0,0,7.848-3.02c.878-.795.362-.331,11.834-11.786a2.758,2.758,0,0,0,.515-.714l2.155-4.311,11.056-7.37a39.192,39.192,0,0,0,9.922-9.546V55.2a.986.986,0,0,0,0,1.711v2.752a3.962,3.962,0,0,0,7.923,0V56.906a.985.985,0,0,0,0-1.711V43.22a.985.985,0,0,0-1.97,0V55.066H57.181v-29.4h3.983v12.96a.985.985,0,0,0,1.97,0V25.534a.985.985,0,0,0-.176-1.79l-.978-4.622Zm-23.936,6.1,2.283-1.37a3.331,3.331,0,0,1,4.075.5l1.843,1.843a3.331,3.331,0,0,1,.5,4.075l-1.37,2.283a13.992,13.992,0,0,0-1.221,2.613h-.091A8.186,8.186,0,0,0,42.7,29.773l-2.566,2.566-5.221-5.221,2.566-2.566a8.186,8.186,0,0,0,2.413-5.826v-.091a13.979,13.979,0,0,0,2.613-1.221ZM41.336,36.831h0l-1.1,3.292L27.131,27.015l3.292-1.1a.643.643,0,0,1,.661.156l10.1,10.1A.642.642,0,0,1,41.336,36.831ZM31.621,19.408H35.3a14,14,0,0,0,2.6-.245,6.223,6.223,0,0,1-1.821,3.995l-2.566,2.566-1.044-1.044a2.6,2.6,0,0,0-2.678-.632l-2.081.694,1.122-1.683a36.69,36.69,0,0,1,2.78-3.65ZM22.69,58.532a9.876,9.876,0,0,1-9.816,2.481.985.985,0,0,0-.563,1.888,11.855,11.855,0,0,0,5.6.289A9.871,9.871,0,0,1,4.062,49.343a11.982,11.982,0,0,0-.2,2.2,11.785,11.785,0,0,0,4.03,8.9.985.985,0,1,0,1.3-1.479,9.878,9.878,0,0,1-.469-14.409l6.984-6.985L29.675,51.548ZM32.969,45.9a1.2,1.2,0,0,0-.408.462L30.8,49.885,17.369,36.456l3.526-1.763a1.2,1.2,0,0,0,.463-.408l4.1-6.154L39.123,41.794ZM44.2,38.412l-1.684,1.122.693-2.08a2.6,2.6,0,0,0-.632-2.678l-1.044-1.044L44.1,31.166a6.222,6.222,0,0,1,3.995-1.821,14,14,0,0,0-.245,2.6v3.682a36.67,36.67,0,0,1-3.65,2.78Zm14.287-19.78h1.38l1.071,5.06H57.411Zm2.681,38.4v2.622a1.992,1.992,0,0,1-3.983,0V57.036Z" transform="translate(0)"/>
    </g>
  </g>
</svg>
