<svg xmlns="http://www.w3.org/2000/svg" xmlns:xlink="http://www.w3.org/1999/xlink" width="443" height="357" viewBox="0 0 443 357">
  <defs>
    <clipPath id="clip-path">
      <rect id="Rectángulo_402775" data-name="Rectángulo 402775" width="443" height="357" transform="translate(0 0)" fill="none" stroke="#de0909" stroke-width="1"/>
    </clipPath>
    <clipPath id="clip-path-2">
      <rect id="Rectángulo_402773" data-name="Rectángulo 402773" width="39.858" height="129.434" fill="#e0ee33"/>
    </clipPath>
  </defs>
  <g id="Enmascarar_grupo_1098730" data-name="Enmascarar grupo 1098730" clip-path="url(#clip-path)">
    <g id="Grupo_1099899" data-name="Grupo 1099899" transform="translate(7.487 -6.923)">
      <g id="Grupo_1099898" data-name="Grupo 1099898" transform="translate(69.011 156.027)">
        <g id="Grupo_1099897" data-name="Grupo 1099897" transform="translate(0)">
          <path id="Trazado_1033604" data-name="Trazado 1033604" d="M-156.453,13.275v-101.2h35.626l31.414,52.951a66.913,66.913,0,0,1-.863-7.811q-.242-4.286-.242-11.2V-87.926h35v101.2h-35.9l-31.069-52.536q.552,3.387.829,7.293t.276,8.744v36.5ZM-2.143-23.5h15.12L9.87-34.975q-2.278-8.71-3.107-13.41a71.754,71.754,0,0,1-1.036-8.848H5.106a71.754,71.754,0,0,1-1.036,8.848q-.829,4.7-3.107,13.41ZM-50.335,13.275l36.04-101.2H26.164l35.35,101.2H22.436L19.191.556H-8.219l-3.107,12.719ZM85.333-32V-87.926h36.385v65.808a62.471,62.471,0,0,1-1.139,13.48A30.13,30.13,0,0,1,116.886.417a31.726,31.726,0,0,1-12.428,11.475,36.98,36.98,0,0,1-17.4,4.078,48.529,48.529,0,0,1-16.536-2.7A46.95,46.95,0,0,1,56.266,4.911L68.142-22.256A30.218,30.218,0,0,0,73.8-17.313a9.016,9.016,0,0,0,4.764,1.555q3.935,0,5.351-2.972T85.333-32Zm53.715,45.278v-101.2H206.64v27.443H174.674v9.747h29v25.922h-29v10.645h32.8V13.275Z" transform="translate(156.453 87.926)" fill="none" stroke="#fff" stroke-width="2"/>
          <g id="Grupo_1099896" data-name="Grupo 1099896" transform="translate(307.953 49.982)">
            <g id="Grupo_1099895" data-name="Grupo 1099895" clip-path="url(#clip-path-2)">
              <path id="Trazado_1033605" data-name="Trazado 1033605" d="M38.782,4.629l-.646,1.236-.6,1.319-.566,1.381L36.437,10l-.511,1.472-1.013,3.054L33.86,17.6l-1.186,2.969-.892,1.992-.87,1.942-.87,1.942L29.167,28.4l-.9,1.951-.893,1.941-.893,1.94-.9,1.95-.918,1.945-.913,1.935L22.842,42l-.917,1.944-.933,1.936-.929,1.928-.929,1.928L18.2,51.671,17.254,53.6l-.943,1.917-.943,1.917-.947,1.925-.959,1.911-.954,1.9-.955,1.9-.953,1.9-.132.273-.193.423-.244.556-.283.658-.317.757-.345.841-.364.906-.378.963-.386,1.008-.388,1.038-.383,1.055L6.821,76.5l-.693,2.1-.567,1.943-.4,1.715-.09.517.239-.046.507-.117.564-.146.608-.17.649-.194.677-.213L9.79,81.4l1.571-.547,1.651-.591,1.7-.617,1.736-.628,1.75-.624,1.706-.581,1.748-.594,3.233-.955,2.79-.581.792-.1.671-.047.655,0,.656.048.678.123.68.226.69.368.665.577.507.739.305.829.1.848-.057.767-.2,1.175-.252,1.152-.3,1.131-.337,1.116-.379,1.1-.429,1.117-.914,2.095-1.058,2.08L28.99,93.051l-1.244,1.985-1.32,1.952-1.375,1.918L23.64,100.8,22.2,102.677l-1.44,1.85-1.412,1.855-1.42,1.864-1.419,1.865-1.354,1.774-1.137,1.84-1.2,1.937-1.2,1.936L10.546,119.3l-.609,1.834-.712,2.084-.135.394.8-.315.954-.394.972-.415,2-.876,1.974-.88,1.867-.827.89-.385.839-.353.783-.314.734-.276.689-.23.563-.153a2.365,2.365,0,0,1,1.227,4.568l-.416.11-.483.161-.61.227-.7.279-.782.326-.845.364-1.853.814-1.989.879-2.039.877-1.032.43-1.015.409-.993.383-.97.354-.942.316-.9.269-.872.222-.85.163-.833.085-.872-.018-1-.233L2.306,128.5l-.843-1.011L.843,126.3l-.4-1.213-.254-1.23-.14-1.252L0,121.363l.007-1.222.052-1.189.083-1.122.1-1.04.1-.926.082-.778.042-.44.047-.557.052-.637.055-.683.058-.7.061-.7.063-.666.067-.612.068-.517.045-.273.051-.259.08-.3.083-.226.492-.753h.011v0l0,0,.044-.043.1-.088.113-.09.131-.091.151-.089.172-.084.193-.073.212-.058.227-.039.236-.016.237.009.231.033.218.054.2.071.18.083.158.09.072.047H4.58a2.209,2.209,0,0,1,.791,2.655l-.011.065-.055.422-.057.533-.058.62-.058.668-.056.69-.053.679-.051.645-.048.582-.044.493-.08.8-.09.9-.086.97-.069,1.014-.04,1.032,0,1.023.052.974.186-.544.713-2.084.816-2.335,1.326-2.166,1.2-1.936,1.2-1.935,1.264-2.032,1.486-1.954,1.421-1.864,1.42-1.864,1.428-1.874,1.446-1.856,1.41-1.835,1.367-1.832,1.314-1.83,1.239-1.83,1.153-1.838,1.061-1.843.944-1.849.832-1.9.349-.907.325-.94.288-.95.253-.955.211-.958.02-.112-.326.023-.365.039-2.518.515-3,.884-1.634.553-1.675.565-1.711.606-1.727.62-1.712.615-1.68.6-1.625.561-1.535.5-.753.235-.72.213-.691.191L6.9,87.1l-.645.146-.616.118-.6.09-.594.055-.589.009-.616-.052L2.557,87.3l-.892-.465-.811-.918L.47,84.869l-.1-.9.021-.854.1-.884.172-.959.455-1.919.628-2.133.732-2.2.4-1.123.4-1.1.4-1.075.4-1.043.394-1,.379-.936.359-.872.333-.791.3-.7.267-.6.227-.493.183-.375.962-1.9.959-1.9.959-1.9.955-1.892.944-1.907.947-1.914.947-1.915.943-1.906.927-1.917L16,45.843l.931-1.926L17.862,42l.911-1.926.915-1.934L20.6,36.2l.911-1.924.89-1.93.9-1.939.9-1.94.89-1.929.867-1.931.872-1.942.87-1.942.85-1.892,1.117-2.79,1.01-2.953,1.013-3.054.541-1.558L32.8,6.933,33.43,5.4,34.118,3.9l.772-1.475.824-1.351a2.237,2.237,0,1,1,3.816,2.337ZM2.063,111.178h0Zm.016.01.053.034.154.088.176.081.2.07.188.047a2.223,2.223,0,0,1-.767-.32m.9.341.124.018.233.009.232-.015.066-.011a2.227,2.227,0,0,1-.655,0m.92-.056.1-.028.189-.072.168-.082.018-.011a2.215,2.215,0,0,1-.477.193m.962-.554h0Zm-.12.11.093-.084.027-.027.023-.035a2.229,2.229,0,0,1-.17.167Z" transform="translate(0 0)" fill="#e0ee33"/>
            </g>
          </g>
        </g>
      </g>
      <rect id="Rectángulo_402774" data-name="Rectángulo 402774" width="441.888" height="358.116" fill="none"/>
    </g>
  </g>
</svg>
