<svg xmlns="http://www.w3.org/2000/svg" xmlns:xlink="http://www.w3.org/1999/xlink" width="112" height="112" viewBox="0 0 112 112">
  <defs>
    <filter id="Rect치ngulo_405217" x="0" y="0" width="112" height="112" filterUnits="userSpaceOnUse">
      <feOffset dx="6" dy="7" input="SourceAlpha"/>
      <feGaussianBlur stdDeviation="4" result="blur"/>
      <feFlood flood-opacity="0.251"/>
      <feComposite operator="in" in2="blur"/>
      <feComposite in="SourceGraphic"/>
    </filter>
  </defs>
  <g id="Grupo_1178943" data-name="Grupo 1178943" transform="translate(-844.051 -3407)">
    <g transform="matrix(1, 0, 0, 1, 844.05, 3407)" filter="url(#Rect치ngulo_405217)">
      <g id="Rect치ngulo_405217-2" data-name="Rect치ngulo 405217" transform="translate(6 5)" fill="#e0ee33" stroke="#fff" stroke-width="3">
        <path d="M0,0H59A29,29,0,0,1,88,29V59A29,29,0,0,1,59,88H29A29,29,0,0,1,0,59V0A0,0,0,0,1,0,0Z" stroke="none"/>
        <path d="M1.5,1.5H59A27.5,27.5,0,0,1,86.5,29V59A27.5,27.5,0,0,1,59,86.5H29A27.5,27.5,0,0,1,1.5,59V1.5A0,0,0,0,1,1.5,1.5Z" fill="none"/>
      </g>
    </g>
    <g id="Grupo_1178942" data-name="Grupo 1178942" transform="translate(838.733 3424)">
      <g id="Grupo_1178940" data-name="Grupo 1178940" transform="translate(27.249 0.931)">
        <path id="Trazado_1035217" data-name="Trazado 1035217" d="M66.157,31.332c-.6,10.589-1.659,24.955-2.336,35.646a2.4,2.4,0,0,1-2.392,2.238H57.323a2.4,2.4,0,0,1-2.39-2.225c-.451-6.277-1-13.922-1.453-20.187a16.72,16.72,0,0,1,.264-4.4l2.472-12.731a1.889,1.889,0,0,0-1.854-2.249H45.612a1.889,1.889,0,0,0-1.854,2.249L46.23,42.406a16.742,16.742,0,0,1,.264,4.4c-.452,6.265-1,13.911-1.453,20.187a2.4,2.4,0,0,1-2.39,2.225H38.545a2.4,2.4,0,0,1-2.392-2.238c-.682-10.717-1.723-24.953-2.335-35.562a23.635,23.635,0,0,1,4.458-14.159l5.932-8.234A3.67,3.67,0,0,1,47.185,7.5h5.6a3.671,3.671,0,0,1,2.977,1.524L61.7,17.258A23.642,23.642,0,0,1,66.157,31.332Z" transform="translate(-33.816 -7.5)" fill="#dc8758"/>
        <path id="Trazado_1035218" data-name="Trazado 1035218" d="M343.046,134.079v11.459l4.834,19.207-3.177,2.581a2.275,2.275,0,0,0-.816,2.1l1.25,8.522a1.251,1.251,0,0,0,2.09.733c3.147-2.92,9.4-10.065,9.407-20.726a60.593,60.593,0,0,0-1.829-15.287v-8.585a1.215,1.215,0,0,0-1.215-1.215h-9.33A1.215,1.215,0,0,0,343.046,134.079Z" transform="translate(-304.647 -117.297)" fill="#918291"/>
        <g id="Grupo_1178939" data-name="Grupo 1178939" transform="translate(5.105 0)">
          <path id="Trazado_1035219" data-name="Trazado 1035219" d="M300.249,8.325l-2.072,3.943a1.541,1.541,0,0,0,.5,1.99l2.54,1.732a4.2,4.2,0,0,0,2.366.73h5.608V10.24L302.156,7.6A1.541,1.541,0,0,0,300.249,8.325Z" transform="translate(-270.299 -7.5)" fill="#fbc56d"/>
          <path id="Trazado_1035220" data-name="Trazado 1035220" d="M397.029,8.325l2.072,3.943a1.541,1.541,0,0,1-.5,1.99l-2.54,1.732a4.2,4.2,0,0,1-2.366.73h-5.608V10.24L395.123,7.6A1.541,1.541,0,0,1,397.029,8.325Z" transform="translate(-349.203 -7.5)" fill="#fbc56d"/>
          <g id="Grupo_1178938" data-name="Grupo 1178938">
            <path id="Trazado_1035221" data-name="Trazado 1035221" d="M79.761,170.219a1.889,1.889,0,0,1,1.854-2.249H77.884a1.889,1.889,0,0,0-1.854,2.249L78.5,182.949a16.742,16.742,0,0,1,.264,4.4c-.452,6.265-1,13.911-1.453,20.187a2.4,2.4,0,0,1-2.39,2.225h3.731a2.4,2.4,0,0,0,2.39-2.225c.453-6.276,1-13.922,1.453-20.187a16.741,16.741,0,0,0-.265-4.4Z" transform="translate(-74.924 -148.043)" fill="#d37444"/>
            <path id="Trazado_1035222" data-name="Trazado 1035222" d="M169.2,17.258l-5.932-8.234A3.671,3.671,0,0,0,160.295,7.5h-3.731a3.671,3.671,0,0,1,2.977,1.524l5.932,8.234a23.642,23.642,0,0,1,4.459,14.074c-.6,10.589-1.659,24.955-2.336,35.646a2.4,2.4,0,0,1-2.392,2.238h3.731a2.4,2.4,0,0,0,2.392-2.238c.677-10.691,1.738-25.057,2.336-35.646A23.642,23.642,0,0,0,169.2,17.258Z" transform="translate(-146.426 -7.5)" fill="#d37444"/>
          </g>
          <path id="Trazado_1035223" data-name="Trazado 1035223" d="M368.74,142.662v-8.585a1.215,1.215,0,0,0-1.215-1.215H363.8a1.215,1.215,0,0,1,1.215,1.215v8.585a60.6,60.6,0,0,1,1.829,15.287,28.239,28.239,0,0,1-7.882,19.2l.116.789a1.251,1.251,0,0,0,2.09.733c3.147-2.92,9.4-10.065,9.407-20.726A60.6,60.6,0,0,0,368.74,142.662Z" transform="translate(-323.687 -117.296)" fill="#7a6d79"/>
          <path id="Trazado_1035224" data-name="Trazado 1035224" d="M412.339,12.268l-2.072-3.943a1.541,1.541,0,0,0-1.906-.726l-1.844.693c.006.011.014.022.02.033l2.072,3.943a1.541,1.541,0,0,1-.5,1.99l-2.54,1.732a4.2,4.2,0,0,1-2.366.73h3.731a4.2,4.2,0,0,0,2.366-.73l2.54-1.732A1.541,1.541,0,0,0,412.339,12.268Z" transform="translate(-362.441 -7.5)" fill="#e9b665"/>
        </g>
      </g>
      <g id="Grupo_1178941" data-name="Grupo 1178941" transform="translate(26.318 0)">
        <path id="Trazado_1035225" data-name="Trazado 1035225" d="M49.954,1.91A4.616,4.616,0,0,0,46.255,0H40.584a4.611,4.611,0,0,0-3.7,1.91l-5.932,8.234A24.73,24.73,0,0,0,26.32,24.861c0,.013,0,.027,0,.04.37,6.433.9,14.194,1.41,21.7.338,4.961.657,9.647.925,13.87a3.335,3.335,0,0,0,3.321,3.108h4.107a3.341,3.341,0,0,0,3.319-3.09c.175-2.422.364-5.048.556-7.721a.931.931,0,0,0-1.858-.134c-.192,2.672-.381,5.3-.556,7.72a1.471,1.471,0,0,1-1.462,1.361H31.977a1.468,1.468,0,0,1-1.462-1.365c-.269-4.225-.588-8.913-.926-13.876-.51-7.493-1.037-15.24-1.407-21.66a22.856,22.856,0,0,1,4.282-13.581L38.4,3a2.741,2.741,0,0,1,1.2-.936l-.022.28a.931.931,0,0,0,.855,1c.025,0,.05,0,.074,0a.931.931,0,0,0,.927-.858l.049-.627h3.883l.05.628a.931.931,0,0,0,.927.858l.074,0a.931.931,0,0,0,.855-1l-.022-.28a2.746,2.746,0,0,1,1.2.936l5.932,8.234a22.866,22.866,0,0,1,4.284,13.5c-.362,6.418-.894,14.216-1.409,21.759-.339,4.966-.659,9.656-.925,13.857a1.469,1.469,0,0,1-1.462,1.368H50.756a1.472,1.472,0,0,1-1.462-1.361c-.3-4.157-.641-8.914-.969-13.472l-.484-6.715a15.781,15.781,0,0,1,.25-4.152l2.472-12.731a2.82,2.82,0,0,0-1.9-3.219l-.06-.766a.931.931,0,1,0-1.857.146l.038.481H40.052l.038-.481a.931.931,0,0,0-1.857-.146l-.06.766a2.82,2.82,0,0,0-1.9,3.219l2.472,12.731A15.813,15.813,0,0,1,39,40.168l-.584,8.12a.931.931,0,0,0,1.858.134l.585-8.12a17.668,17.668,0,0,0-.279-4.641L38.1,22.93a.958.958,0,0,1,.94-1.14H47.8a.958.958,0,0,1,.94,1.14L46.263,35.66a17.652,17.652,0,0,0-.279,4.642l.484,6.715c.328,4.559.671,9.316.969,13.472a3.341,3.341,0,0,0,3.319,3.09h4.106a3.337,3.337,0,0,0,3.321-3.11c.266-4.2.586-8.887.924-13.851.516-7.556,1.049-15.369,1.412-21.8,0-.014,0-.028,0-.042a24.741,24.741,0,0,0-4.635-14.629Z" transform="translate(-26.318 0)"/>
        <path id="Trazado_1035226" data-name="Trazado 1035226" d="M349.166,127.51a2.149,2.149,0,0,0-2.146-2.146h-9.33a2.149,2.149,0,0,0-2.146,2.146v7.083a.931.931,0,1,0,1.863,0V127.51a.284.284,0,0,1,.283-.283h3.447v2.049a.931.931,0,1,0,1.863,0v-2.049h4.02a.284.284,0,0,1,.283.283v8.585a.937.937,0,0,0,.036.258,60.333,60.333,0,0,1,1.793,15.029,25.9,25.9,0,0,1-3.406,12.81,30.163,30.163,0,0,1-5.7,7.234.31.31,0,0,1-.326.068.306.306,0,0,1-.209-.254l-1.25-8.522a1.349,1.349,0,0,1,.482-1.238L341.9,158.9a.931.931,0,0,0,.316-.95l-4.834-19.207a.931.931,0,0,0-1.806.455l4.69,18.631-2.716,2.207a3.221,3.221,0,0,0-1.151,2.954l1.25,8.522a2.182,2.182,0,0,0,3.645,1.28,32.046,32.046,0,0,0,6.06-7.687A27.743,27.743,0,0,0,351,151.382a61.855,61.855,0,0,0-1.829-15.415V127.51Z" transform="translate(-297.145 -109.797)"/>
        <path id="Trazado_1035227" data-name="Trazado 1035227" d="M314.452,5.27l-2.072-3.943A2.477,2.477,0,0,0,309.321.162l-6.7,2.518-6.7-2.518a2.476,2.476,0,0,0-3.058,1.165L290.782,5.27a2.472,2.472,0,0,0,.8,3.193l2.54,1.732a5.11,5.11,0,0,0,2.89.892h11.215a5.109,5.109,0,0,0,2.89-.892l2.54-1.732a2.472,2.472,0,0,0,.8-3.193ZM295.168,8.656l-2.54-1.732a.61.61,0,0,1-.2-.788L294.5,2.193a.611.611,0,0,1,.754-.287l6.428,2.414v4.9h-4.676A3.257,3.257,0,0,1,295.168,8.656Zm17.438-1.732-2.54,1.732a3.257,3.257,0,0,1-1.841.568h-4.677V4.32l6.428-2.414a.611.611,0,0,1,.754.287L312.8,6.136A.61.61,0,0,1,312.606,6.924Z" transform="translate(-257.693 -0.004)"/>
        <path id="Trazado_1035228" data-name="Trazado 1035228" d="M124.947,96.849l-.206,2.609a.931.931,0,0,0,.855,1c.025,0,.05,0,.074,0a.931.931,0,0,0,.927-.858L126.8,97a.931.931,0,0,0-1.857-.146Z" transform="translate(-112.517 -84.071)"/>
        <path id="Trazado_1035229" data-name="Trazado 1035229" d="M129.818,47.943a.931.931,0,0,0,.927-.858l.206-2.609a.931.931,0,1,0-1.857-.146l-.206,2.609a.931.931,0,0,0,.855,1C129.768,47.942,129.793,47.943,129.818,47.943Z" transform="translate(-116.149 -38.073)"/>
        <path id="Trazado_1035230" data-name="Trazado 1035230" d="M187.543,95.994a.931.931,0,0,0-.855,1l.206,2.609a.931.931,0,0,0,.927.858l.074,0a.931.931,0,0,0,.855-1l-.206-2.609A.932.932,0,0,0,187.543,95.994Z" transform="translate(-166.771 -84.072)"/>
        <path id="Trazado_1035231" data-name="Trazado 1035231" d="M184.4,44.329a.931.931,0,0,0-1.857.146l.206,2.609a.931.931,0,0,0,.927.858l.074,0a.931.931,0,0,0,.855-1Z" transform="translate(-163.139 -38.073)"/>
        <path id="Trazado_1035232" data-name="Trazado 1035232" d="M400.742,303.945a.931.931,0,1,0-1.813.428l.685,2.9a.931.931,0,0,0,1.813-.428Z" transform="translate(-352.637 -265.574)"/>
        <path id="Trazado_1035233" data-name="Trazado 1035233" d="M412.729,362.765l.685,2.9a.931.931,0,1,0,1.813-.428l-.685-2.9a.931.931,0,0,0-1.813.428Z" transform="translate(-364.724 -316.715)"/>
        <path id="Trazado_1035234" data-name="Trazado 1035234" d="M381.521,185.363a.931.931,0,0,0-.931.931v2.98a.931.931,0,0,0,1.863,0v-2.98A.931.931,0,0,0,381.521,185.363Z" transform="translate(-336.597 -162.345)"/>
        <path id="Trazado_1035235" data-name="Trazado 1035235" d="M386.943,245.552a.931.931,0,0,0-1.813.428l.685,2.9a.931.931,0,0,0,1.813-.428Z" transform="translate(-340.552 -214.432)"/>
      </g>
    </g>
  </g>
</svg>
