<svg xmlns="http://www.w3.org/2000/svg" width="74" height="74" viewBox="0 0 74 74">
  <g id="Grupo_1178836" data-name="Grupo 1178836" transform="translate(-250.051 -2878.019)">
    <path id="Rectángulo_401369" data-name="Rectángulo 401369" d="M0,0H45A29,29,0,0,1,74,29V45A29,29,0,0,1,45,74H29A29,29,0,0,1,0,45V0A0,0,0,0,1,0,0Z" transform="translate(250.051 2878.019)" fill="#adeeee"/>
    <g id="Grupo_1178835" data-name="Grupo 1178835" transform="translate(261.985 2889.736)">
      <path id="Trazado_1034953" data-name="Trazado 1034953" d="M125.41,7.5l-.176,0-.985,49.082a7.4,7.4,0,0,0,6.025-3.1l3.358-4.689a11.477,11.477,0,0,0,2.147-6.7V17.87A10.37,10.37,0,0,0,125.41,7.5Z" transform="translate(-111.979 -6.759)" fill="#ffd185"/>
      <path id="Trazado_1034954" data-name="Trazado 1034954" d="M20.015,7.521a10.371,10.371,0,0,0-10.139,9.3L7.569,39.284A13.154,13.154,0,0,0,7.5,40.628a12.95,12.95,0,0,0,1.774,6.562l3.361,5.741a7.4,7.4,0,0,0,6.4,3.671,5.25,5.25,0,0,0,4.477-3.1L26,48.812a14.333,14.333,0,0,0,1.6-6.7V30.559l-2.963-6.282L27.6,18v-.107c0-5.672-3.384-10.28-7.583-10.368Z" transform="translate(-6.759 -6.778)" fill="#ffe8c2"/>
      <path id="Trazado_1034955" data-name="Trazado 1034955" d="M135.7,37.5l4.474,10.276,2.963.267V45.014A7.515,7.515,0,0,0,135.7,37.5Z" transform="translate(-122.3 -33.796)" fill="#ff7a3c"/>
      <path id="Trazado_1034956" data-name="Trazado 1034956" d="M66.346,37.5a7.381,7.381,0,0,0-7.338,6.638l-.262,2.551L70.82,47.775V45.014c0-4.09-2.013-7.53-4.474-7.514Z" transform="translate(-52.944 -33.796)" fill="#ff9a42"/>
      <path id="Trazado_1034957" data-name="Trazado 1034957" d="M151.167,80.037l-2.751,17.585,2.963.256a2.963,2.963,0,0,0,3.218-2.952V86.379A7.572,7.572,0,0,0,151.167,80.037Z" transform="translate(-133.758 -72.132)" fill="#ff9a42"/>
      <path id="Trazado_1034958" data-name="Trazado 1034958" d="M62.495,72.051a11.714,11.714,0,0,0-.467-3.313,7.577,7.577,0,0,0-11.607,4.988l-.9,8.732a2.963,2.963,0,0,0,2.692,3.254l7.06.61v-.011a2.963,2.963,0,0,0,3.218-2.952Z" transform="translate(-44.619 -60.834)" fill="#ffba48"/>
      <path id="Trazado_1034959" data-name="Trazado 1034959" d="M388.622,39.265,386.315,16.8A10.371,10.371,0,0,0,376,7.5l1.16,49.084a7.4,7.4,0,0,0,6.4-3.671l3.361-5.741a12.95,12.95,0,0,0,1.774-6.562A13.175,13.175,0,0,0,388.622,39.265Z" transform="translate(-338.866 -6.759)" fill="#ffd185"/>
      <path id="Trazado_1034960" data-name="Trazado 1034960" d="M287.282,52.913l2.5-5.741a16.5,16.5,0,0,0,1.318-6.562q0-.681-.051-1.345L289.9,28.384l-3.57-5.641,2.411-5.641-.015-.3c-.382-5.224-3.528-9.3-7.352-9.3A10.37,10.37,0,0,0,271,17.87V42.091a11.478,11.478,0,0,0,2.147,6.7l3.358,4.689a7.4,7.4,0,0,0,6.025,3.1c2.027,0,3.8-1.476,4.752-3.672Z" transform="translate(-244.236 -6.759)" fill="#ffe8c2"/>
      <path id="Trazado_1034961" data-name="Trazado 1034961" d="M383.637,44.138A7.381,7.381,0,0,0,376.3,37.5l4.666,9.453,2.934-.264Z" transform="translate(-339.135 -33.796)" fill="#ff7a3c"/>
      <path id="Trazado_1034962" data-name="Trazado 1034962" d="M308.437,37.5A7.515,7.515,0,0,0,301,45.014v3.028l12.1-1.09-.291-2.815C312.581,40.363,310.7,37.514,308.437,37.5Z" transform="translate(-271.273 -33.796)" fill="#ff9a42"/>
      <path id="Trazado_1034963" data-name="Trazado 1034963" d="M412.69,91.535l-.9-8.732a7.589,7.589,0,0,0-3.7-5.231l-.839,17.455L410,94.79A2.963,2.963,0,0,0,412.69,91.535Z" transform="translate(-367.03 -69.911)" fill="#ff9a42"/>
      <path id="Trazado_1034964" data-name="Trazado 1034964" d="M314,82.717l-1.191-11.542a11.358,11.358,0,0,0-.48-2.68A7.579,7.579,0,0,0,301,75.08v8.547a2.963,2.963,0,0,0,3.218,2.952l7.275-.629A2.962,2.962,0,0,0,314,82.717Z" transform="translate(-271.273 -60.834)" fill="#ffba48"/>
      <circle id="Elipse_11705" data-name="Elipse 11705" cx="0.741" cy="0.741" r="0.741" transform="translate(2.963 33.11)"/>
      <circle id="Elipse_11706" data-name="Elipse 11706" cx="0.741" cy="0.741" r="0.741" transform="translate(43.158 39.035)"/>
      <circle id="Elipse_11707" data-name="Elipse 11707" cx="0.741" cy="0.741" r="0.741" transform="translate(5.926 36.072)"/>
      <path id="Trazado_1034965" data-name="Trazado 1034965" d="M13.431,0A11.112,11.112,0,0,0,2.38,9.963L.073,32.43A13.978,13.978,0,0,0,0,33.85a13.744,13.744,0,0,0,1.876,6.936l3.361,5.741a8.145,8.145,0,0,0,13.662.627l3.358-4.689a12.187,12.187,0,0,0,2.286-7.133V11.111A11.123,11.123,0,0,0,13.431,0Zm9.629,35.332A10.714,10.714,0,0,1,21.052,41.6l-3.358,4.689a6.664,6.664,0,0,1-11.179-.513L3.154,40.038A12.26,12.26,0,0,1,1.481,33.85a12.462,12.462,0,0,1,.065-1.269L3.853,10.114a9.629,9.629,0,0,1,19.207,1Z"/>
      <path id="Trazado_1034966" data-name="Trazado 1034966" d="M51.257,30a8.126,8.126,0,0,0-8.072,7.3L42.026,48.585a3.7,3.7,0,0,0,3.365,4.068.741.741,0,0,0,.128-1.476A2.222,2.222,0,0,1,43.5,48.736l.893-8.7a6.838,6.838,0,0,1,13.563,1.244V49.83a2.222,2.222,0,0,1-2.414,2.214l-7.071-.611a.741.741,0,0,0-.128,1.476l7.071.611q.159.014.317.014a3.7,3.7,0,0,0,3.706-3.7V38.254a8.244,8.244,0,0,0-2.455-5.875A8.02,8.02,0,0,0,51.257,30Zm-.141,2.963a8.308,8.308,0,0,0-5.923,2.475,6.651,6.651,0,0,1,6.069-3.956h.025a6.558,6.558,0,0,1,4.648,1.948,6.847,6.847,0,0,1,1.654,2.636A8.307,8.307,0,0,0,51.116,32.962Z" transform="translate(-37.857 -27.037)"/>
      <path id="Trazado_1034967" data-name="Trazado 1034967" d="M287.969,32.43,285.662,9.963A11.111,11.111,0,0,0,263.5,11.111V35.332a12.187,12.187,0,0,0,2.286,7.134l3.357,4.689a8.145,8.145,0,0,0,13.662-.627l3.361-5.741a13.744,13.744,0,0,0,1.876-6.936A13.975,13.975,0,0,0,287.969,32.43Zm-3.082,7.608-3.361,5.741a6.664,6.664,0,0,1-11.179.513L266.991,41.6a10.714,10.714,0,0,1-2.009-6.271V11.111a9.629,9.629,0,0,1,19.207-1L286.5,32.581a12.459,12.459,0,0,1,.065,1.269A12.26,12.26,0,0,1,284.888,40.038Z" transform="translate(-237.477 0)"/>
      <path id="Trazado_1034968" data-name="Trazado 1034968" d="M309.752,37.3A8.126,8.126,0,0,0,301.68,30h-.031a8.029,8.029,0,0,0-5.694,2.38,8.244,8.244,0,0,0-2.455,5.875V49.831a3.7,3.7,0,0,0,3.706,3.7c.105,0,.211,0,.317-.014l10.023-.867a3.7,3.7,0,0,0,3.365-4.068ZM297,33.43a6.557,6.557,0,0,1,4.649-1.948h.025a6.651,6.651,0,0,1,6.069,3.956,8.316,8.316,0,0,0-12.4.627A6.846,6.846,0,0,1,297,33.43ZM308.939,50.38a2.206,2.206,0,0,1-1.521.8l-10.023.867a2.222,2.222,0,0,1-2.414-2.214V41.283a6.838,6.838,0,0,1,13.563-1.244l.893,8.7A2.206,2.206,0,0,1,308.939,50.38Z" transform="translate(-264.514 -27.037)"/>
    </g>
  </g>
</svg>
