<svg xmlns="http://www.w3.org/2000/svg" xmlns:xlink="http://www.w3.org/1999/xlink" width="112" height="112" viewBox="0 0 112 112">
  <defs>
    <filter id="Rect치ngulo_405217" x="0" y="0" width="112" height="112" filterUnits="userSpaceOnUse">
      <feOffset dx="6" dy="7" input="SourceAlpha"/>
      <feGaussianBlur stdDeviation="4" result="blur"/>
      <feFlood flood-opacity="0.251"/>
      <feComposite operator="in" in2="blur"/>
      <feComposite in="SourceGraphic"/>
    </filter>
  </defs>
  <g id="Grupo_1178995" data-name="Grupo 1178995" transform="translate(6 5)">
    <g transform="matrix(1, 0, 0, 1, -6, -5)" filter="url(#Rect치ngulo_405217)">
      <g id="Rect치ngulo_405217-2" data-name="Rect치ngulo 405217" transform="translate(6 5)" fill="#e0ee33" stroke="#fff" stroke-width="3">
        <path d="M0,0H59A29,29,0,0,1,88,29V59A29,29,0,0,1,59,88H29A29,29,0,0,1,0,59V0A0,0,0,0,1,0,0Z" stroke="none"/>
        <path d="M1.5,1.5H59A27.5,27.5,0,0,1,86.5,29V59A27.5,27.5,0,0,1,59,86.5H29A27.5,27.5,0,0,1,1.5,59V1.5A0,0,0,0,1,1.5,1.5Z" fill="none"/>
      </g>
    </g>
    <g id="Grupo_1178994" data-name="Grupo 1178994" transform="translate(14.102 28.509)">
      <g id="Icons" transform="translate(0.995 1)">
        <path id="Trazado_1035332" data-name="Trazado 1035332" d="M58.75,35.63c-1.29,2.48-6.37,4.44-9.72,5.51a18.741,18.741,0,0,1-5.67.86H12.62a28.118,28.118,0,0,1-4.8-.82,12.072,12.072,0,0,1-6.09-3.29,2.962,2.962,0,0,1-.41-3.3l.76-1.52.79.4a30.976,30.976,0,0,0,9.29,3.37,15.719,15.719,0,0,0,4.84.13c.88-.13,1.68-.27,2.44-.41,4.27-.81,7.1-1.68,14.6-.1,1.62.35,3.47.81,5.59,1.41.12.03.25.06.37.1,8.74,2.5,15.15-.07,18.72-2.36Z" transform="translate(-0.996 -14)" fill="#f5f5f5"/>
        <path id="Trazado_1035333" data-name="Trazado 1035333" d="M58.72,35.61a21.419,21.419,0,0,1-5.712,2.56,34.331,34.331,0,0,1-6.978,2.97,18.741,18.741,0,0,1-5.67.86h3a18.741,18.741,0,0,0,5.67-.86c3.35-1.07,8.43-3.03,9.72-5.51Z" transform="translate(-0.996 -14)" fill="#cfd8dc"/>
        <path id="Trazado_1035334" data-name="Trazado 1035334" d="M29,20,12.16,36.84a30.976,30.976,0,0,1-9.29-3.37l-.79-.4L3.62,30a24.852,24.852,0,0,0,1-8c0-2,0-6,3-1S17,27,21,21a.866.866,0,0,1,.07-.1c2.41-3.54,4.81-3.12,6.33-2.24l.01.01A6.3,6.3,0,0,1,29,20Z" transform="translate(-0.996 -14)" fill="#673ab7"/>
        <path id="Trazado_1035335" data-name="Trazado 1035335" d="M33.34,22.66l-13.9,13.9c-.76.14-1.56.28-2.44.41a15.719,15.719,0,0,1-4.84-.13L29,20c1.54.99,2.98,1.87,4.34,2.66Z" transform="translate(-0.996 -14)" fill="#f5f5f5"/>
        <path id="Trazado_1035336" data-name="Trazado 1035336" d="M29,20l-1.157,1.157c.859.531,1.7,1.038,2.5,1.5l-13.9,13.9c-.76.14-1.56.28-2.44.41-.163.023-.329.03-.493.047A14.574,14.574,0,0,0,17,36.97c.88-.13,1.68-.27,2.44-.41l13.9-13.9c-1.36-.79-2.8-1.67-4.34-2.66Z" transform="translate(-0.996 -14)" fill="#cfd8dc"/>
        <path id="Trazado_1035337" data-name="Trazado 1035337" d="M43.12,27.38l-9.08,9.08c-7.5-1.58-10.33-.71-14.6.1l13.9-13.9a62.388,62.388,0,0,0,9.78,4.72Z" transform="translate(-0.996 -14)" fill="#673ab7"/>
        <path id="Trazado_1035338" data-name="Trazado 1035338" d="M33.34,22.66l-1.078,1.078A58.091,58.091,0,0,0,40.12,27.38l-8.61,8.61c.783.124,1.621.278,2.53.47l9.08-9.08a62.388,62.388,0,0,1-9.78-4.72Z" transform="translate(-0.996 -14)" fill="#4527a0"/>
        <path id="Trazado_1035339" data-name="Trazado 1035339" d="M48.51,28.99l-8.88,8.88c-2.12-.6-3.97-1.06-5.59-1.41l9.08-9.08a38.622,38.622,0,0,0,5.39,1.61Z" transform="translate(-0.996 -14)" fill="#f5f5f5"/>
        <path id="Trazado_1035340" data-name="Trazado 1035340" d="M43.12,27.38l-.765.765c1.137.354,2.188.629,3.155.845l-8.242,8.242c.751.194,1.53.4,2.362.638l8.88-8.88a38.622,38.622,0,0,1-5.39-1.61Z" transform="translate(-0.996 -14)" fill="#cfd8dc"/>
        <path id="Trazado_1035341" data-name="Trazado 1035341" d="M59,35a2.755,2.755,0,0,1-.25.63l-.03-.02C55.15,37.9,48.74,40.47,40,37.97c-.12-.04-.25-.07-.37-.1l8.88-8.88c2.1.46,3.85.68,5.49,1.01C59,31,59,35,59,35Z" transform="translate(-0.996 -14)" fill="#673ab7"/>
        <path id="Trazado_1035342" data-name="Trazado 1035342" d="M54,30c-1.64-.33-3.39-.55-5.49-1.01l-.483.483c1.054.182,2.036.338,2.973.527,5,1,5,5,5,5a2.755,2.755,0,0,1-.25.63l-.03-.02a21.473,21.473,0,0,1-10.165,3.329A21.647,21.647,0,0,0,58.72,35.61l.03.02A2.755,2.755,0,0,0,59,35S59,31,54,30Z" transform="translate(-0.996 -14)" fill="#4527a0"/>
        <path id="Trazado_1035343" data-name="Trazado 1035343" d="M27.4,18.66c-1.52-.88-3.92-1.3-6.33,2.24a4.99,4.99,0,0,1-.68-5.82,1.988,1.988,0,0,1,3.23-.44Z" transform="translate(-0.996 -14)" fill="#673ab7"/>
        <g id="Grupo_1178993" data-name="Grupo 1178993" transform="translate(18.955 0.004)">
          <path id="Trazado_1035344" data-name="Trazado 1035344" d="M23.62,14.64a2.007,2.007,0,0,0-2.966.037l3.388,3.6a3.876,3.876,0,0,1,3.358.381Z" transform="translate(-19.951 -14.004)" fill="#4527a0"/>
          <path id="Trazado_1035345" data-name="Trazado 1035345" d="M19.951,18.873A5.265,5.265,0,0,0,21.07,20.9a6.741,6.741,0,0,1,2.746-2.53,3.766,3.766,0,0,0-3.865.5Z" transform="translate(-19.951 -14.004)" fill="#4527a0"/>
        </g>
      </g>
      <g id="Outlines">
        <path id="Trazado_1035346" data-name="Trazado 1035346" d="M54.2,29.017c-.691-.14-1.4-.26-2.151-.386-1.042-.175-2.119-.357-3.318-.62a37.528,37.528,0,0,1-5.264-1.573,61.519,61.519,0,0,1-9.621-4.646c-1.348-.782-2.753-1.643-4.179-2.557a7.455,7.455,0,0,0-1.612-1.344l-3.7-3.939a3.032,3.032,0,0,0-2.668-.917,2.88,2.88,0,0,0-2.189,1.6,5.974,5.974,0,0,0,.335,6.27,6.964,6.964,0,0,1-5.69,3.222A6.982,6.982,0,0,1,8.484,20.48c-1.016-1.691-2.134-3.207-3.432-2.848-1.432.4-1.432,2.5-1.432,4.368a24.147,24.147,0,0,1-.927,7.617l-1.506,3-.76,1.52a3.98,3.98,0,0,0,.56,4.416,13.217,13.217,0,0,0,6.573,3.59A29.2,29.2,0,0,0,12.62,43H43.36a19.753,19.753,0,0,0,5.975-.907c5.706-1.824,9.171-3.84,10.3-5.993V36.1a3.665,3.665,0,0,0,.336-.859A1,1,0,0,0,60,35c0-1.67-1.213-5.065-5.8-5.983Zm-.4,1.961c3.677.735,4.133,3.3,4.188,3.9a21.038,21.038,0,0,1-16.42,2.455l7.268-7.267c1.023.21,1.972.378,2.875.531.729.129,1.42.245,2.089.381Zm-24.661-9.71q1.311.831,2.583,1.589L18.956,35.628c-.661.119-1.348.238-2.1.35a13.085,13.085,0,0,1-2.515.091Zm4.37,2.63a65.818,65.818,0,0,0,7.824,3.848l-7.626,7.626a35.108,35.108,0,0,0-6.935-.792,25.119,25.119,0,0,0-4.341.4Zm9.866,4.634c1.054.381,2.1.712,3.172,1l-7.216,7.216c-1.149-.318-2.256-.606-3.312-.86ZM21.29,15.513a.9.9,0,0,1,.693-.5,1.036,1.036,0,0,1,.909.31l1.689,1.8A5.831,5.831,0,0,0,21.133,19.2a4.056,4.056,0,0,1,.157-3.687ZM4.514,30.445a.892.892,0,0,0,.054-.132A25.719,25.719,0,0,0,5.62,22a18.146,18.146,0,0,1,.08-2.03,11.879,11.879,0,0,1,1.059,1.542,8.961,8.961,0,0,0,7.326,4.616h.186c2.908,0,5.584-1.62,7.557-4.579l.018-.028c.017-.023.038-.051.046-.064,1.572-2.308,3.19-2.954,4.947-1.97a.535.535,0,0,0,.064.041,5.147,5.147,0,0,1,.672.473L11.832,35.751a30.72,30.72,0,0,1-8.413-3.123Zm44.215,9.739A17.736,17.736,0,0,1,43.36,41H12.71a27.239,27.239,0,0,1-4.633-.79,11.14,11.14,0,0,1-5.6-2.993,1.965,1.965,0,0,1-.259-2.184l.309-.618A32,32,0,0,0,12,37.822a16.67,16.67,0,0,0,5.153.134c.893-.133,1.7-.274,2.481-.417l1.16-.226c3.6-.71,6.438-1.271,13.042.121,1.685.363,3.545.833,5.611,1.416.081.019.165.039.285.078A26.668,26.668,0,0,0,47.074,40a22.854,22.854,0,0,0,2.7-.174c-.346.122-.682.242-1.045.358Z" transform="translate(0 -13)"/>
      </g>
    </g>
  </g>
</svg>
