<svg xmlns="http://www.w3.org/2000/svg" xmlns:xlink="http://www.w3.org/1999/xlink" width="112" height="112" viewBox="0 0 112 112">
  <defs>
    <filter id="Rect치ngulo_405217" x="0" y="0" width="112" height="112" filterUnits="userSpaceOnUse">
      <feOffset dx="6" dy="7" input="SourceAlpha"/>
      <feGaussianBlur stdDeviation="4" result="blur"/>
      <feFlood flood-opacity="0.251"/>
      <feComposite operator="in" in2="blur"/>
      <feComposite in="SourceGraphic"/>
    </filter>
  </defs>
  <g id="Grupo_1178964" data-name="Grupo 1178964" transform="translate(-216.051 -8375)">
    <g transform="matrix(1, 0, 0, 1, 216.05, 8375)" filter="url(#Rect치ngulo_405217)">
      <g id="Rect치ngulo_405217-2" data-name="Rect치ngulo 405217" transform="translate(6 5)" fill="#cb98f5" stroke="#fff" stroke-width="3">
        <path d="M0,0H59A29,29,0,0,1,88,29V59A29,29,0,0,1,59,88H29A29,29,0,0,1,0,59V0A0,0,0,0,1,0,0Z" stroke="none"/>
        <path d="M1.5,1.5H59A27.5,27.5,0,0,1,86.5,29V59A27.5,27.5,0,0,1,59,86.5H29A27.5,27.5,0,0,1,1.5,59V1.5A0,0,0,0,1,1.5,1.5Z" fill="none"/>
      </g>
    </g>
    <g id="Grupo_1178969" data-name="Grupo 1178969" transform="translate(221.667 8391.766)">
      <g id="Grupo_1178967" data-name="Grupo 1178967" transform="translate(21.134 0.832)">
        <path id="Trazado_1035287" data-name="Trazado 1035287" d="M69.728,9.572v43.61L60.3,62.612H29.875A2.072,2.072,0,0,1,27.8,60.54V9.572A2.072,2.072,0,0,1,29.875,7.5h37.78A2.072,2.072,0,0,1,69.728,9.572Z" transform="translate(-27.803 -7.5)" fill="#fbf0f1"/>
        <path id="Trazado_1035288" data-name="Trazado 1035288" d="M301.5,7.5h-3.331a2.072,2.072,0,0,1,2.072,2.072v43.61l-9.429,9.43h3.331l9.429-9.43V9.572A2.072,2.072,0,0,0,301.5,7.5Z" transform="translate(-261.645 -7.5)" fill="#f3e4df"/>
        <g id="Grupo_1178965" data-name="Grupo 1178965" transform="translate(25.852 0.496)">
          <path id="Trazado_1035289" data-name="Trazado 1035289" d="M283.062,38.978,265.6,56.442l-4.662,1.382,1.382-4.662L279.782,35.7Z" transform="translate(-260.935 -33.067)" fill="#6c7fd8"/>
          <path id="Trazado_1035290" data-name="Trazado 1035290" d="M265.6,196.471l-4.662,1.382,1.382-4.662A3.662,3.662,0,0,1,265.6,196.471Z" transform="translate(-260.934 -173.096)" fill="#fdd89c"/>
          <path id="Trazado_1035291" data-name="Trazado 1035291" d="M265.6,196.471l-4.662,1.382,1.382-4.662A3.662,3.662,0,0,1,265.6,196.471Z" transform="translate(-260.934 -173.096)" fill="#fdd89c"/>
          <path id="Trazado_1035292" data-name="Trazado 1035292" d="M430.895,14.6l3.28,3.28,2.249-2.249a1.306,1.306,0,0,0,0-1.847l-1.433-1.433a1.306,1.306,0,0,0-1.847,0Z" transform="translate(-412.048 -11.972)" fill="#fe646f"/>
          <path id="Trazado_1035293" data-name="Trazado 1035293" d="M448.961,13.787l-1.433-1.433a1.306,1.306,0,0,0-1.847,0l-.685.685.687.637a1.306,1.306,0,0,1,0,1.847l-.663.667,1.693,1.693,2.248-2.249A1.306,1.306,0,0,0,448.961,13.787Z" transform="translate(-424.585 -11.972)" fill="#fd4755"/>
          <path id="Trazado_1035294" data-name="Trazado 1035294" d="M281.369,50.01,260.935,70.549l4.662-1.382L283.062,51.7Z" transform="translate(-260.935 -45.792)" fill="#4f66d0"/>
          <path id="Trazado_1035295" data-name="Trazado 1035295" d="M265.6,196.471l-4.662,1.382,1.382-4.662A3.662,3.662,0,0,1,265.6,196.471Z" transform="translate(-260.934 -173.096)" fill="#fdd89c"/>
          <path id="Trazado_1035296" data-name="Trazado 1035296" d="M260.935,206.175l4.662-1.382a3.745,3.745,0,0,0-1.057-2.242Z" transform="translate(-260.935 -181.418)" fill="#fbc56d"/>
        </g>
        <path id="Trazado_1035297" data-name="Trazado 1035297" d="M320.852,428.89v-7.358a2.072,2.072,0,0,1,2.072-2.072h7.357Z" transform="translate(-288.356 -373.778)" fill="#cdbfba"/>
        <g id="Grupo_1178966" data-name="Grupo 1178966" transform="translate(9.955 20.945)">
          <path id="Trazado_1035298" data-name="Trazado 1035298" d="M117.579,198.313v8.053h22.7v-1.142c0-2.116-2.751-4.486-5.7-4.486-3.767,0-7.144-1.6-8.668-3.607a1.911,1.911,0,0,0-1.523-.747h-4.882A1.928,1.928,0,0,0,117.579,198.313Z" transform="translate(-117.579 -196.385)" fill="#cdbfba"/>
          <path id="Trazado_1035299" data-name="Trazado 1035299" d="M117.579,286.391h22.7v2.2a1.044,1.044,0,0,1-1.044,1.044H118.623a1.044,1.044,0,0,1-1.044-1.044v-2.2Z" transform="translate(-117.579 -276.41)" fill="#e5d5d0"/>
        </g>
      </g>
      <g id="Grupo_1178968" data-name="Grupo 1178968" transform="translate(20.302)">
        <path id="Trazado_1035300" data-name="Trazado 1035300" d="M72.575,4.066a2.123,2.123,0,0,0-.626-1.511L70.516,1.122a2.14,2.14,0,0,0-3.023,0l-3.6,3.6V2.9a2.907,2.907,0,0,0-2.9-2.9H23.206a2.908,2.908,0,0,0-2.9,2.9V45.672a.832.832,0,1,0,1.663,0V2.9a1.242,1.242,0,0,1,1.241-1.241h37.78A1.242,1.242,0,0,1,62.227,2.9V6.388l-8.4,8.4h-.986a.831.831,0,0,0-.505,1.491L47.78,20.835a.84.84,0,0,0-.209.352l-1.183,3.991a9.833,9.833,0,0,1-6.3-3.157A2.757,2.757,0,0,0,37.9,20.945H33.017a2.763,2.763,0,0,0-2.76,2.76V33.954a1.878,1.878,0,0,0,1.876,1.876H52.746a1.878,1.878,0,0,0,1.876-1.876V30.616c0-1.946-1.7-3.865-3.894-4.773l1.156-.343a.865.865,0,0,0,.352-.209L62.227,15.3V45.682H55.7a2.907,2.907,0,0,0-2.9,2.9v6.526H23.206a1.242,1.242,0,0,1-1.241-1.241v-4.3a.832.832,0,0,0-1.663,0v4.3a2.908,2.908,0,0,0,2.9,2.9H53.63a.836.836,0,0,0,.588-.244l9.429-9.43a.853.853,0,0,0,.243-.588V13.293a.837.837,0,0,0-1.42-.588L52.052,23.123a4.356,4.356,0,0,0-2.1-2.106l4.809-4.809h0L65.833,5.135l2.1,2.1L65.231,9.944a.832.832,0,0,0,1.176,1.176l5.542-5.542a2.123,2.123,0,0,0,.626-1.512ZM31.921,33.954V32.59h4.6v1.577H32.134a.213.213,0,0,1-.213-.213Zm21.038,0a.213.213,0,0,1-.213.213H38.186V32.59H52.959v1.365Zm0-3.338v.31H31.921V23.705a1.1,1.1,0,0,1,1.1-1.1H37.9a1.085,1.085,0,0,1,.861.418,8.007,8.007,0,0,0,1.731,1.643l-1.143,1.473a.832.832,0,0,0,1.314,1.02l1.267-1.631a12.864,12.864,0,0,0,1.662.691l-.96,1.164a.832.832,0,0,0,1.283,1.059l1.447-1.753a14.657,14.657,0,0,0,2.731.27C50.216,26.962,52.959,28.734,52.959,30.616Zm1.5,17.97A1.242,1.242,0,0,1,55.7,47.346h5.349l-6.59,6.59Zm-3.8-24.46-2.446.725.728-2.456A2.69,2.69,0,0,1,50.665,24.127ZM70.773,4.4l-1.66,1.66-2.1-2.1,1.66-1.66a.475.475,0,0,1,.671,0l1.433,1.433a.474.474,0,0,1,0,.671Z" transform="translate(-20.302)"/>
        <path id="Trazado_1035301" data-name="Trazado 1035301" d="M60.46,335.983h.609v.609a.832.832,0,1,0,1.663,0v-.609h2.826a.832.832,0,0,0,0-1.663H62.732v-2.826a.832.832,0,0,0-1.663,0v2.826H60.46a.832.832,0,0,0,0,1.663Z" transform="translate(-55.267 -293.995)"/>
        <path id="Trazado_1035302" data-name="Trazado 1035302" d="M317.57,330.662a.832.832,0,0,0-.832.832v2.826h-2.826a.832.832,0,0,0,0,1.663h2.826v.609a.832.832,0,1,0,1.663,0v-.609h.609a.832.832,0,0,0,0-1.663H318.4v-2.826A.832.832,0,0,0,317.57,330.662Z" transform="translate(-280.614 -293.995)"/>
        <path id="Trazado_1035303" data-name="Trazado 1035303" d="M61.9,120.36a.832.832,0,0,0-.832.832v.609H60.46a.832.832,0,1,0,0,1.663h.609v2.826a.832.832,0,0,0,1.663,0v-2.826h4.157a.832.832,0,1,0,0-1.663H62.732v-.609A.832.832,0,0,0,61.9,120.36Z" transform="translate(-55.267 -107.013)"/>
        <path id="Trazado_1035304" data-name="Trazado 1035304" d="M257,135.012a.832.832,0,0,0,0-1.663h-2.324a.832.832,0,0,0,0,1.663Z" transform="translate(-227.947 -118.562)"/>
        <path id="Trazado_1035305" data-name="Trazado 1035305" d="M202.277,135.012H204.6a.832.832,0,1,0,0-1.663h-2.324a.832.832,0,1,0,0,1.663Z" transform="translate(-181.358 -118.562)"/>
        <path id="Trazado_1035306" data-name="Trazado 1035306" d="M152.2,135.012a.832.832,0,1,0,0-1.663h-2.324a.832.832,0,0,0,0,1.663Z" transform="translate(-134.769 -118.562)"/>
        <circle id="Elipse_11730" data-name="Elipse 11730" cx="0.832" cy="0.832" r="0.832" transform="translate(20.57 40.325)"/>
      </g>
    </g>
  </g>
</svg>
