<svg xmlns="http://www.w3.org/2000/svg" xmlns:xlink="http://www.w3.org/1999/xlink" width="112" height="112" viewBox="0 0 112 112">
  <defs>
    <filter id="Rect치ngulo_405217" x="0" y="0" width="112" height="112" filterUnits="userSpaceOnUse">
      <feOffset dx="6" dy="7" input="SourceAlpha"/>
      <feGaussianBlur stdDeviation="4" result="blur"/>
      <feFlood flood-opacity="0.251"/>
      <feComposite operator="in" in2="blur"/>
      <feComposite in="SourceGraphic"/>
    </filter>
  </defs>
  <g id="Grupo_1178947" data-name="Grupo 1178947" transform="translate(-202.051 -1629)">
    <g transform="matrix(1, 0, 0, 1, 202.05, 1629)" filter="url(#Rect치ngulo_405217)">
      <g id="Rect치ngulo_405217-2" data-name="Rect치ngulo 405217" transform="translate(6 5)" fill="#cb98f5" stroke="#fff" stroke-width="3">
        <path d="M0,0H59A29,29,0,0,1,88,29V59A29,29,0,0,1,59,88H29A29,29,0,0,1,0,59V0A0,0,0,0,1,0,0Z" stroke="none"/>
        <path d="M1.5,1.5H59A27.5,27.5,0,0,1,86.5,29V59A27.5,27.5,0,0,1,59,86.5H29A27.5,27.5,0,0,1,1.5,59V1.5A0,0,0,0,1,1.5,1.5Z" fill="none"/>
      </g>
    </g>
    <g id="Grupo_1178946" data-name="Grupo 1178946" transform="translate(219.053 1563.016)">
      <g id="Grupo_1178944" data-name="Grupo 1178944" transform="translate(0.987 95.036)">
        <path id="Trazado_1035236" data-name="Trazado 1035236" d="M152.911,104.044a2.7,2.7,0,0,0-3.985-1.547,11.7,11.7,0,0,0-3.584,3.35l.213.232,2.082-.086.864,1.107,3.922,8.68,6.676,7.735,2.917,1.664.79-.488C157.736,119.007,154.354,108.987,152.911,104.044Z" transform="translate(-127.49 -102.106)" fill="#e61e2b"/>
        <path id="Trazado_1035237" data-name="Trazado 1035237" d="M64.323,150.587q-1.486-.058-3.147-.143c-13.7-.706-20.477-14.481-22.712-20.214a2.716,2.716,0,0,0-3.352-1.6c-5.736,1.814-9.871,1.661-12.451,1.144a2.713,2.713,0,0,0-3.237,2.667v2.4a51.723,51.723,0,0,1-1.275,11.5c-.058.256-.117.524-.176.8l1.749,1.746v8.824l11.764,1.46h9.626l17.371,1.577,6.223-.843V151.97Z" transform="translate(-16.633 -125.085)" fill="#ff636e"/>
        <path id="Trazado_1035238" data-name="Trazado 1035238" d="M26.64,138.3a18.9,18.9,0,0,1-3.979-.341,2.713,2.713,0,0,0-3.237,2.667v2.4a51.723,51.723,0,0,1-1.275,11.5c-.058.256-.117.524-.176.8l1.749,1.746V165.9l2.447.3a34.366,34.366,0,0,1,.732-5.308,164.877,164.877,0,0,0,2.161-20.013A2.841,2.841,0,0,1,26.64,138.3Z" transform="translate(-16.633 -133.263)" fill="#ff4654"/>
        <circle id="Elipse_11729" data-name="Elipse 11729" cx="2.166" cy="2.166" r="2.166" transform="translate(16.242 7.341)" fill="#ff4654"/>
        <path id="Trazado_1035239" data-name="Trazado 1035239" d="M378.79,298.914c-2.39.078-5.572.074-9.792-.089a13.734,13.734,0,0,0-.444,8.9l1.043.755,9.075-1.284,6.006-1.966.819-.826v-.543A6.735,6.735,0,0,0,378.79,298.914Z" transform="translate(-321.309 -273.323)" fill="#cbe2ff"/>
        <path id="Trazado_1035240" data-name="Trazado 1035240" d="M373.477,298.948c-1.345-.02-2.832-.059-4.478-.123a13.734,13.734,0,0,0-.444,8.9l1.043.755,3.611-.511a16.764,16.764,0,0,1,.269-9.025Z" transform="translate(-321.309 -273.323)" fill="#9dc6fb"/>
        <path id="Trazado_1035241" data-name="Trazado 1035241" d="M13.059,269.789a10.9,10.9,0,0,0-2.637.324A63.435,63.435,0,0,0,9.3,278.32l.151.864,1.21.951,6.611.972,6.136.3.524-.477c0-.089,0-.178,0-.267a10.876,10.876,0,0,0-10.876-10.876Z" transform="translate(-9.083 -248.051)" fill="#ff4654"/>
        <path id="Trazado_1035242" data-name="Trazado 1035242" d="M10.659,280.133l3.976.585a34.547,34.547,0,0,1,.715-5.04c.288-1.329.584-3.266.861-5.424a10.9,10.9,0,0,0-5.789-.142A63.437,63.437,0,0,0,9.3,278.319l.151.864Z" transform="translate(-9.083 -248.05)" fill="#e61e2b"/>
        <path id="Trazado_1035243" data-name="Trazado 1035243" d="M70.682,336.827c-13.412,4.49-28.265,3.008-35.478,1.839a44.808,44.808,0,0,0-9.037-.537A72.394,72.394,0,0,1,9.716,337.08a2.565,2.565,0,0,1-1.864-1.49c-.1,1.366-.179,2.839-.215,4.421a2.564,2.564,0,0,0,2.078,2.573,72.4,72.4,0,0,0,16.451,1.049,44.809,44.809,0,0,1,9.037.537c7.213,1.169,22.066,2.651,35.478-1.839a2.026,2.026,0,0,0,1.384-1.92v-2.76a6.755,6.755,0,0,0-.241-1.789,2.028,2.028,0,0,1-1.143.965Z" transform="translate(-7.637 -305.322)" fill="#f9f6f9"/>
        <path id="Trazado_1035244" data-name="Trazado 1035244" d="M9.716,337.08a2.565,2.565,0,0,1-1.864-1.49c-.1,1.366-.179,2.839-.215,4.421a2.564,2.564,0,0,0,2.078,2.573c1.041.2,2.454.435,4.2.637a4.982,4.982,0,0,1-.742-2.151,22.542,22.542,0,0,1,.044-3.438C11.789,337.451,10.615,337.253,9.716,337.08Z" transform="translate(-7.637 -305.322)" fill="#cbe2ff"/>
      </g>
      <g id="Grupo_1178945" data-name="Grupo 1178945" transform="translate(-0.003 93.983)">
        <path id="Trazado_1035245" data-name="Trazado 1035245" d="M60.77,119.861c-2.374-.67-13.684.434-19.5-1.227l.01-.027a.972.972,0,1,0-1.818-.691l-.034.089a19.9,19.9,0,0,1-2.517-1.22c-.136-.154-.271-.311-.4-.471l.323-.4a.972.972,0,0,0-1.514-1.22l-.024.03a36.1,36.1,0,0,1-2.054-3.294l.125-.106A.972.972,0,0,0,32.33,109.7c-.506-1-.981-2.026-1.425-3.047l.157-.086a.972.972,0,0,0-.91-1.718c-.383-.954-.739-1.893-1.066-2.8l.046-.016a.972.972,0,0,0-.645-1.835l-.04.014c-.444-1.324-.821-2.544-1.126-3.589A3.667,3.667,0,0,0,21.9,94.516a12.626,12.626,0,0,0-3.67,3.342,23.413,23.413,0,0,1-11.045.84,3.685,3.685,0,0,0-4.4,3.62,53.5,53.5,0,0,1-1.429,14.5A71.963,71.963,0,0,0,0,129.624a3.526,3.526,0,0,0,2.866,3.549A73.62,73.62,0,0,0,19.54,134.24a43.977,43.977,0,0,1,8.841.525c11.549,1.872,24.783,1.859,35.942-1.876a3,3,0,0,0,2.048-2.842v-2.76a7.707,7.707,0,0,0-5.6-7.425Zm2.936,5.679a60.145,60.145,0,0,1-14.735,2.8,12.778,12.778,0,0,1,.347-6.882c9.666.343,9.6-.262,11.424.445a5.785,5.785,0,0,1,3.339,3.417,1.037,1.037,0,0,1-.376.223ZM30.791,110.956l-.368.311a34.175,34.175,0,0,1-2.333-3.08l1.1-.6C29.689,108.715,30.222,109.847,30.791,110.956Zm-2.356-5.172-1.394.76c-.661-1.094-1.237-2.165-1.734-3.168l1.946-.684C27.614,103.692,28.008,104.73,28.436,105.784Zm-5.528-9.6a1.723,1.723,0,0,1,2.549.988c.313,1.073.7,2.326,1.158,3.688l-2.136.75c-.777-1.756-1.1-3.552-3.346-4.095a10.976,10.976,0,0,1,1.776-1.331Zm41.519,33.866a1.053,1.053,0,0,1-.721,1c-13.092,4.383-27.556,3.01-35.013,1.8a46.4,46.4,0,0,0-9.233-.548,71.636,71.636,0,0,1-16.226-1.032,1.586,1.586,0,0,1-1.291-1.6c.018-.807.044-1.485.082-2.273a3.658,3.658,0,0,0,.84.275,69.693,69.693,0,0,0,12.951,1.141h.015c1.179,0,2.416-.02,3.709-.074a44.031,44.031,0,0,1,6.89.257.972.972,0,1,0,.224-1.932,45.983,45.983,0,0,0-7.195-.268q-1.389.058-2.689.069a11.812,11.812,0,0,0-3.075-7.279.972.972,0,0,0-1.436,1.312,9.874,9.874,0,0,1,2.565,5.963,69.027,69.027,0,0,1-11.33-1.047,1.715,1.715,0,0,1-1.317-.784,64.394,64.394,0,0,1,.96-7.193,9.9,9.9,0,0,1,5.754.652.972.972,0,0,0,.775-1.783,11.8,11.8,0,0,0-6.095-.9,58.027,58.027,0,0,0,1.161-13.485A1.74,1.74,0,0,1,6.8,100.6c4.206.843,8.879.112,12.935-1.17a1.747,1.747,0,0,1,2.153,1.021c.211.541.471,1.172.745,1.8l-.791.278a3.136,3.136,0,1,0,.669,1.933c0-.036,0-.071,0-.106l.944-.332c.534,1.1,1.157,2.262,1.871,3.451l-2.163,1.179a.972.972,0,0,0,.931,1.708l2.276-1.24a36.059,36.059,0,0,0,2.564,3.4l-2.249,1.9a.972.972,0,0,0,1.256,1.485l2.3-1.947a27.439,27.439,0,0,0,3.3,2.929l-1.709,2.12a.972.972,0,0,0,1.514,1.22l1.8-2.234a21.98,21.98,0,0,0,3.587,1.829l-.97,2.553a.972.972,0,0,0,1.818.691l.992-2.611a25.129,25.129,0,0,0,6.722.913,14.773,14.773,0,0,0-.289,7.088,90.219,90.219,0,0,1-15.805-.751.972.972,0,0,0-.257,1.928c10.973,1.464,22.959,1.228,33.373-2.255l.1-.037v2.7ZM20.571,104.464a1.194,1.194,0,1,1-1.194-1.194A1.2,1.2,0,0,1,20.571,104.464Z" transform="translate(0.003 -93.983)"/>
      </g>
    </g>
  </g>
</svg>
