<svg xmlns="http://www.w3.org/2000/svg" xmlns:xlink="http://www.w3.org/1999/xlink" width="116" height="116" viewBox="0 0 116 116">
  <defs>
    <filter id="Rect치ngulo_401369" x="0" y="0" width="116" height="116" filterUnits="userSpaceOnUse">
      <feOffset dx="6" dy="7" input="SourceAlpha"/>
      <feGaussianBlur stdDeviation="4" result="blur"/>
      <feFlood flood-opacity="0.251"/>
      <feComposite operator="in" in2="blur"/>
      <feComposite in="SourceGraphic"/>
    </filter>
  </defs>
  <g id="Grupo_1178846" data-name="Grupo 1178846" transform="translate(-934.051 -1328)">
    <g id="Grupo_1178494" data-name="Grupo 1178494" transform="translate(702.27 -4440)">
      <g transform="matrix(1, 0, 0, 1, 231.78, 5768)" filter="url(#Rect치ngulo_401369)">
        <g id="Rect치ngulo_401369-2" data-name="Rect치ngulo 401369" transform="translate(6 5)" fill="#32d5d3" stroke="#fff" stroke-width="3">
          <path d="M0,0H63A29,29,0,0,1,92,29V63A29,29,0,0,1,63,92H29A29,29,0,0,1,0,63V0A0,0,0,0,1,0,0Z" stroke="none"/>
          <path d="M1.5,1.5H63A27.5,27.5,0,0,1,90.5,29V63A27.5,27.5,0,0,1,63,90.5H29A27.5,27.5,0,0,1,1.5,63V1.5A0,0,0,0,1,1.5,1.5Z" fill="none"/>
        </g>
      </g>
    </g>
    <g id="Grupo_1178845" data-name="Grupo 1178845" transform="translate(949.051 1240.987)">
      <g id="Grupo_1178843" data-name="Grupo 1178843" transform="translate(1.068 119.096)">
        <path id="Trazado_1034969" data-name="Trazado 1034969" d="M13.8,125.512l2.078.118a5.856,5.856,0,0,1,5.006,3.411,11.076,11.076,0,0,0,8,5.315,11.335,11.335,0,0,0,12.846-7.689,1.648,1.648,0,0,1,2.775-.634l3.279,3.5,6.325,8.619,12.656,5.2q.866.393,1.747.758L80.1,148.917a4.706,4.706,0,0,1,2.609,2.707c.027.074-.2.755-.173.831l.922,2.231-4,1.2a50.1,50.1,0,0,1-16.67,1.519l-28.657-1.785L16.923,147.68c-.8-.677-2.827-2.309-2.827-2.309-.962-1.783-.619-4.179-.374-6.123l.958-2.1-.18-3.076a7.38,7.38,0,0,0-1.512-6.081c-.8-.955-.427-2.478.816-2.478Z" transform="translate(-11.821 -125.512)" fill="#b7e546"/>
        <g id="Grupo_1178842" data-name="Grupo 1178842" transform="translate(0.513 0)">
          <path id="Trazado_1034970" data-name="Trazado 1034970" d="M18.817,125.55a6.037,6.037,0,0,1,4.649,3.1,11.317,11.317,0,0,0,9.937,5.9,11.647,11.647,0,0,0,1.446-.091,11.322,11.322,0,0,1-8.495-5.8,6.048,6.048,0,0,0-5.312-3.137H19.151A1.467,1.467,0,0,0,18.817,125.55Z" transform="translate(-17.68 -125.512)" fill="#abd641"/>
          <path id="Trazado_1034971" data-name="Trazado 1034971" d="M152.727,309.748l1.323.569,28.657,1.785a49.238,49.238,0,0,0,16.5-1.775l1.895-.538,1.556.323.855-1.007-.807-2.559c-.025-.075-.049-.15-.077-.224l-4.249,1.087a46.221,46.221,0,0,1-12.613,1.755c-.953,0-1.919-.03-2.871-.09l-28.131-1.752Z" transform="translate(-132.251 -280.21)" fill="#abd641"/>
          <path id="Trazado_1034972" data-name="Trazado 1034972" d="M42.983,154.414l-6.808-6.788a7.815,7.815,0,0,0-5.514-2.279H16.571a1.447,1.447,0,0,1-1.4-1.093,13.951,13.951,0,0,1,.052-5.007c.136-1.857.611-4.132.611-6.286a6.989,6.989,0,0,0-1.656-5.045,6.675,6.675,0,0,1-.6-2.338l-1.158-.066a1.468,1.468,0,0,0-1.261,2.221,1.77,1.77,0,0,0,.133.183,7.592,7.592,0,0,1,1.6,6.154l.4,3.076-.959,2.1c-.246,1.944-.588,4.34.374,6.123h0a6.971,6.971,0,0,0,.79,1.306,7.08,7.08,0,0,0,1.069,1.125l18.176,7.816,11.149.695A3.134,3.134,0,0,0,42.983,154.414Z" transform="translate(-10.945 -125.512)" fill="#abd641"/>
        </g>
        <path id="Trazado_1034973" data-name="Trazado 1034973" d="M21.116,184.777l18.6,14.789-2.74,3.442-16.42-13.055.958-2.1Z" transform="translate(-18.656 -176.218)" fill="#faf8f8"/>
        <path id="Trazado_1034974" data-name="Trazado 1034974" d="M23.806,186.909c-.137,1.073-.29,2.109-.358,3.04-.084.666-.181,1.385-.23,2.114l-2.659-2.114.559-5.177Z" transform="translate(-18.658 -176.214)" fill="#f0e9e6"/>
        <path id="Trazado_1034975" data-name="Trazado 1034975" d="M262.55,274.225l-1.29-.644-1.228-.493a.722.722,0,0,0-.968.323l-4.57,9.429-.844,1.686,3.67,1.777h0l1.663-3.327h0l1.473-2.948h0l2.416-4.834A.722.722,0,0,0,262.55,274.225Z" transform="translate(-218.086 -251.711)" fill="#faf8f8"/>
        <path id="Trazado_1034976" data-name="Trazado 1034976" d="M204.321,249.453a.721.721,0,0,0-.324-.969l-1.282-.64-1.287-.372a.722.722,0,0,0-.968.323l-3.51,7.338-2.445,4.265,1.823.91h0l.087.044h0l1.966.981,1.079-2.159.35-.7h0Z" transform="translate(-167.484 -229.793)" fill="#faf8f8"/>
        <path id="Trazado_1034977" data-name="Trazado 1034977" d="M260.045,272.677l-3.623,6.877h0L254.95,282.5l-.93,1.859-1.791-.894.843-1.687,1.472-2.945h0l3.238-6.477a.723.723,0,0,1,.969-.323Z" transform="translate(-216.87 -250.807)" fill="#f0e9e6"/>
        <path id="Trazado_1034978" data-name="Trazado 1034978" d="M202.718,246.2l-4.259,8.129h0l-2.159,4.317-1.791-.894,2.072-4.145h0l3.868-7.735a.72.72,0,0,1,.968-.322Z" transform="translate(-167.486 -228.146)" fill="#f0e9e6"/>
        <path id="Trazado_1034979" data-name="Trazado 1034979" d="M73.687,262.862l8.747,6.954,2.74-3.441-4.418-3.512Z" transform="translate(-64.113 -243.026)" fill="#f0e9e6"/>
        <path id="Trazado_1034980" data-name="Trazado 1034980" d="M235.211,160.818l.913.467,2.5.442,1.835,1.772,4.28,2.187,2.392.778,1.94,1.436,2.655,1.357a2.9,2.9,0,0,0,4.114-1.818c.007-.033.029-.136.049-.25a57.982,57.982,0,0,1-18.384-13.18l-.6-.637-2.552,2.884A2.934,2.934,0,0,0,235.211,160.818Z" transform="translate(-200.941 -149.349)" fill="#abd641"/>
        <path id="Trazado_1034981" data-name="Trazado 1034981" d="M318.466,212.473l-1.565-1.1-.922-.443a.867.867,0,0,0-1.207.213l-2.53,3.585,1.573.991.358.183,2.169,1.108,2.337-3.337A.865.865,0,0,0,318.466,212.473Z" transform="translate(-268.217 -198.464)" fill="#faf8f8"/>
        <path id="Trazado_1034982" data-name="Trazado 1034982" d="M256.043,171.893a.867.867,0,0,0-1.268.166l-3.795,4.907,1.854.942.31.158h0l2.171,1.1,3.1-4.418a.866.866,0,0,0-.152-1.16l-1.46-1.227A2.168,2.168,0,0,0,256.043,171.893Z" transform="translate(-215.803 -165.021)" fill="#faf8f8"/>
        <path id="Trazado_1034983" data-name="Trazado 1034983" d="M315.529,210.016l-3.085,4.346-1.805-.921,2.722-3.885a.866.866,0,0,1,1.206-.212Z" transform="translate(-266.845 -197.103)" fill="#f0e9e6"/>
        <path id="Trazado_1034984" data-name="Trazado 1034984" d="M256.8,170.636l-3.967,5.543-1.854-.943,3.644-5.2a.867.867,0,0,1,1.267-.166Z" transform="translate(-215.801 -163.291)" fill="#f0e9e6"/>
        <path id="Trazado_1034985" data-name="Trazado 1034985" d="M12.886,329.134l47.234.092a47.455,47.455,0,0,0,17.269-3.257c2.224-.773,3.553-2.4,3.3-4.68l-2.081.3-.855.243a49.244,49.244,0,0,1-18.585,1.6L34.356,320.83l-15.988-.711-6.952.747-1.663,4.968c-.833,2.083,1.057,3.333,3.133,3.3Z" transform="translate(-9.24 -292.014)" fill="#faf8f8"/>
        <path id="Trazado_1034986" data-name="Trazado 1034986" d="M79.168,323.684l-2.41.685a3.221,3.221,0,0,1-1.96,2.21,47.613,47.613,0,0,1-17.09,3.16H11.221a.819.819,0,0,1-.782-1.079l1.729-5.3-2.92.313-1.7,4.984a2.821,2.821,0,0,0-.152,1.079h0a2.9,2.9,0,0,0,2.893,2.744H58.574a49.231,49.231,0,0,0,17.606-3.255C78.383,328.438,79.41,326.122,79.168,323.684Z" transform="translate(-7.393 -294.789)" fill="#f0e9e6"/>
        <path id="Trazado_1034987" data-name="Trazado 1034987" d="M32.748,279.863H17.035l-1.613.218a1.027,1.027,0,0,0-1,.8c-.045.336-1.25,3.861-1,4.084a1.027,1.027,0,0,0,1,1.249l12.887.128a2.936,2.936,0,0,1,1.715.553l2.6,1.634a2.2,2.2,0,0,0,1.286.415l9.587.165a.691.691,0,0,0,.489-1.181l-.488-.56-5.962-5.944A5.358,5.358,0,0,0,32.748,279.863Z" transform="translate(-12.519 -257.572)" fill="#b7e546"/>
        <path id="Trazado_1034988" data-name="Trazado 1034988" d="M41.993,288.211l-.845-.842H31.5a.178.178,0,0,1-.1-.033l-2.732-1.966a4.924,4.924,0,0,0-2.9-.933H15.757a.722.722,0,0,1-.712-.845l.646-3.731h-1.84a1.026,1.026,0,0,0-1,.8l-.839,3.772h0l-.172.773a1.026,1.026,0,0,0,1,1.249H25.768a2.94,2.94,0,0,1,1.714.552l2.732,1.966a2.2,2.2,0,0,0,1.287.414h10a.69.69,0,0,0,.488-1.18Z" transform="translate(-11.175 -257.57)" fill="#abd641"/>
      </g>
      <g id="Grupo_1178844" data-name="Grupo 1178844" transform="translate(0 118.013)">
        <path id="Trazado_1034989" data-name="Trazado 1034989" d="M223.458,139.6a1.083,1.083,0,0,0-.586-1.415l-3.583-1.486a57.246,57.246,0,0,1-5.425-2.594,1.944,1.944,0,0,0-.81-1.883l-2.527-1.768a1.952,1.952,0,0,0-2.36.1q-1.126-.8-2.215-1.653a1.935,1.935,0,0,0-.612-2.054l-2.37-1.992a1.931,1.931,0,0,0-1.965-.32c-.5-.495-.991-1-1.47-1.511l-.582-.622,0,0-3.292-3.515a2.731,2.731,0,0,0-4.6,1.046,10.266,10.266,0,0,1-2.459,4.068,1.083,1.083,0,1,0,1.543,1.52,12.442,12.442,0,0,0,2.98-4.93.565.565,0,0,1,.952-.222l2.61,2.787-1.9,2.139a4.017,4.017,0,0,0,1.175,6.246l16.511,8.438a4.084,4.084,0,0,0,3.565.029,3.948,3.948,0,0,0,1.709-1.6c1.179.5,2.995,1.245,4.3,1.789a1.083,1.083,0,0,0,1.416-.586Zm-11.548-2.347.885-1.263q1.453.792,2.956,1.5a1.814,1.814,0,0,1-2.294.549Zm-7.127-6.517q1.023.8,2.082,1.548l-1.233,1.76-2.332-1.192Zm-8.379-4.008,1.771-1.992c.436.46.88.915,1.331,1.362l-2.485,3.546-.075-.038a1.851,1.851,0,0,1-.542-2.878Zm7.388,1.646-2.44,3.483-2.383-1.218,2.787-3.977Zm7.841,5.5-1.671,2.385-2.383-1.218,1.883-2.687Z" transform="translate(-161.098 -118.013)"/>
        <path id="Trazado_1034990" data-name="Trazado 1034990" d="M.747,156.21a3.934,3.934,0,0,0,3.234,1.662H39.438a1.083,1.083,0,0,0,0-2.166H3.981a1.809,1.809,0,0,1-1.714-2.391l1.446-4.247H6.731a1.083,1.083,0,1,0,0-2.166H2.822l.986-4.432H21.315a4.246,4.246,0,0,1,3.018,1.247l6.135,6.117H21.411a1.112,1.112,0,0,1-.653-.211l-2.732-1.965a3.994,3.994,0,0,0-2.347-.756h-3.9a1.083,1.083,0,1,0,0,2.166h3.9a1.841,1.841,0,0,1,1.082.349l2.732,1.965a3.267,3.267,0,0,0,1.918.618h10a1.775,1.775,0,0,0,1.7-2.273L50.9,151.6a50.624,50.624,0,0,0,5.289.278,50.034,50.034,0,0,0,13.7-1.915l1.88-.532a3.588,3.588,0,0,1-2.283,3.1,47.984,47.984,0,0,1-17.219,3.183h-7.8a1.083,1.083,0,0,0,0,2.166h7.8a50.139,50.139,0,0,0,17.993-3.326,5.765,5.765,0,0,0,3.684-5.353,8.532,8.532,0,0,0-.354-2.491l-.5-1.6a5.775,5.775,0,0,0-3.3-3.6l-3.347-1.388a1.083,1.083,0,0,0-.83,2l3.347,1.388a3.614,3.614,0,0,1,2.066,2.256l.472,1.5-2.195.621a47.9,47.9,0,0,1-18.175,1.566l-7.1-.745,2.815-5.631a1.805,1.805,0,0,0-.809-2.422l-2.584-1.29a1.807,1.807,0,0,0-2.421.808l-3.9,7.81-2.467-.259,4.235-8.472a1.805,1.805,0,0,0-.809-2.422l-2.583-1.29a1.807,1.807,0,0,0-2.421.808l-4.352,8.705-2.866-2.857a6.4,6.4,0,0,0-4.547-1.879H21.2L4.687,127.178l0-.029a8.534,8.534,0,0,0-1.916-6.342.383.383,0,0,1,.3-.628H4.961a4.963,4.963,0,0,1,4.362,2.574,12.418,12.418,0,0,0,15.116,5.718,1.083,1.083,0,0,0-.738-2.036,10.251,10.251,0,0,1-12.477-4.72,7.128,7.128,0,0,0-6.262-3.7H3.069a2.549,2.549,0,0,0-1.96,4.18,6.356,6.356,0,0,1,1.427,4.724l-.879,8.143a8.2,8.2,0,0,0,1.31,5.4,2.1,2.1,0,0,0-1.264,1.5L.692,146.5a2.1,2.1,0,0,0,.861,2.191L.217,152.617a3.929,3.929,0,0,0,.53,3.594Zm31.609-8.741-1.333-.14-.679-.677,4.511-9.025,1.938.967Zm9.37.984-2.3-.242,3.38-6.761,1.938.967ZM5.636,140.3a6.259,6.259,0,0,1-1.783-5.4l6.792,5.4Zm12.079,0H14.126l-10-7.949.284-2.628Z" transform="translate(0 -118.013)"/>
      </g>
    </g>
  </g>
</svg>
