<svg xmlns="http://www.w3.org/2000/svg" xmlns:xlink="http://www.w3.org/1999/xlink" width="116" height="116" viewBox="0 0 116 116">
  <defs>
    <filter id="Rect치ngulo_401369" x="0" y="0" width="116" height="116" filterUnits="userSpaceOnUse">
      <feOffset dx="6" dy="7" input="SourceAlpha"/>
      <feGaussianBlur stdDeviation="4" result="blur"/>
      <feFlood flood-opacity="0.251"/>
      <feComposite operator="in" in2="blur"/>
      <feComposite in="SourceGraphic"/>
    </filter>
  </defs>
  <g id="Grupo_1178891" data-name="Grupo 1178891" transform="translate(-985.051 -898)">
    <g transform="matrix(1, 0, 0, 1, 985.05, 898)" filter="url(#Rect치ngulo_401369)">
      <g id="Rect치ngulo_401369-2" data-name="Rect치ngulo 401369" transform="translate(6 5)" fill="#e0ee33" stroke="#fff" stroke-width="3">
        <path d="M0,0H63A29,29,0,0,1,92,29V63A29,29,0,0,1,63,92H29A29,29,0,0,1,0,63V0A0,0,0,0,1,0,0Z" stroke="none"/>
        <path d="M1.5,1.5H63A27.5,27.5,0,0,1,90.5,29V63A27.5,27.5,0,0,1,63,90.5H29A27.5,27.5,0,0,1,1.5,63V1.5A0,0,0,0,1,1.5,1.5Z" fill="none"/>
      </g>
    </g>
    <g id="Grupo_1178890" data-name="Grupo 1178890" transform="translate(1004.028 916.001)">
      <path id="Trazado_1035020" data-name="Trazado 1035020" d="M106.661,61.41a40.136,40.136,0,0,0-6.693-27.8A39.019,39.019,0,0,0,89.512,65.508l2.424,18.857a11.081,11.081,0,0,0,5.887,8.424,11.081,11.081,0,0,0,5.887-8.424Zm0,0" transform="translate(-77.687 -29.278)" fill="#ffb954"/>
      <path id="Trazado_1035021" data-name="Trazado 1035021" d="M64.282,278.638c0-5.194,1.935-9.656,4.7-11.6a5.359,5.359,0,0,0-3.1-1.039c-4.31,0-7.8,5.658-7.8,12.638s3.493,12.639,7.8,12.639a5.361,5.361,0,0,0,3.1-1.04C66.218,288.294,64.282,283.832,64.282,278.638Zm0,0" transform="translate(-50.586 -231.686)" fill="#fff"/>
      <path id="Trazado_1035022" data-name="Trazado 1035022" d="M115.573,285.654c0-5.195-1.935-9.656-4.7-11.6-2.766,1.944-4.7,6.4-4.7,11.6s1.935,9.656,4.7,11.6C113.638,295.31,115.573,290.848,115.573,285.654Zm0,0" transform="translate(-92.475 -238.701)" fill="#feda9b"/>
      <path id="Trazado_1035023" data-name="Trazado 1035023" d="M355.636,56.885l2.952,22.955a11.085,11.085,0,0,0,6.45,8.7,11.087,11.087,0,0,0,6.45-8.7l2.424-18.857A39.018,39.018,0,0,0,362.8,28.418,40.138,40.138,0,0,0,355.636,56.885Zm0,0" transform="translate(-309.472 -24.753)" fill="#ffb954"/>
      <path id="Trazado_1035024" data-name="Trazado 1035024" d="M338.168,278.638c0-5.489,2.161-10.161,5.18-11.906a5.2,5.2,0,0,0-2.623-.733c-4.309,0-7.8,5.658-7.8,12.638s3.493,12.639,7.8,12.639a5.207,5.207,0,0,0,2.623-.733C340.329,288.8,338.168,284.128,338.168,278.638Zm0,0" transform="translate(-289.973 -231.686)" fill="#fff"/>
      <path id="Trazado_1035025" data-name="Trazado 1035025" d="M383.945,283.585c0-5.489-2.161-10.161-5.179-11.906-3.019,1.745-5.18,6.417-5.18,11.906s2.161,10.16,5.18,11.906C381.784,293.746,383.945,289.075,383.945,283.585Zm0,0" transform="translate(-325.392 -236.632)" fill="#feda9b"/>
      <path id="Trazado_1035026" data-name="Trazado 1035026" d="M15.027,66.053a12.4,12.4,0,0,1-12.276-10.8L.327,36.4A40.4,40.4,0,0,1,12.8,1.8a6.668,6.668,0,0,1,9.956.971,41.569,41.569,0,0,1,3.593,5.979A1.29,1.29,0,1,1,24.03,9.883a38.992,38.992,0,0,0-3.369-5.606,4.088,4.088,0,0,0-6.1-.595A37.814,37.814,0,0,0,2.886,36.069L5.31,54.926a9.8,9.8,0,0,0,19.433,0L27.695,31.97a38.8,38.8,0,0,0-.32-11.965,1.29,1.29,0,1,1,2.538-.466A41.365,41.365,0,0,1,30.254,32.3L27.3,55.255A12.4,12.4,0,0,1,15.027,66.053Zm0,0" transform="translate(0 -0.003)"/>
      <path id="Trazado_1035027" data-name="Trazado 1035027" d="M202.131,102.608a1.291,1.291,0,0,1-1.224-.883l-.027-.081a1.29,1.29,0,0,1,2.444-.828l.031.093a1.291,1.291,0,0,1-1.224,1.7Zm0,0" transform="translate(-174.906 -87.048)"/>
      <path id="Trazado_1035028" data-name="Trazado 1035028" d="M57.171,283.857c-2.548,0-4.9-1.532-6.615-4.314a19.892,19.892,0,0,1,0-19.229c1.717-2.782,4.067-4.314,6.615-4.314s4.9,1.532,6.615,4.314a19.9,19.9,0,0,1,0,19.229C62.068,282.325,59.719,283.857,57.171,283.857Zm0-25.277c-3.531,0-6.513,5.2-6.513,11.348s2.982,11.348,6.513,11.348,6.512-5.2,6.512-11.348S60.7,258.58,57.171,258.58Zm0,0" transform="translate(-41.876 -222.976)"/>
      <path id="Trazado_1035029" data-name="Trazado 1035029" d="M290.368,66.05a12.4,12.4,0,0,1-12.276-10.8L275.141,32.3a41.283,41.283,0,0,1,7.5-29.533,6.667,6.667,0,0,1,9.956-.971,40.4,40.4,0,0,1,12.471,34.6l-2.424,18.857A12.4,12.4,0,0,1,290.368,66.05ZM284.733,4.274A38.714,38.714,0,0,0,277.7,31.967l2.951,22.955a9.8,9.8,0,0,0,19.433,0l2.424-18.857A37.815,37.815,0,0,0,290.836,3.679a4.087,4.087,0,0,0-6.1.6Zm0,0" transform="translate(-239.349 0)"/>
      <path id="Trazado_1035030" data-name="Trazado 1035030" d="M332.014,283.857c-2.548,0-4.9-1.532-6.615-4.314a19.9,19.9,0,0,1,0-19.229c1.718-2.782,4.067-4.314,6.615-4.314s4.9,1.532,6.615,4.314a19.892,19.892,0,0,1,0,19.229C336.912,282.325,334.563,283.857,332.014,283.857Zm0-25.277c-3.53,0-6.512,5.2-6.512,11.348s2.982,11.348,6.512,11.348,6.513-5.2,6.513-11.348S335.545,258.58,332.014,258.58Zm0,0" transform="translate(-281.263 -222.976)"/>
      <path id="Trazado_1035031" data-name="Trazado 1035031" d="M389.181,75.524a1.288,1.288,0,0,1-1.012-.489l-.012-.016a1.29,1.29,0,0,1,2.03-1.592l.012.016a1.29,1.29,0,0,1-1.017,2.082Zm0,0" transform="translate(-337.846 -63.529)"/>
      <path id="Trazado_1035032" data-name="Trazado 1035032" d="M415.843,121.692a1.29,1.29,0,0,1-1.282-1.164,31.9,31.9,0,0,0-4.011-12.579,1.29,1.29,0,0,1,2.241-1.279,34.509,34.509,0,0,1,4.337,13.6,1.29,1.29,0,0,1-1.157,1.41A1.232,1.232,0,0,1,415.843,121.692Zm0,0" transform="translate(-357.439 -92.344)"/>
    </g>
  </g>
</svg>
