<svg xmlns="http://www.w3.org/2000/svg" xmlns:xlink="http://www.w3.org/1999/xlink" width="116" height="116" viewBox="0 0 116 116">
  <defs>
    <filter id="Rect치ngulo_405282" x="0" y="0" width="116" height="116" filterUnits="userSpaceOnUse">
      <feOffset dx="6" dy="7" input="SourceAlpha"/>
      <feGaussianBlur stdDeviation="4" result="blur"/>
      <feFlood flood-opacity="0.251"/>
      <feComposite operator="in" in2="blur"/>
      <feComposite in="SourceGraphic"/>
    </filter>
  </defs>
  <g id="Grupo_1178893" data-name="Grupo 1178893" transform="translate(-780 -1295.962)">
    <g transform="matrix(1, 0, 0, 1, 780, 1295.96)" filter="url(#Rect치ngulo_405282)">
      <g id="Rect치ngulo_405282-2" data-name="Rect치ngulo 405282" transform="translate(6 5)" fill="#e0ee33" stroke="#fff" stroke-width="3">
        <path d="M0,0H63A29,29,0,0,1,92,29V63A29,29,0,0,1,63,92H29A29,29,0,0,1,0,63V0A0,0,0,0,1,0,0Z" stroke="none"/>
        <path d="M1.5,1.5H63A27.5,27.5,0,0,1,90.5,29V63A27.5,27.5,0,0,1,63,90.5H29A27.5,27.5,0,0,1,1.5,63V1.5A0,0,0,0,1,1.5,1.5Z" fill="none"/>
      </g>
    </g>
    <g id="Grupo_1178892" data-name="Grupo 1178892" transform="translate(802.24 1316.701)">
      <path id="Trazado_1035033" data-name="Trazado 1035033" d="M28.692,12.041a4.927,4.927,0,0,0-7.357-.717A35.753,35.753,0,0,0,10.273,42.015l2.222,17.279a10.159,10.159,0,0,0,20.152,0l2.7-21.035A36.778,36.778,0,0,0,28.692,12.041Zm0,0" transform="translate(-8.802 -8.817)" fill="#ffb954"/>
      <path id="Trazado_1035034" data-name="Trazado 1035034" d="M72.378,277.581c0-6.4-3.2-11.581-7.149-11.581s-7.15,5.185-7.15,11.581,3.2,11.581,7.15,11.581S72.378,283.977,72.378,277.581Zm0,0" transform="translate(-51.213 -234.557)" fill="#feda9b"/>
      <path id="Trazado_1035035" data-name="Trazado 1035035" d="M291.783,12.041a4.927,4.927,0,0,1,7.357-.717A35.752,35.752,0,0,1,310.2,42.015L307.98,59.294a10.159,10.159,0,0,1-20.152,0l-2.7-21.035A36.78,36.78,0,0,1,291.783,12.041Zm0,0" transform="translate(-251.154 -8.817)" fill="#ffb954"/>
      <path id="Trazado_1035036" data-name="Trazado 1035036" d="M347.221,277.581c0-6.4-3.2-11.581-7.15-11.581s-7.149,5.185-7.149,11.581,3.2,11.581,7.149,11.581S347.221,283.977,347.221,277.581Zm0,0" transform="translate(-293.567 -234.557)" fill="#feda9b"/>
      <path id="Trazado_1035037" data-name="Trazado 1035037" d="M13.769,60.526A11.367,11.367,0,0,1,2.521,50.632L.3,33.353A37.019,37.019,0,0,1,11.727,1.646a6.11,6.11,0,0,1,9.123.889,38.091,38.091,0,0,1,3.292,5.478,1.182,1.182,0,1,1-2.122,1.043,35.729,35.729,0,0,0-3.087-5.137,3.746,3.746,0,0,0-5.592-.545,34.65,34.65,0,0,0-10.7,29.677L4.866,50.33a8.977,8.977,0,0,0,17.807,0l2.7-21.035a35.555,35.555,0,0,0-.294-10.964,1.182,1.182,0,1,1,2.325-.427A37.9,37.9,0,0,1,27.722,29.6l-2.7,21.035A11.366,11.366,0,0,1,13.769,60.526Zm0,0" transform="translate(0 -0.003)"/>
      <path id="Trazado_1035038" data-name="Trazado 1035038" d="M202.02,102.385a1.183,1.183,0,0,1-1.122-.809l-.024-.074a1.182,1.182,0,0,1,2.239-.759l.029.085a1.183,1.183,0,0,1-1.122,1.557Zm0,0" transform="translate(-177.073 -88.127)"/>
      <path id="Trazado_1035039" data-name="Trazado 1035039" d="M56.41,281.526c-2.335,0-4.488-1.4-6.062-3.953a18.227,18.227,0,0,1,0-17.62C51.922,257.4,54.075,256,56.41,256s4.487,1.4,6.062,3.953a18.231,18.231,0,0,1,0,17.62C60.9,280.122,58.745,281.526,56.41,281.526Zm0-23.162c-3.235,0-5.968,4.762-5.968,10.4s2.733,10.4,5.968,10.4,5.967-4.762,5.967-10.4S59.645,258.364,56.41,258.364Zm0,0" transform="translate(-42.395 -225.739)"/>
      <path id="Trazado_1035040" data-name="Trazado 1035040" d="M289.065,60.523a11.366,11.366,0,0,1-11.249-9.895l-2.7-21.035a37.828,37.828,0,0,1,6.873-27.062,6.109,6.109,0,0,1,9.123-.889,37.022,37.022,0,0,1,11.427,31.706l-2.222,17.279A11.366,11.366,0,0,1,289.065,60.523ZM283.9,3.916a35.475,35.475,0,0,0-6.445,25.376l2.7,21.035a8.977,8.977,0,0,0,17.807,0l2.222-17.279a34.651,34.651,0,0,0-10.7-29.677,3.745,3.745,0,0,0-5.592.545Zm0,0" transform="translate(-242.315 0)"/>
      <path id="Trazado_1035041" data-name="Trazado 1035041" d="M331.253,281.526c-2.335,0-4.487-1.4-6.062-3.953a18.231,18.231,0,0,1,0-17.62c1.574-2.549,3.727-3.953,6.062-3.953s4.488,1.4,6.062,3.953a18.227,18.227,0,0,1,0,17.62C335.741,280.122,333.589,281.526,331.253,281.526Zm0-23.162c-3.235,0-5.967,4.762-5.967,10.4s2.733,10.4,5.967,10.4,5.968-4.762,5.968-10.4S334.489,258.364,331.253,258.364Zm0,0" transform="translate(-284.749 -225.739)"/>
      <path id="Trazado_1035042" data-name="Trazado 1035042" d="M389.073,75.307a1.18,1.18,0,0,1-.928-.448l-.011-.014a1.182,1.182,0,0,1,1.86-1.459l.011.014a1.182,1.182,0,0,1-.932,1.908Zm0,0" transform="translate(-342.033 -64.316)"/>
      <path id="Trazado_1035043" data-name="Trazado 1035043" d="M415.386,120.38a1.182,1.182,0,0,1-1.175-1.066,29.227,29.227,0,0,0-3.675-11.526,1.182,1.182,0,0,1,2.053-1.172,31.622,31.622,0,0,1,3.974,12.466,1.182,1.182,0,0,1-1.06,1.292A1.13,1.13,0,0,1,415.386,120.38Zm0,0" transform="translate(-361.869 -93.488)"/>
    </g>
  </g>
</svg>
