<svg xmlns="http://www.w3.org/2000/svg" xmlns:xlink="http://www.w3.org/1999/xlink" width="116" height="116" viewBox="0 0 116 116">
  <defs>
    <filter id="Rect치ngulo_405283" x="0" y="0" width="116" height="116" filterUnits="userSpaceOnUse">
      <feOffset dx="6" dy="7" input="SourceAlpha"/>
      <feGaussianBlur stdDeviation="4" result="blur"/>
      <feFlood flood-opacity="0.251"/>
      <feComposite operator="in" in2="blur"/>
      <feComposite in="SourceGraphic"/>
    </filter>
  </defs>
  <g id="Grupo_1178896" data-name="Grupo 1178896" transform="translate(-1094 -1296)">
    <g transform="matrix(1, 0, 0, 1, 1094, 1296)" filter="url(#Rect치ngulo_405283)">
      <g id="Rect치ngulo_405283-2" data-name="Rect치ngulo 405283" transform="translate(6 5)" fill="#e0ee33" stroke="#fff" stroke-width="3">
        <path d="M0,0H63A29,29,0,0,1,92,29V63A29,29,0,0,1,63,92H29A29,29,0,0,1,0,63V0A0,0,0,0,1,0,0Z" stroke="none"/>
        <path d="M1.5,1.5H63A27.5,27.5,0,0,1,90.5,29V63A27.5,27.5,0,0,1,63,90.5H29A27.5,27.5,0,0,1,1.5,63V1.5A0,0,0,0,1,1.5,1.5Z" fill="none"/>
      </g>
    </g>
    <g id="Grupo_1178895" data-name="Grupo 1178895" transform="translate(1098.556 1299.005)">
      <g id="Grupo_1178894" data-name="Grupo 1178894" transform="translate(17.06 17.061)">
        <path id="Trazado_1035044" data-name="Trazado 1035044" d="M43.168,24,30.389,28.26S35.714,45.3,24,52.752c1.232,6.332,3.195,12.422,3.195,18.1a44.6,44.6,0,0,1-2.13,14.909H53.817V34.649S46.363,31.454,43.168,24Z" transform="translate(-24 -24)" fill="#e8edf1"/>
        <path id="Trazado_1035045" data-name="Trazado 1035045" d="M307.687,40.519,303.428,71.4H284.26L280,40.519a47.2,47.2,0,0,0,6.389-5.324,10.294,10.294,0,0,1,14.909,0A47.2,47.2,0,0,0,307.687,40.519Z" transform="translate(-245.923 -30.935)" fill="#e8edf1"/>
        <path id="Trazado_1035046" data-name="Trazado 1035046" d="M296,384h25.557v12.779H296Z" transform="translate(-259.794 -336.08)" fill="#e8edf1"/>
      </g>
      <path id="Trazado_1035047" data-name="Trazado 1035047" d="M47.942,78.824V27.71a1.065,1.065,0,0,0-.646-.979c-.07-.03-7.1-3.107-10.09-10.09a1.065,1.065,0,0,0-1.316-.591l-12.779,4.26a1.065,1.065,0,0,0-.68,1.328,31.524,31.524,0,0,1,1.15,9.107c-.167,6.513-2.554,11.281-7.095,14.171a1.065,1.065,0,0,0-.474,1.1c.369,1.895.8,3.777,1.226,5.6,1,4.333,1.95,8.425,1.95,12.3a43.234,43.234,0,0,1-2.067,14.549,1.065,1.065,0,0,0,1,1.424H46.877A1.065,1.065,0,0,0,47.942,78.824Zm-2.13-14.91h-2.13a1.065,1.065,0,0,0,0,2.13h2.13V77.76H35.163V75.63a1.065,1.065,0,1,0-2.13,0v2.13H19.6A47.974,47.974,0,0,0,21.32,63.916c0-4.119-.974-8.327-2-12.782-.365-1.578-.741-3.2-1.072-4.83,4.713-3.29,7.292-8.634,7.469-15.505a34.111,34.111,0,0,0-.972-8.786l10.919-3.64A23.364,23.364,0,0,0,45.812,28.382Z" transform="translate(0 0)"/>
      <path id="Trazado_1035048" data-name="Trazado 1035048" d="M301.343,32.7a46.411,46.411,0,0,1-6.227-5.191,11.358,11.358,0,0,0-16.415,0,46.6,46.6,0,0,1-6.227,5.191,1.065,1.065,0,0,0-.464,1.031l4.26,30.882a1.065,1.065,0,0,0,1.055.92h19.168a1.065,1.065,0,0,0,1.055-.919l4.26-30.882a1.065,1.065,0,0,0-.464-1.031Zm-5.778,30.7H278.252l-4.043-29.315a49.147,49.147,0,0,0,6-5.073,9.229,9.229,0,0,1,13.4,0,49.149,49.149,0,0,0,6,5.073Z" transform="translate(-221.928 -6.939)"/>
      <path id="Trazado_1035049" data-name="Trazado 1035049" d="M145.065,60.26a1.065,1.065,0,0,0,1.065-1.065v-2.13a1.065,1.065,0,0,0-2.13,0v2.13A1.065,1.065,0,0,0,145.065,60.26Z" transform="translate(-110.967 -34.68)"/>
      <path id="Trazado_1035050" data-name="Trazado 1035050" d="M377.065,60.26a1.065,1.065,0,0,0,1.065-1.065v-2.13a1.065,1.065,0,0,0-2.13,0v2.13A1.065,1.065,0,0,0,377.065,60.26Z" transform="translate(-312.085 -34.68)"/>
      <path id="Trazado_1035051" data-name="Trazado 1035051" d="M377.065,128A1.065,1.065,0,0,0,376,129.065v2.13a1.065,1.065,0,0,0,2.13,0v-2.13A1.065,1.065,0,0,0,377.065,128Z" transform="translate(-312.085 -97.096)"/>
      <path id="Trazado_1035052" data-name="Trazado 1035052" d="M377.065,176A1.065,1.065,0,0,0,376,177.065v2.13a1.065,1.065,0,0,0,2.13,0v-2.13A1.065,1.065,0,0,0,377.065,176Z" transform="translate(-312.085 -138.706)"/>
      <path id="Trazado_1035053" data-name="Trazado 1035053" d="M377.065,224A1.065,1.065,0,0,0,376,225.065v2.13a1.065,1.065,0,0,0,2.13,0v-2.13A1.065,1.065,0,0,0,377.065,224Z" transform="translate(-312.085 -180.317)"/>
      <path id="Trazado_1035054" data-name="Trazado 1035054" d="M377.065,272A1.065,1.065,0,0,0,376,273.065v2.13a1.065,1.065,0,0,0,2.13,0v-2.13A1.065,1.065,0,0,0,377.065,272Z" transform="translate(-312.085 -221.928)"/>
      <path id="Trazado_1035055" data-name="Trazado 1035055" d="M52.26,249.065A1.065,1.065,0,0,0,51.195,248h-2.13a1.065,1.065,0,1,0,0,2.13h2.13A1.065,1.065,0,0,0,52.26,249.065Z" transform="translate(-27.745 -201.122)"/>
      <path id="Trazado_1035056" data-name="Trazado 1035056" d="M355.195,424h-2.13a1.065,1.065,0,1,0,0,2.13h2.13a1.065,1.065,0,0,0,0-2.13Z" transform="translate(-291.279 -353.695)"/>
      <path id="Trazado_1035057" data-name="Trazado 1035057" d="M401.065,426.13h2.13a1.065,1.065,0,0,0,0-2.13h-2.13a1.065,1.065,0,1,0,0,2.13Z" transform="translate(-332.89 -353.695)"/>
      <path id="Trazado_1035058" data-name="Trazado 1035058" d="M315.687,377.065A1.065,1.065,0,0,0,314.622,376H289.065A1.065,1.065,0,0,0,288,377.065v12.779a1.065,1.065,0,0,0,1.065,1.065h25.558a1.065,1.065,0,0,0,1.065-1.065Zm-2.13,5.324h-3.195a1.065,1.065,0,1,0,0,2.13h3.195v4.26H302.909v-2.13a1.065,1.065,0,0,0-2.13,0v2.13H290.13v-4.26h3.195a1.065,1.065,0,0,0,0-2.13H290.13v-4.26h10.649v1.065a1.065,1.065,0,0,0,2.13,0V378.13h10.649Z" transform="translate(-235.798 -312.084)"/>
      <path id="Trazado_1035059" data-name="Trazado 1035059" d="M306.13,96h-1.065a1.065,1.065,0,1,0,0,2.13h1.065a1.065,1.065,0,0,0,0-2.13Z" transform="translate(-249.669 -69.355)"/>
      <path id="Trazado_1035060" data-name="Trazado 1035060" d="M347.195,96h-2.13a1.065,1.065,0,0,0,0,2.13h2.13a1.065,1.065,0,1,0,0-2.13Z" transform="translate(-284.344 -69.355)"/>
      <path id="Trazado_1035061" data-name="Trazado 1035061" d="M395.195,96h-2.13a1.065,1.065,0,0,0,0,2.13h2.13a1.065,1.065,0,1,0,0-2.13Z" transform="translate(-325.955 -69.355)"/>
      <path id="Trazado_1035062" data-name="Trazado 1035062" d="M441.065,98.13h1.065a1.065,1.065,0,0,0,0-2.13h-1.065a1.065,1.065,0,0,0,0,2.13Z" transform="translate(-367.565 -69.355)"/>
      <path id="Trazado_1035063" data-name="Trazado 1035063" d="M75.195,376.007h-2.13a1.065,1.065,0,1,0,0,2.13h2.13a1.065,1.065,0,1,0,0-2.13Z" transform="translate(-48.551 -312.09)"/>
      <path id="Trazado_1035064" data-name="Trazado 1035064" d="M124.26,377.065A1.065,1.065,0,0,0,123.195,376h-2.13a1.065,1.065,0,0,0,0,2.13h2.13A1.065,1.065,0,0,0,124.26,377.065Z" transform="translate(-90.161 -312.084)"/>
      <path id="Trazado_1035065" data-name="Trazado 1035065" d="M171.195,375.993h-2.13a1.065,1.065,0,1,0,0,2.13h2.13a1.065,1.065,0,1,0,0-2.13Z" transform="translate(-131.772 -312.078)"/>
      <path id="Trazado_1035066" data-name="Trazado 1035066" d="M97.065,250.13h2.13a1.065,1.065,0,1,0,0-2.13h-2.13a1.065,1.065,0,1,0,0,2.13Z" transform="translate(-69.356 -201.122)"/>
      <path id="Trazado_1035067" data-name="Trazado 1035067" d="M145.065,250.13h2.13a1.065,1.065,0,1,0,0-2.13h-2.13a1.065,1.065,0,1,0,0,2.13Z" transform="translate(-110.967 -201.122)"/>
      <path id="Trazado_1035068" data-name="Trazado 1035068" d="M193.065,250.13h2.13a1.065,1.065,0,1,0,0-2.13h-2.13a1.065,1.065,0,1,0,0,2.13Z" transform="translate(-152.577 -201.122)"/>
      <path id="Trazado_1035069" data-name="Trazado 1035069" d="M145.065,108.26a1.065,1.065,0,0,0,1.065-1.065v-2.13a1.065,1.065,0,1,0-2.13,0v2.13A1.065,1.065,0,0,0,145.065,108.26Z" transform="translate(-110.967 -76.29)"/>
      <path id="Trazado_1035070" data-name="Trazado 1035070" d="M145.065,156.26a1.065,1.065,0,0,0,1.065-1.065v-2.13a1.065,1.065,0,1,0-2.13,0v2.13A1.065,1.065,0,0,0,145.065,156.26Z" transform="translate(-110.967 -117.901)"/>
      <path id="Trazado_1035071" data-name="Trazado 1035071" d="M145.065,204.26a1.065,1.065,0,0,0,1.065-1.065v-2.13a1.065,1.065,0,1,0-2.13,0v2.13A1.065,1.065,0,0,0,145.065,204.26Z" transform="translate(-110.967 -159.512)"/>
      <path id="Trazado_1035072" data-name="Trazado 1035072" d="M145.065,280A1.065,1.065,0,0,0,144,281.065v2.13a1.065,1.065,0,1,0,2.13,0v-2.13A1.065,1.065,0,0,0,145.065,280Z" transform="translate(-110.967 -228.863)"/>
      <path id="Trazado_1035073" data-name="Trazado 1035073" d="M145.065,328A1.065,1.065,0,0,0,144,329.065v2.13a1.065,1.065,0,1,0,2.13,0v-2.13A1.065,1.065,0,0,0,145.065,328Z" transform="translate(-110.967 -270.473)"/>
      <path id="Trazado_1035074" data-name="Trazado 1035074" d="M145.065,408A1.065,1.065,0,0,0,144,409.065v2.13a1.065,1.065,0,1,0,2.13,0v-2.13A1.065,1.065,0,0,0,145.065,408Z" transform="translate(-110.967 -339.824)"/>
    </g>
  </g>
</svg>
