<svg xmlns="http://www.w3.org/2000/svg" xmlns:xlink="http://www.w3.org/1999/xlink" width="116" height="116" viewBox="0 0 116 116">
  <defs>
    <filter id="Rect치ngulo_401369" x="0" y="0" width="116" height="116" filterUnits="userSpaceOnUse">
      <feOffset dx="6" dy="7" input="SourceAlpha"/>
      <feGaussianBlur stdDeviation="4" result="blur"/>
      <feFlood flood-opacity="0.251"/>
      <feComposite operator="in" in2="blur"/>
      <feComposite in="SourceGraphic"/>
    </filter>
  </defs>
  <g id="Grupo_1178937" data-name="Grupo 1178937" transform="translate(-628.051 -2247)">
    <g transform="matrix(1, 0, 0, 1, 628.05, 2247)" filter="url(#Rect치ngulo_401369)">
      <g id="Rect치ngulo_401369-2" data-name="Rect치ngulo 401369" transform="translate(6 5)" fill="#e0ee33" stroke="#fff" stroke-width="3">
        <path d="M0,0H63A29,29,0,0,1,92,29V63A29,29,0,0,1,63,92H29A29,29,0,0,1,0,63V0A0,0,0,0,1,0,0Z" stroke="none"/>
        <path d="M1.5,1.5H63A27.5,27.5,0,0,1,90.5,29V63A27.5,27.5,0,0,1,63,90.5H29A27.5,27.5,0,0,1,1.5,63V1.5A0,0,0,0,1,1.5,1.5Z" fill="none"/>
      </g>
    </g>
    <g id="Grupo_1178936" data-name="Grupo 1178936" transform="translate(645.855 2221.603)">
      <path id="Trazado_1035186" data-name="Trazado 1035186" d="M73.719,69.237H7.668a.168.168,0,0,0-.168.168v51.3a.168.168,0,0,0,.168.168h66.05a.168.168,0,0,0,.168-.168v-51.3A.168.168,0,0,0,73.719,69.237Zm-39.4,23.857-.07.093a11.992,11.992,0,0,0-.7,1.041h0L19.6,94.962a48.366,48.366,0,0,1,2.134-13.524l.745-2.423a6.015,6.015,0,0,1,5.749-4.246h4.506A4.269,4.269,0,0,1,37,79.036l0,6A13.424,13.424,0,0,1,34.321,93.094Z" transform="translate(-6.498 -17.787)" fill="#f79595"/>
      <path id="Trazado_1035187" data-name="Trazado 1035187" d="M73.719,69.237H68.544V108.8a9.4,9.4,0,0,1-9.4,9.4H7.5v2.5a.168.168,0,0,0,.168.168h66.05a.168.168,0,0,0,.168-.168v-51.3a.168.168,0,0,0-.168-.168Z" transform="translate(-6.498 -17.787)" fill="#f37c7c"/>
      <path id="Trazado_1035188" data-name="Trazado 1035188" d="M77.346,74.625l.07-.093A13.423,13.423,0,0,0,80.1,66.47l0-6a4.269,4.269,0,0,0-4.269-4.267H71.322a6.015,6.015,0,0,0-5.749,4.246l-.745,2.423A48.366,48.366,0,0,0,62.694,76.4l13.953-.734A12.032,12.032,0,0,1,77.346,74.625Z" transform="translate(-54.32 -6.497)" fill="#f9b1b1"/>
      <path id="Trazado_1035189" data-name="Trazado 1035189" d="M110.125,396.3a7.254,7.254,0,0,0,3.4,1.753,1,1,0,0,0,.413-1.961,5.248,5.248,0,0,1-2.463-1.269,1,1,0,0,0-1.354,1.477Z" transform="translate(-95.133 -299.653)"/>
      <path id="Trazado_1035190" data-name="Trazado 1035190" d="M131.4,306.63a1,1,0,0,0-.258-1.987,14.966,14.966,0,0,1-3.123.077,1,1,0,0,0-.161,2A16.957,16.957,0,0,0,131.4,306.63Z" transform="translate(-109.981 -221.742)"/>
      <path id="Trazado_1035191" data-name="Trazado 1035191" d="M94.12,350.818a7.286,7.286,0,0,0,.263,1.649,1,1,0,1,0,1.929-.541,5.273,5.273,0,0,1-.19-1.195l-.082-1.894a1,1,0,1,0-2,.087Z" transform="translate(-81.476 -259.209)"/>
      <path id="Trazado_1035192" data-name="Trazado 1035192" d="M95.066,298.68a1,1,0,0,0-.662-1.253c-.406-.125-.811-.27-1.206-.429a1,1,0,0,0-1.377.972l.145,3.336a1,1,0,0,0,2-.087l-.081-1.857A1,1,0,0,0,95.066,298.68Z" transform="translate(-79.555 -215.061)"/>
      <path id="Trazado_1035193" data-name="Trazado 1035193" d="M177.9,298.686l.141,1.406a1,1,0,1,0,1.994-.2l-.165-1.646c-.028-.278-.045-.561-.052-.842a1,1,0,0,0-1.388-.9c-.22.092-.444.179-.667.26a1,1,0,0,0,.138,1.923Z" transform="translate(-153.442 -214.628)"/>
      <path id="Trazado_1035194" data-name="Trazado 1035194" d="M158.7,393.739a7.27,7.27,0,0,0,3.13-2.2,1,1,0,1,0-1.543-1.278,5.264,5.264,0,0,1-2.266,1.6,1,1,0,1,0,.679,1.885Z" transform="translate(-136.34 -295.613)"/>
      <path id="Trazado_1035195" data-name="Trazado 1035195" d="M187.853,346.83a1,1,0,0,0,.992-.867,7.291,7.291,0,0,0,.029-1.71l-.185-1.851a1,1,0,0,0-1.994.2l.185,1.851a5.285,5.285,0,0,1-.021,1.241A1,1,0,0,0,187.853,346.83Z" transform="translate(-161.752 -253.681)"/>
      <path id="Trazado_1035196" data-name="Trazado 1035196" d="M131.235,331.947a1,1,0,0,0-1-1h-4.981a1,1,0,0,0,0,2h4.981A1,1,0,0,0,131.235,331.947Z" transform="translate(-107.653 -244.537)"/>
      <path id="Trazado_1035197" data-name="Trazado 1035197" d="M99.647,143.516a1,1,0,1,0,0-2H91.8a1,1,0,0,0,0,2Z" transform="translate(-78.673 -80.408)"/>
      <path id="Trazado_1035198" data-name="Trazado 1035198" d="M351.422,251.376l-3.335-.176a1,1,0,0,0-.105,2l3.335.176a1,1,0,0,0,.105-2Z" transform="translate(-300.677 -175.443)"/>
      <path id="Trazado_1035199" data-name="Trazado 1035199" d="M355.946,106a7.011,7.011,0,0,0-3.392-1.811,1,1,0,0,0-.423,1.959,5.01,5.01,0,0,1,2.423,1.294A1,1,0,0,0,355.946,106Z" transform="translate(-304.41 -48.049)"/>
      <path id="Trazado_1035200" data-name="Trazado 1035200" d="M399.193,188.48c.216,1.063.4,2.148.542,3.225a1,1,0,1,0,1.986-.264c-.149-1.122-.339-2.253-.565-3.361a1,1,0,1,0-1.963.4Z" transform="translate(-345.853 -120.061)"/>
      <path id="Trazado_1035201" data-name="Trazado 1035201" d="M285.982,223.877a12.512,12.512,0,0,1,.711,1.047,1,1,0,0,0,.807.486l2.552.134a1,1,0,0,0,.105-2l-2.032-.107c-.009-.013-.5-.71-.539-.762A12.439,12.439,0,0,1,286.1,220.1a1,1,0,1,0-1.843.787A14.444,14.444,0,0,0,285.982,223.877Z" transform="translate(-246.216 -147.969)"/>
      <path id="Trazado_1035202" data-name="Trazado 1035202" d="M388.41,140.789l-.616-2a1,1,0,1,0-1.915.589l.616,2c.119.388.235.781.343,1.169a1,1,0,1,0,1.93-.54c-.113-.4-.234-.814-.358-1.218Z" transform="translate(-334.296 -77.433)"/>
      <path id="Trazado_1035203" data-name="Trazado 1035203" d="M276.111,171.982a14.506,14.506,0,0,0,.151,2.079,1,1,0,1,0,1.983-.289,12.509,12.509,0,0,1-.13-1.8v-1.39a1,1,0,1,0-2,0Z" transform="translate(-239.229 -104.728)"/>
      <path id="Trazado_1035204" data-name="Trazado 1035204" d="M277.132,124.555a1,1,0,0,0,1-1v-1.133a3.265,3.265,0,0,1,.426-1.613,1,1,0,0,0-1.741-.992,5.273,5.273,0,0,0-.689,2.6v1.133A1,1,0,0,0,277.132,124.555Z" transform="translate(-239.247 -61.171)"/>
      <path id="Trazado_1035205" data-name="Trazado 1035205" d="M304.816,103.153H302.5a5.294,5.294,0,0,0-1.254.15,1,1,0,1,0,.475,1.947,3.287,3.287,0,0,1,.779-.093h2.313a1,1,0,0,0,0-2Z" transform="translate(-260.347 -47.172)"/>
      <path id="Trazado_1035206" data-name="Trazado 1035206" d="M401.1,241c-.011-.746-.039-1.5-.084-2.252a1,1,0,0,0-2,.12c.022.362.039.725.053,1.089l-.048,0a1,1,0,0,0-.105,2l1.13.059A1,1,0,0,0,401.1,241Z" transform="translate(-344.806 -163.839)"/>
      <path id="Trazado_1035207" data-name="Trazado 1035207" d="M401.383,353.162a1,1,0,0,0,1.235-.694,7.3,7.3,0,0,0,.263-1.649l.082-1.894a1,1,0,1,0-2-.087l-.082,1.894a5.29,5.29,0,0,1-.19,1.2,1,1,0,0,0,.694,1.235Z" transform="translate(-347.134 -259.209)"/>
      <path id="Trazado_1035208" data-name="Trazado 1035208" d="M398.832,297.97a1,1,0,0,0-1.377-.972c-.394.16-.8.3-1.206.429a1,1,0,0,0,.517,1.934l-.081,1.858a1,1,0,0,0,2,.087Z" transform="translate(-342.707 -215.061)"/>
      <path id="Trazado_1035209" data-name="Trazado 1035209" d="M366.449,398.052a7.253,7.253,0,0,0,3.4-1.753,1,1,0,1,0-1.354-1.477,5.25,5.25,0,0,1-2.463,1.269,1,1,0,0,0,.413,1.961Z" transform="translate(-316.453 -299.654)"/>
      <path id="Trazado_1035210" data-name="Trazado 1035210" d="M322.8,393.738a1,1,0,0,0,.679-1.885,5.266,5.266,0,0,1-2.266-1.6,1,1,0,0,0-1.543,1.278A7.27,7.27,0,0,0,322.8,393.738Z" transform="translate(-276.771 -295.612)"/>
      <path id="Trazado_1035211" data-name="Trazado 1035211" d="M349.368,304.72a14.977,14.977,0,0,1-3.123-.077,1,1,0,1,0-.258,1.987,16.966,16.966,0,0,0,3.542.088,1,1,0,0,0-.16-2Z" transform="translate(-299.015 -221.741)"/>
      <path id="Trazado_1035212" data-name="Trazado 1035212" d="M309.741,346.831a1,1,0,0,0,.994-1.137,5.272,5.272,0,0,1-.021-1.24l.186-1.851a1,1,0,1,0-1.994-.2l-.186,1.851a7.292,7.292,0,0,0,.029,1.711A1,1,0,0,0,309.741,346.831Z" transform="translate(-267.451 -253.682)"/>
      <path id="Trazado_1035213" data-name="Trazado 1035213" d="M315.181,296.763c-.223-.081-.447-.168-.667-.26a1,1,0,0,0-1.388.9c-.006.281-.024.564-.052.842l-.165,1.645a1,1,0,1,0,1.994.2l.141-1.406a1,1,0,0,0,.138-1.923Z" transform="translate(-271.108 -214.628)"/>
      <path id="Trazado_1035214" data-name="Trazado 1035214" d="M342.443,331.947a1,1,0,0,0-1-1H336.46a1,1,0,0,0,0,2h4.981A1,1,0,0,0,342.443,331.947Z" transform="translate(-290.649 -244.537)"/>
      <path id="Trazado_1035215" data-name="Trazado 1035215" d="M312.1,196.959a1,1,0,0,0,1,1h7.843a1,1,0,0,0,0-2H313.1A1,1,0,0,0,312.1,196.959Z" transform="translate(-270.407 -127.58)"/>
      <path id="Trazado_1035216" data-name="Trazado 1035216" d="M25.916,77.5l1.191-.063a1.012,1.012,0,0,0,.813-.5A11.024,11.024,0,0,1,28.554,76l.069-.093a14.44,14.44,0,0,0,2.885-8.668l0-5.991a5.279,5.279,0,0,0-4.725-5.24V53.976a5.25,5.25,0,0,0-.226-1.524H66.387V58.7a1.03,1.03,0,0,0,.971,1.043,1,1,0,0,0,1.033-1V51.619a1.17,1.17,0,0,0-1.17-1.17h-41.8a5.259,5.259,0,0,0-3.91-1.74H17a6.994,6.994,0,0,0-4.638,1.74H1.17A1.17,1.17,0,0,0,0,51.619v51.3a1.17,1.17,0,0,0,1.17,1.17h66.05a1.17,1.17,0,0,0,1.17-1.17V63.458a1.03,1.03,0,0,0-.971-1.043,1,1,0,0,0-1.033,1v38.667H2V52.452h8.789a7.131,7.131,0,0,0-.48,1.156,1.031,1.031,0,0,0,.537,1.265,1,1,0,0,0,1.362-.622A4.988,4.988,0,0,1,17,50.712h4.506a3.272,3.272,0,0,1,3.268,3.266c0,.964,0,5.073,0,6a12.5,12.5,0,0,1-2.484,7.46l-.07.093c-.163.217-.32.441-.469.669L9.4,68.845a47.426,47.426,0,0,1,1.442-9.971,1.032,1.032,0,0,0-.679-1.256,1,1,0,0,0-1.25.713A49.43,49.43,0,0,0,7.373,69.888,1,1,0,0,0,8.427,70.9l4.194-.221a49.54,49.54,0,0,0-.521,6.461,1.023,1.023,0,0,0,.074.414,1,1,0,0,0,.927.62c.041,0-.434.024,8.065-.423a1.027,1.027,0,0,0,.983-.927A1,1,0,0,0,21.1,75.751l-6.966.367a47.586,47.586,0,0,1,.533-5.543l7.717-.406a1.012,1.012,0,0,0,.813-.5,11.085,11.085,0,0,1,.635-.945l.07-.093a14.426,14.426,0,0,0,2.885-8.663V58.03a3.273,3.273,0,0,1,2.72,3.22l0,6a12.5,12.5,0,0,1-2.485,7.46l-.069.093c-.163.217-.32.441-.47.669l-.671.035a1,1,0,0,0,.105,2Z"/>
    </g>
  </g>
</svg>
