<svg xmlns="http://www.w3.org/2000/svg" xmlns:xlink="http://www.w3.org/1999/xlink" width="116" height="116" viewBox="0 0 116 116">
  <defs>
    <filter id="Rect치ngulo_405286" x="0" y="0" width="116" height="116" filterUnits="userSpaceOnUse">
      <feOffset dx="6" dy="7" input="SourceAlpha"/>
      <feGaussianBlur stdDeviation="4" result="blur"/>
      <feFlood flood-opacity="0.251"/>
      <feComposite operator="in" in2="blur"/>
      <feComposite in="SourceGraphic"/>
    </filter>
  </defs>
  <g id="Grupo_1178898" data-name="Grupo 1178898" transform="translate(989.676 10312.038)">
    <g transform="matrix(1, 0, 0, 1, -989.68, -10312.04)" filter="url(#Rect치ngulo_405286)">
      <g id="Rect치ngulo_405286-2" data-name="Rect치ngulo 405286" transform="translate(6 5)" fill="#e0ee33" stroke="#fff" stroke-width="3">
        <path d="M0,0H63A29,29,0,0,1,92,29V63A29,29,0,0,1,63,92H29A29,29,0,0,1,0,63V0A0,0,0,0,1,0,0Z" stroke="none"/>
        <path d="M1.5,1.5H63A27.5,27.5,0,0,1,90.5,29V63A27.5,27.5,0,0,1,63,90.5H29A27.5,27.5,0,0,1,1.5,63V1.5A0,0,0,0,1,1.5,1.5Z" fill="none"/>
      </g>
    </g>
    <g id="Grupo_1178897" data-name="Grupo 1178897" transform="translate(-988.838 -10367.217)">
      <path id="Trazado_1035075" data-name="Trazado 1035075" d="M90.642,200v22.611l-10.71,10.71H24V200Z" transform="translate(-6.81 -102.151)" fill="#fae8d8"/>
      <path id="Trazado_1035076" data-name="Trazado 1035076" d="M410.71,345.18,400,355.891c1.469-3.814,1.7-7.423,0-10.71C403.287,343.476,406.9,343.712,410.71,345.18Z" transform="translate(-326.878 -224.721)" fill="#e2d2c2"/>
      <path id="Trazado_1035077" data-name="Trazado 1035077" d="M270,101.09c-6.609,13.467-14.817,19.746-28.561,23.8-8.486-11.547-11.221-22.171-8.33-36.891C246.907,89.3,258.235,93.776,270,101.09Z" transform="translate(-183.869 -6.812)" fill="#c2856c"/>
      <circle id="Elipse_11710" data-name="Elipse 11710" cx="8.33" cy="8.33" r="8.33" transform="translate(55.191 91.892)" fill="#ab6647"/>
      <circle id="Elipse_11711" data-name="Elipse 11711" cx="3.57" cy="3.57" r="3.57" transform="translate(59.951 96.653)" fill="#c2856c"/>
      <path id="Trazado_1035078" data-name="Trazado 1035078" d="M16,97.849V131.17a1.19,1.19,0,0,0,1.19,1.19H73.122a1.19,1.19,0,0,0,.842-.349l10.71-10.71a1.19,1.19,0,0,0,.349-.842V98.89q1.126-1.936,2.18-4.087a1.19,1.19,0,0,0-.44-1.535C73.989,85.329,62.452,81.238,49.355,80a1.191,1.191,0,0,0-1.279.956,50.8,50.8,0,0,0-.872,15.7H17.19A1.19,1.19,0,0,0,16,97.849Zm59.388,29.372a12.212,12.212,0,0,0-.688-6.164,10.958,10.958,0,0,1,6.929-.077ZM50.21,82.482c11.958,1.285,22.645,5.091,34.372,12.239a42.265,42.265,0,0,1-10.806,14.067c-4.1,3.356-9.119,5.879-15.736,7.909-7.9-11.015-10.2-21.055-7.829-34.215ZM18.38,119.27h5.95a1.19,1.19,0,1,0,0-2.38H18.38V99.039H47.55a45.055,45.055,0,0,0,7.718,17.851H52.891a1.19,1.19,0,1,0,0,2.38h4.76a1.184,1.184,0,0,0,.554-.137c11.218-3.357,18.643-8.259,24.437-16.511v16.172a12.938,12.938,0,0,0-10.068.61,1.19,1.19,0,0,0-.509,1.6c1.33,2.565,1.4,5.507.223,8.972H18.38Z"/>
      <path id="Trazado_1035079" data-name="Trazado 1035079" d="M104.33,328H97.19a1.19,1.19,0,1,0,0,2.38h7.14a1.19,1.19,0,0,0,0-2.38Z" transform="translate(-68.1 -211.111)"/>
      <path id="Trazado_1035080" data-name="Trazado 1035080" d="M184.33,328h-7.14a1.19,1.19,0,1,0,0,2.38h7.14a1.19,1.19,0,1,0,0-2.38Z" transform="translate(-136.199 -211.111)"/>
      <path id="Trazado_1035081" data-name="Trazado 1035081" d="M280.965,170.974a9.523,9.523,0,1,0-3.033-.5A9.523,9.523,0,0,0,280.965,170.974Zm-6.759-11.8a7.14,7.14,0,1,1,4.486,9.047A7.14,7.14,0,0,1,274.207,159.172Z" transform="translate(-217.452 -61.23)"/>
      <path id="Trazado_1035082" data-name="Trazado 1035082" d="M308.212,193.469a4.761,4.761,0,1,0-1.516-.25,4.761,4.761,0,0,0,1.516.25Zm-2.251-5.521a2.38,2.38,0,1,1,1.5,3.016A2.38,2.38,0,0,1,305.96,187.948Z" transform="translate(-244.694 -88.485)"/>
    </g>
  </g>
</svg>
