<svg xmlns="http://www.w3.org/2000/svg" xmlns:xlink="http://www.w3.org/1999/xlink" width="116" height="116" viewBox="0 0 116 116">
  <defs>
    <filter id="Rect치ngulo_401369" x="0" y="0" width="116" height="116" filterUnits="userSpaceOnUse">
      <feOffset dx="6" dy="7" input="SourceAlpha"/>
      <feGaussianBlur stdDeviation="4" result="blur"/>
      <feFlood flood-opacity="0.251"/>
      <feComposite operator="in" in2="blur"/>
      <feComposite in="SourceGraphic"/>
    </filter>
  </defs>
  <g id="Grupo_1178849" data-name="Grupo 1178849" transform="translate(6 5)">
    <g transform="matrix(1, 0, 0, 1, -6, -5)" filter="url(#Rect치ngulo_401369)">
      <g id="Rect치ngulo_401369-2" data-name="Rect치ngulo 401369" transform="translate(6 5)" fill="#e0ee33" stroke="#fff" stroke-width="3">
        <path d="M0,0H63A29,29,0,0,1,92,29V63A29,29,0,0,1,63,92H29A29,29,0,0,1,0,63V0A0,0,0,0,1,0,0Z" stroke="none"/>
        <path d="M1.5,1.5H63A27.5,27.5,0,0,1,90.5,29V63A27.5,27.5,0,0,1,63,90.5H29A27.5,27.5,0,0,1,1.5,63V1.5A0,0,0,0,1,1.5,1.5Z" fill="none"/>
      </g>
    </g>
    <g id="Grupo_1178848" data-name="Grupo 1178848" transform="translate(14 27.198)">
      <path id="Trazado_1034991" data-name="Trazado 1034991" d="M5.539,16.563C3.043,31.03.755,34.622.755,46.015c3.589,1.562,39.583,4.737,62.486-.006,0,0,.334-7.165-3.51-11.647-5.4-6.3-14.2-5.628-21.232-7.194C31.258,25.561,28.721,19.91,26.959,17c-1-1.658-2.107-4.05-4.23-2.6-6.049,4.119-10.077,2.78-13.323.839-1.979-1.184-3.636-.01-3.868,1.331Z" transform="translate(-0.003 -13.198)" fill="#f72121"/>
      <path id="Trazado_1034992" data-name="Trazado 1034992" d="M.841,47.655c0,.09.013.194.013.284,2.092-.155,4.158-.349,6.159-.568.491-.064.968-.116,1.446-.181,2.453-.323,4.816-.71,7.063-1.175,0,0,.336-7.166-3.512-11.659a15.053,15.053,0,0,0-6.236-4.261C1.564,34.162.415,42.193.841,47.655Z" transform="translate(47.713 -13.198)" fill="#f4f4f4"/>
      <path id="Trazado_1034993" data-name="Trazado 1034993" d="M2.053,50.052h59.9a1.291,1.291,0,0,0,1.291-1.291V46.015H.762v2.746A1.291,1.291,0,0,0,2.053,50.052Z" transform="translate(-0.01 -13.198)" fill="#c6c6c6"/>
      <path id="Trazado_1034994" data-name="Trazado 1034994" d="M54.169,46.015v2.75a1.3,1.3,0,0,0,1.291,1.291h3.086a.648.648,0,0,1-.646-.646v-3.4c0-11.388,2.285-14.991,4.79-29.452a2.041,2.041,0,0,1,.555-1.085c-.155-.078-.284-.168-.426-.245-1.975-1.188-3.641-.013-3.874,1.33-2.492,14.461-4.777,18.064-4.777,29.452Z" transform="translate(-53.414 -13.198)" opacity="0.09"/>
      <path id="Trazado_1034995" data-name="Trazado 1034995" d="M21.189,35.738a1.8,1.8,0,0,0,1.025-.708l4.859-6.863a1.811,1.811,0,0,0-2.956-2.092l-4.859,6.863a1.811,1.811,0,0,0,1.931,2.8Z" transform="translate(17.668 -13.198)" fill="#f4f4f4"/>
      <path id="Trazado_1034996" data-name="Trazado 1034996" d="M18.927,34.984a2.178,2.178,0,0,0,.479.479,1.786,1.786,0,0,0,1.494.273,1.762,1.762,0,0,0,1.024-.7l4.862-6.865a1.808,1.808,0,0,0-.429-2.519,1.721,1.721,0,0,0-.89-.319,1.84,1.84,0,0,1-.038,2.036l-4.862,6.865a1.86,1.86,0,0,1-1.025.7,1.9,1.9,0,0,1-.617.049Z" transform="translate(17.955 -13.198)" opacity="0.09"/>
      <path id="Trazado_1034997" data-name="Trazado 1034997" d="M27.089,33.51A1.8,1.8,0,0,0,28.224,33l6.015-5.875a1.811,1.811,0,0,0-2.531-2.59l-6.015,5.875a1.811,1.811,0,0,0,1.4,3.1Z" transform="translate(4.067 -13.198)" fill="#f4f4f4"/>
      <path id="Trazado_1034998" data-name="Trazado 1034998" d="M25.148,32.412a2.182,2.182,0,0,0,.385.558,1.786,1.786,0,0,0,1.421.538A1.761,1.761,0,0,0,28.088,33l6.019-5.877a1.808,1.808,0,0,0,.032-2.555,1.721,1.721,0,0,0-.818-.474,1.84,1.84,0,0,1-.4,2L26.9,31.969a1.86,1.86,0,0,1-1.134.506,1.9,1.9,0,0,1-.616-.063Z" transform="translate(4.2 -13.198)" opacity="0.09"/>
      <path id="Trazado_1034999" data-name="Trazado 1034999" d="M32.2,29.444a1.8,1.8,0,0,0,1.208-.3l6.96-4.719a1.811,1.811,0,0,0-2.033-3l-6.96,4.719a1.811,1.811,0,0,0,.824,3.3Z" transform="translate(-7.742 -13.198)" fill="#f4f4f4"/>
      <path id="Trazado_1035000" data-name="Trazado 1035000" d="M30.579,28.043a2.179,2.179,0,0,0,.28.617,1.786,1.786,0,0,0,1.3.78,1.762,1.762,0,0,0,1.206-.3l6.963-4.72a1.808,1.808,0,0,0,.483-2.509,1.723,1.723,0,0,0-.721-.611,1.84,1.84,0,0,1-.75,1.893l-6.964,4.72a1.86,1.86,0,0,1-1.206.3,1.9,1.9,0,0,1-.6-.171Z" transform="translate(-7.706 -13.198)" opacity="0.09"/>
      <path id="Trazado_1035001" data-name="Trazado 1035001" d="M0,46.012C0,38.626.962,34.433,2.293,28.63c.754-3.293,1.611-7.024,2.5-12.195a3,3,0,0,1,1.7-2.16,3.474,3.474,0,0,1,3.285.31c3.126,1.877,6.807,3.078,12.518-.815a2.725,2.725,0,0,1,2.171-.513c1.337.3,2.149,1.693,2.867,2.918l.258.436c.2.329.413.693.638,1.083A33.073,33.073,0,0,0,30.2,20.788a2.559,2.559,0,0,1,3.552,3.534c.231.16.465.308.7.451L35.251,24a2.671,2.671,0,0,1,1.82-.73,2.549,2.549,0,0,1,2.4,3.321c.3.059.6.12.909.173l.791-1.117a2.554,2.554,0,0,1,4.607,1.906c3.729.522,7.992,1.267,11.561,3.695l.12.08A15.05,15.05,0,0,1,58.834,32.4c.083.073.163.15.245.225a14.721,14.721,0,0,1,1.22,1.25c3.985,4.646,3.706,11.865,3.692,12.17,0,.005,0,.01,0,.015v2.7A2.043,2.043,0,0,1,61.947,50.8H2.043A2.043,2.043,0,0,1,0,48.761V46.023s0-.007,0-.012ZM32.486,22.328a1.051,1.051,0,0,0-.677-.446,1.078,1.078,0,0,0-.2-.02,1.05,1.05,0,0,0-.594.184l-.5.338c-.006,0-.008.012-.015.017s-.029.013-.043.022l-6.4,4.342a1.061,1.061,0,0,0,.485,1.932h0a1.065,1.065,0,0,0,.7-.177L32.2,23.8a1.061,1.061,0,0,0,.281-1.474ZM37.8,25.086a1.05,1.05,0,0,0-.745-.319,1.007,1.007,0,0,0-.754.3l-6.016,5.875a1.061,1.061,0,1,0,1.483,1.518l6.016-5.875a1.063,1.063,0,0,0,.017-1.5Zm.748,2.851-5.731,5.6a2.56,2.56,0,0,1-1.607.724h0c-.06,0-.12.006-.179.006a2.561,2.561,0,0,1-1.791-4.393l4.114-4.017c-.253-.161-.5-.335-.743-.513l-6.52,4.42a2.553,2.553,0,0,1-1.435.442,2.627,2.627,0,0,1-.276-.015,2.561,2.561,0,0,1-1.164-4.666l5.748-3.9a35.246,35.246,0,0,1-2.022-3.182c-.218-.378-.422-.731-.621-1.056l-.271-.457c-.535-.915-1.2-2.054-1.9-2.214a1.211,1.211,0,0,0-1,.292c-6.424,4.38-10.751,2.892-14.129.862a1.967,1.967,0,0,0-1.891-.234,1.483,1.483,0,0,0-.85,1.055c-.9,5.208-1.761,8.961-2.521,12.272A80.707,80.707,0,0,0,1.779,39.8h7.73a.749.749,0,0,1,0,1.5H1.655c-.023.327-.044.659-.062,1H14.245a.749.749,0,0,1,0,1.5H1.533c-.014.474-.023.964-.028,1.467H47.729c.028-4.922,1.213-11.025,4.429-14.839a42.627,42.627,0,0,0-7.066-1.457l-4.6,6.493a2.56,2.56,0,1,1-4.18-2.957l3.115-4.4c-.294-.056-.6-.107-.883-.169ZM62.483,45.266c-.037-1.868-.415-7.009-3.332-10.424l-.018-.019a12.925,12.925,0,0,0-1.012-1.043c-.063-.059-.126-.119-.19-.177a13.229,13.229,0,0,0-1.18-.944l-.063-.044a15.62,15.62,0,0,0-3.022-1.633c-3.239,3.447-4.4,9.45-4.426,14.285ZM43.876,26.256a1.05,1.05,0,0,0-.61-.2,1.074,1.074,0,0,0-.181.016,1.05,1.05,0,0,0-.687.433L41.371,27.96s-.007.009-.01.014l-3.822,5.4a1.061,1.061,0,0,0,.255,1.479A1.061,1.061,0,0,0,39.27,34.6l4.859-6.863a1.063,1.063,0,0,0-.254-1.479ZM1.5,48.762a.542.542,0,0,0,.542.542h59.9a.542.542,0,0,0,.541-.542v-2H1.5Z" transform="translate(0 -13.198)" fill="#0b0c0c"/>
    </g>
  </g>
</svg>
