<svg id="Grupo_1178167" data-name="Grupo 1178167" xmlns="http://www.w3.org/2000/svg" xmlns:xlink="http://www.w3.org/1999/xlink" width="1327.023" height="644.806" viewBox="0 0 1327.023 644.806">
  <defs>
    <linearGradient id="linear-gradient" x1="0.5" y1="1" x2="0.5" gradientUnits="objectBoundingBox">
      <stop offset="0" stop-color="#f4eafc"/>
      <stop offset="1" stop-color="#fff"/>
    </linearGradient>
  </defs>
  <path id="Unión_5" data-name="Unión 5" d="M.488,0V247.629c-.164.253-.326.5-.488.758V453.17c56.853,64.808,174.081,85.265,283.057,82.883,87.128-1.9,169.8-20.1,244.03-45.742,65.65-22.677,125.658-51.222,193.529-71.418,167.611-49.88,355.519-4.8,522.663,45.285,27.24,8.162,54.593,16.281,82.026,24.155v-210.8h1.183V0Z" transform="translate(0 108.569)" fill="#f4eafc" opacity="0.547"/>
  <path id="Unión_6" data-name="Unión 6" d="M1048.261,0C940.838,0,836.5,28.478,734.371,58.025c-100.18,28.984-212.8,55.074-313.263,26.207C380.428,72.544,344.462,56.024,305.114,42.9c-44.492-14.839-94.041-25.37-146.262-26.472C99.82,15.181,36.746,24.734,0,54.273v423.8H1326.488V192.37H1325.3V94.052c-33.7-45.73-112.3-75.574-192.873-87.836A558.038,558.038,0,0,0,1048.274,0Z" transform="translate(1326.511 577.408) rotate(180)" fill="#f4eafc" style="mix-blend-mode: darken;isolation: isolate"/>
  <rect id="Rectángulo_401378" data-name="Rectángulo 401378" width="1327" height="377" transform="translate(0.023)" fill="url(#linear-gradient)"/>
</svg>
